/* XPM */
static char * dragon_xpm[] = {
"50 50 823 2",
"  	c None",
". 	c #5EAB46",
"+ 	c #5DAC47",
"@ 	c #5EAC47",
"# 	c #71B550",
"$ 	c #50A343",
"% 	c #4FA446",
"& 	c #4EA446",
"* 	c #50A547",
"= 	c #89C141",
"- 	c #4FA344",
"; 	c #4EA046",
"> 	c #4D9F45",
", 	c #62AD45",
"' 	c #6CB144",
") 	c #7ABA44",
"! 	c #4FA445",
"~ 	c #50A344",
"{ 	c #4FA346",
"] 	c #62AC44",
"^ 	c #7EBA42",
"/ 	c #4EA045",
"( 	c #4E9F45",
"_ 	c #50A443",
": 	c #8AC241",
"< 	c #51A545",
"[ 	c #81BC40",
"} 	c #94C744",
"| 	c #53A645",
"1 	c #61AB43",
"2 	c #7AB73E",
"3 	c #4C9D44",
"4 	c #4FA246",
"5 	c #4FA447",
"6 	c #86BF3E",
"7 	c #5DAB47",
"8 	c #7FBD44",
"9 	c #5BAA47",
"0 	c #4EA447",
"a 	c #4EA146",
"b 	c #4DA046",
"c 	c #4EA246",
"d 	c #52A647",
"e 	c #5FAB45",
"f 	c #86C143",
"g 	c #4D9C45",
"h 	c #57A846",
"i 	c #5BA946",
"j 	c #4D9D45",
"k 	c #5CAA48",
"l 	c #82BD41",
"m 	c #5CA945",
"n 	c #50A446",
"o 	c #61AD46",
"p 	c #58A846",
"q 	c #59A946",
"r 	c #61AC45",
"s 	c #66AF45",
"t 	c #6EB345",
"u 	c #56A745",
"v 	c #61AB45",
"w 	c #5DA945",
"x 	c #70B341",
"y 	c #4EA145",
"z 	c #6FB344",
"A 	c #60AC44",
"B 	c #63AE46",
"C 	c #6FB242",
"D 	c #53A646",
"E 	c #74B543",
"F 	c #7AB842",
"G 	c #61AC46",
"H 	c #63AD47",
"I 	c #71B546",
"J 	c #57A745",
"K 	c #4EA245",
"L 	c #6CB145",
"M 	c #51A546",
"N 	c #56A845",
"O 	c #76B645",
"P 	c #66AF47",
"Q 	c #69B045",
"R 	c #6FB345",
"S 	c #6DB347",
"T 	c #7EBB43",
"U 	c #5AA844",
"V 	c #77B643",
"W 	c #50A445",
"X 	c #74B643",
"Y 	c #7EBC43",
"Z 	c #70B344",
"` 	c #4FA546",
" .	c #75B745",
"..	c #55A847",
"+.	c #4DA145",
"@.	c #65AD44",
"#.	c #7FBC43",
"$.	c #6FB446",
"%.	c #65AE45",
"&.	c #7FBC52",
"*.	c #85B995",
"=.	c #9FC7B8",
"-.	c #B1D2CC",
";.	c #BED7DA",
">.	c #BED8DC",
",.	c #92C285",
"'.	c #7BB840",
").	c #69B147",
"!.	c #6FB243",
"~.	c #5BA844",
"{.	c #5EAB45",
"].	c #5AAA46",
"^.	c #53A54D",
"/.	c #94B98D",
"(.	c #AAAD87",
"_.	c #AF9E8F",
":.	c #AC998E",
"<.	c #B39F93",
"[.	c #BEBEBC",
"}.	c #C1C8CF",
"|.	c #A8C3BC",
"1.	c #67AE44",
"2.	c #68AF44",
"3.	c #4D9F46",
"4.	c #70B446",
"5.	c #75B643",
"6.	c #7FBB42",
"7.	c #52A646",
"8.	c #94BE9D",
"9.	c #C2C8C0",
"0.	c #A38C7B",
"a.	c #7A4C3B",
"b.	c #724D3B",
"c.	c #634639",
"d.	c #A69B95",
"e.	c #CCD8E1",
"f.	c #C8D8E3",
"g.	c #6BAE71",
"h.	c #81BD46",
"i.	c #74B646",
"j.	c #6AB247",
"k.	c #5FAA43",
"l.	c #AFC9BD",
"m.	c #D0C6B2",
"n.	c #8A6552",
"o.	c #653C2E",
"p.	c #4F241B",
"q.	c #471E17",
"r.	c #461F11",
"s.	c #664C44",
"t.	c #C6D6DE",
"u.	c #B6D1CA",
"v.	c #5BAA46",
"w.	c #8AC343",
"x.	c #5AA946",
"y.	c #58A847",
"z.	c #50A448",
"A.	c #ADC4BF",
"B.	c #757476",
"C.	c #86888E",
"D.	c #92969E",
"E.	c #777276",
"F.	c #431C12",
"G.	c #5D392C",
"H.	c #653727",
"I.	c #B1AAAA",
"J.	c #81B78D",
"K.	c #50A546",
"L.	c #58A948",
"M.	c #4B9B45",
"N.	c #84B890",
"O.	c #A3C8B7",
"P.	c #A9CABF",
"Q.	c #BCCCD4",
"R.	c #24170F",
"S.	c #482C20",
"T.	c #7B412C",
"U.	c #BDB3AB",
"V.	c #7DBA40",
"W.	c #8CC340",
"X.	c #4C9C45",
"Y.	c #7BBB45",
"Z.	c #6BB247",
"`.	c #52A645",
" +	c #76B27F",
".+	c #82898E",
"++	c #271810",
"@+	c #4C3126",
"#+	c #87442C",
"$+	c #909D6C",
"%+	c #4C9D45",
"&+	c #5AA559",
"*+	c #6FA67B",
"=+	c #829D80",
"-+	c #869888",
";+	c #839192",
">+	c #778075",
",+	c #50A248",
"'+	c #6DB244",
")+	c #7CBB43",
"!+	c #72A77A",
"~+	c #3F3C3A",
"{+	c #322119",
"]+	c #543628",
"^+	c #86503D",
"/+	c #81AB5C",
"(+	c #6CB143",
"_+	c #58A655",
":+	c #82B191",
"<+	c #98B3AE",
"[+	c #A4B1B9",
"}+	c #B28581",
"|+	c #AF583C",
"1+	c #956F5C",
"2+	c #7C8362",
"3+	c #4FA044",
"4+	c #5DAB46",
"5+	c #7DBB44",
"6+	c #67AF45",
"7+	c #5D915B",
"8+	c #2A1C13",
"9+	c #402D24",
"0+	c #614134",
"a+	c #A07567",
"b+	c #67A75C",
"c+	c #62A964",
"d+	c #92B8A8",
"e+	c #AFC2CB",
"f+	c #A9ABAD",
"g+	c #988C8D",
"h+	c #BB5540",
"i+	c #D85B30",
"j+	c #AF5434",
"k+	c #A56556",
"l+	c #579F56",
"m+	c #6A926F",
"n+	c #2A1B12",
"o+	c #47362B",
"p+	c #795846",
"q+	c #845946",
"r+	c #B9AAA2",
"s+	c #ACBFAC",
"t+	c #78AC81",
"u+	c #51A449",
"v+	c #8CB89F",
"w+	c #BCCDD7",
"x+	c #B6BDC2",
"y+	c #938C8F",
"z+	c #874733",
"A+	c #C34C27",
"B+	c #CA5834",
"C+	c #BC5632",
"D+	c #D45024",
"E+	c #9D6A62",
"F+	c #5F895E",
"G+	c #84C145",
"H+	c #61AA42",
"I+	c #557E56",
"J+	c #291912",
"K+	c #362922",
"L+	c #A2826A",
"M+	c #BE8C71",
"N+	c #B27759",
"O+	c #BE8160",
"P+	c #B89684",
"Q+	c #B9A99E",
"R+	c #99AE9E",
"S+	c #7FAD8B",
"T+	c #63A866",
"U+	c #90B4A6",
"V+	c #A8B0B6",
"W+	c #B97264",
"X+	c #985641",
"Y+	c #863E24",
"Z+	c #BC5534",
"`+	c #B34D2C",
" @	c #BE5835",
".@	c #CF5631",
"+@	c #C24F29",
"@@	c #8C4F3E",
"#@	c #7D8166",
"$@	c #51984E",
"%@	c #64AE44",
"&@	c #57A746",
"*@	c #77B53E",
"=@	c #6B8B73",
"-@	c #281C15",
";@	c #231006",
">@	c #77584A",
",@	c #C99777",
"'@	c #A5765F",
")@	c #B27C63",
"!@	c #D4976B",
"~@	c #D99860",
"{@	c #F0A168",
"]@	c #D5A887",
"^@	c #C8B4A3",
"/@	c #908990",
"(@	c #9A4732",
"_@	c #823E24",
":@	c #9B492C",
"<@	c #B05131",
"[@	c #B34825",
"}@	c #C34B24",
"|@	c #C34F2A",
"1@	c #A75234",
"2@	c #85703E",
"3@	c #76A448",
"4@	c #6EB242",
"5@	c #5CA844",
"6@	c #5FA15E",
"7@	c #43463F",
"8@	c #25140C",
"9@	c #311A10",
"0@	c #A57D64",
"a@	c #A98068",
"b@	c #614534",
"c@	c #956C51",
"d@	c #B28160",
"e@	c #D6976F",
"f@	c #DB9D73",
"g@	c #A47155",
"h@	c #70301E",
"i@	c #683A26",
"j@	c #85422D",
"k@	c #953B1D",
"l@	c #9E3E20",
"m@	c #974125",
"n@	c #924831",
"o@	c #856740",
"p@	c #64924B",
"q@	c #78B845",
"r@	c #5DA855",
"s@	c #62AA5B",
"t@	c #76B647",
"u@	c #6EB445",
"v@	c #508B41",
"w@	c #241811",
"x@	c #25140A",
"y@	c #352119",
"z@	c #8E6E5C",
"A@	c #7F6452",
"B@	c #644636",
"C@	c #6B4939",
"D@	c #815642",
"E@	c #5F3121",
"F@	c #4F2D20",
"G@	c #673F31",
"H@	c #6B2F1C",
"I@	c #782D17",
"J@	c #813921",
"K@	c #76402D",
"L@	c #875941",
"M@	c #82725E",
"N@	c #50A049",
"O@	c #52A249",
"P@	c #58A64F",
"Q@	c #5BA653",
"R@	c #73B645",
"S@	c #67AE43",
"T@	c #57A845",
"U@	c #43723C",
"V@	c #261811",
"W@	c #25160D",
"X@	c #231209",
"Y@	c #5E4439",
"Z@	c #765649",
"`@	c #473126",
" #	c #432D22",
".#	c #3F251A",
"+#	c #4C2415",
"@#	c #58210D",
"##	c #663A2A",
"$#	c #83523D",
"%#	c #CB916B",
"&#	c #E1A87F",
"*#	c #DA9F71",
"=#	c #A56648",
"-#	c #7E6E53",
";#	c #639B57",
">#	c #56A44D",
",#	c #539D4D",
"'#	c #59A750",
")#	c #5BA853",
"!#	c #5BA654",
"~#	c #58A44F",
"{#	c #54A34B",
"]#	c #5BA553",
"^#	c #52A448",
"/#	c #77B742",
"(#	c #6BB143",
"_#	c #77B743",
":#	c #50A348",
"<#	c #476246",
"[#	c #2A211D",
"}#	c #2E1B0F",
"|#	c #5C3C2F",
"1#	c #7A5849",
"2#	c #442D22",
"3#	c #442113",
"4#	c #4C1B0A",
"5#	c #432317",
"6#	c #342119",
"7#	c #382621",
"8#	c #43302E",
"9#	c #56392E",
"0#	c #8C6146",
"a#	c #CD8B60",
"b#	c #EFA463",
"c#	c #D7834B",
"d#	c #96503A",
"e#	c #81734F",
"f#	c #5D9255",
"g#	c #55A34D",
"h#	c #69AF56",
"i#	c #74B44E",
"j#	c #57A34E",
"k#	c #51A149",
"l#	c #5DA756",
"m#	c #79B445",
"n#	c #73B444",
"o#	c #74B746",
"p#	c #63AC43",
"q#	c #529D4E",
"r#	c #587E5F",
"s#	c #535B5B",
"t#	c #443330",
"u#	c #563429",
"v#	c #5E3F34",
"w#	c #45261D",
"x#	c #411507",
"y#	c #5C362B",
"z#	c #664D3F",
"A#	c #4D3F36",
"B#	c #24190F",
"C#	c #251710",
"D#	c #261714",
"E#	c #2F2120",
"F#	c #312322",
"G#	c #4A312A",
"H#	c #764733",
"I#	c #BC6E3E",
"J#	c #DB7747",
"K#	c #AC5B37",
"L#	c #A95939",
"M#	c #8B6F54",
"N#	c #618D52",
"O#	c #5EA446",
"P#	c #4EA345",
"Q#	c #64AC42",
"R#	c #7FBC42",
"S#	c #61AC44",
"T#	c #6AB044",
"U#	c #5F9864",
"V#	c #616F71",
"W#	c #474749",
"X#	c #361B11",
"Y#	c #563225",
"Z#	c #513226",
"`#	c #2B0B05",
" $	c #413522",
".$	c #52713B",
"+$	c #3E312D",
"@$	c #2C1912",
"#$	c #583E33",
"$$	c #292625",
"%$	c #292726",
"&$	c #37312C",
"*$	c #39322E",
"=$	c #291A16",
"-$	c #322424",
";$	c #442E2C",
">$	c #6D4333",
",$	c #A56443",
"'$	c #BF6740",
")$	c #C4653D",
"!$	c #A2593A",
"~$	c #745248",
"{$	c #5E7651",
"]$	c #5D9555",
"^$	c #60AB43",
"/$	c #64AD45",
"($	c #7BBA44",
"_$	c #7AB943",
":$	c #67B047",
"<$	c #61906B",
"[$	c #677177",
"}$	c #3A3031",
"|$	c #37150B",
"1$	c #4A291F",
"2$	c #37190F",
"3$	c #3C4627",
"4$	c #538643",
"5$	c #4FA145",
"6$	c #375735",
"7$	c #180604",
"8$	c #4B372F",
"9$	c #282C2B",
"0$	c #2B2E2F",
"a$	c #363435",
"b$	c #7E765A",
"c$	c #567B5A",
"d$	c #494C4A",
"e$	c #414243",
"f$	c #2B2721",
"g$	c #2C1D19",
"h$	c #3B2A23",
"i$	c #583C32",
"j$	c #8C573B",
"k$	c #C66B45",
"l$	c #CC6A42",
"m$	c #A55536",
"n$	c #894832",
"o$	c #6B5D54",
"p$	c #587B5A",
"q$	c #5B945A",
"r$	c #53A24E",
"s$	c #4EA346",
"t$	c #73B441",
"u$	c #74B542",
"v$	c #55A746",
"w$	c #56835C",
"x$	c #46474A",
"y$	c #2C0E0A",
"z$	c #37150D",
"A$	c #391A14",
"B$	c #385722",
"C$	c #498B3D",
"D$	c #3D653E",
"E$	c #180A0A",
"F$	c #4C833D",
"G$	c #4F9C49",
"H$	c #3D4D40",
"I$	c #4D7940",
"J$	c #4FA047",
"K$	c #559555",
"L$	c #518155",
"M$	c #47644A",
"N$	c #3F4543",
"O$	c #393D3D",
"P$	c #30251F",
"Q$	c #503D2E",
"R$	c #704A35",
"S$	c #A96949",
"T$	c #C57853",
"U$	c #BD714A",
"V$	c #A76343",
"W$	c #855340",
"X$	c #7A6C6B",
"Y$	c #6F7D6B",
"Z$	c #5E8D65",
"`$	c #569856",
" %	c #50A349",
".%	c #52A545",
"+%	c #528C52",
"@%	c #3C302F",
"#%	c #2C0D04",
"$%	c #251608",
"%%	c #39682A",
"&%	c #49943F",
"*%	c #3A5E3A",
"=%	c #201A18",
"-%	c #336529",
";%	c #4E854F",
">%	c #414748",
",%	c #43863D",
"'%	c #50A444",
")%	c #539851",
"!%	c #518950",
"~%	c #4D784F",
"{%	c #486049",
"]%	c #4A4D4D",
"^%	c #353532",
"/%	c #433326",
"(%	c #784E39",
"_%	c #89593F",
":%	c #9B6248",
"<%	c #9C5D3E",
"[%	c #A26042",
"}%	c #9B634B",
"|%	c #886459",
"1%	c #777256",
"2%	c #648052",
"3%	c #608D50",
"4%	c #579551",
"5%	c #549B4E",
"6%	c #54994B",
"7%	c #5A8D4A",
"8%	c #4F9E48",
"9%	c #3E4641",
"0%	c #323D25",
"a%	c #527F2D",
"b%	c #4C9D43",
"c%	c #4FA347",
"d%	c #498E45",
"e%	c #39483E",
"f%	c #1F1515",
"g%	c #2B4A23",
"h%	c #4F954A",
"i%	c #4A5453",
"j%	c #2F3434",
"k%	c #499641",
"l%	c #88C141",
"m%	c #56A746",
"n%	c #4D9E46",
"o%	c #539A4E",
"p%	c #73A049",
"q%	c #4B7D43",
"r%	c #446942",
"s%	c #455541",
"t%	c #3D3936",
"u%	c #3E2C21",
"v%	c #4B3022",
"w%	c #6A4533",
"x%	c #835642",
"y%	c #7D503C",
"z%	c #8F5942",
"A%	c #9C6146",
"B%	c #9A664F",
"C%	c #8F5940",
"D%	c #716536",
"E%	c #4E9E47",
"F%	c #478742",
"G%	c #3E7237",
"H%	c #25201C",
"I%	c #1D0C05",
"J%	c #2A3114",
"K%	c #4A9942",
"L%	c #489241",
"M%	c #2F3E31",
"N%	c #252B27",
"O%	c #292E2B",
"P%	c #82BD42",
"Q%	c #4C9345",
"R%	c #4F8D4A",
"S%	c #4F864D",
"T%	c #4F7B4E",
"U%	c #476845",
"V%	c #435C42",
"W%	c #373A33",
"X%	c #36312D",
"Y%	c #352A25",
"Z%	c #3C6030",
"`%	c #499540",
" &	c #499440",
".&	c #4A9741",
"+&	c #4B9E43",
"@&	c #4B9A43",
"#&	c #499541",
"$&	c #4A9842",
"%&	c #56A747",
"&&	c #69AF43",
"*&	c #60AB44",
"=&	c #55A645",
"-&	c #51A445",
";&	c #64AD43",
">&	c #53A647",
",&	c #60AA43",
"'&	c #63AD44",
")&	c #4FA345",
"!&	c #61AB44",
"~&	c #64AD46",
"{&	c #53A747",
"]&	c #5DAA44",
"^&	c #54A746",
"/&	c #62AD46",
"(&	c #5EAA45",
"_&	c #54A644",
":&	c #65AD43",
"<&	c #6FB241",
"[&	c #94C83F",
"}&	c #86C042",
"|&	c #71B442",
"1&	c #8EC540",
"2&	c #8CC440",
"3&	c #77B845",
"4&	c #91C740",
"5&	c #78B742",
"6&	c #87BF3F",
"7&	c #8DC440",
"8&	c #78B741",
"9&	c #86BF3F",
"0&	c #8CC441",
"a&	c #74B645",
"b&	c #85BF41",
"c&	c #7FBC44",
"d&	c #76B743",
"e&	c #8BC443",
"f&	c #86C043",
"g&	c #77B641",
"h&	c #7BB942",
"i&	c #87C042",
"j&	c #6FB343",
"k&	c #8EC43F",
"l&	c #7AB142",
"m&	c #7FB642",
"n&	c #8BC140",
"o&	c #7BB242",
"p&	c #7BB243",
"q&	c #8FC33F",
"r&	c #7AB140",
"s&	c #84BA42",
"t&	c #86BC41",
"u&	c #7BB142",
"v&	c #85BA41",
"w&	c #80B641",
"x&	c #87BC41",
"y&	c #86BC42",
"z&	c #7FB543",
"A&	c #8ABF3F",
"B&	c #91C53F",
"C&	c #7BB143",
"D&	c #8AC040",
"E&	c #92C742",
"F&	c #8AC044",
"G&	c #84BB42",
"H&	c #81B743",
"I&	c #367F3F",
"J&	c #468940",
"K&	c #619D3E",
"L&	c #377F3F",
"M&	c #69A33E",
"N&	c #377F3D",
"O&	c #529241",
"P&	c #71AA3D",
"Q&	c #559440",
"R&	c #56933F",
"S&	c #71AB3D",
"T&	c #47893E",
"U&	c #579540",
"V&	c #55933F",
"W&	c #448940",
"X&	c #71AA3E",
"Y&	c #5F9B3E",
"Z&	c #6BA53F",
"`&	c #69A23F",
" *	c #5F9C3E",
".*	c #6FA840",
"+*	c #35803F",
"@*	c #5F9C43",
"#*	c #4F913D",
"$*	c #478840",
"%*	c #347D3E",
"&*	c #7D6D39",
"**	c #76723A",
"=*	c #36803F",
"-*	c #806C39",
";*	c #806D39",
">*	c #6A753B",
",*	c #5F783B",
"'*	c #4D7C3E",
")*	c #477C3F",
"!*	c #777039",
"~*	c #6B763B",
"{*	c #5D793C",
"]*	c #5D783D",
"^*	c #4E7C3D",
"/*	c #995D33",
"(*	c #966134",
"_*	c #6B743A",
":*	c #387F3F",
"<*	c #757138",
"[*	c #9B5D34",
"}*	c #916335",
"|*	c #7E6C37",
"1*	c #4E7B3D",
"2*	c #4B7C3D",
"3*	c #8D6635",
"4*	c #856936",
"5*	c #836A36",
"6*	c #966034",
"7*	c #6B753A",
"8*	c #766F39",
"9*	c #816C37",
"0*	c #916334",
"a*	c #5E773B",
"b*	c #4D7B3E",
"c*	c #806B36",
"d*	c #8C6636",
"e*	c #4D7D3D",
"f*	c #54793D",
"g*	c #8E6536",
"h*	c #876936",
"i*	c #3B7E3E",
"j*	c #367D3D",
"k*	c #9A5C33",
"l*	c #946135",
"m*	c #8D6538",
"n*	c #8D6637",
"o*	c #985F35",
"p*	c #8F6537",
"q*	c #906437",
"r*	c #966135",
"s*	c #995E35",
"t*	c #926336",
"u*	c #926337",
"v*	c #916337",
"w*	c #9A5D33",
"x*	c #8D6537",
"y*	c #8B6336",
"z*	c #96582F",
"A*	c #92542B",
"B*	c #995B32",
"C*	c #995C32",
"D*	c #94562D",
"E*	c #93552C",
"F*	c #975931",
"G*	c #975930",
"H*	c #91532A",
"I*	c #905229",
"J*	c #9B5D33",
"K*	c #94572E",
"L*	c #985A31",
"M*	c #92542C",
"N*	c #8F5229",
"O*	c #96582E",
"P*	c #90522A",
"Q*	c #965830",
"R*	c #8E5128",
"S*	c #8D5128",
"T*	c #8C5128",
"U*	c #8E5127",
"V*	c #946145",
". + + + + + + + + + + + + + + + + @ + + + + + + + + + + + + + + + + + + + + + + + + + + + + + + + # ",
"$ % & * % % % % % % % % & = - % ; > % % % % % % % % % % % % % % % % % % % % % % % % % % % % % % % , ",
"$ % ' ) % % % % ! ~ % % { % % % % % % % % % ] ^ % % % % % % / ( % % _ : < % % % % % % % % % [ } | , ",
"$ % % & % % % % 1 2 % % 3 4 % % % % % % % % ! 5 % % % % % % % % % % 6 7 8 ! % % % 9 % % % % 5 0 % , ",
"$ % a b % % % % % % % % % % % % % % % % c % % % % % % % d e % % % % % % % % b a % f % % % % % g % , ",
"$ % % % % % % % % % % % % % % % h i % % j % % % % % % % k l m % % % % % % % % % % n % % % % % % % , ",
"$ % % % o p % % % q r % % % % % s t % % % % u v % % % % % w x % % % % % % % % % % % % % % % % % % , ",
"$ y % % z A % % % B C % % % % % % % % % % D E F G % % % % % % % % % % % % % H I J % % % K K % L M , ",
"$ > % % % % % % % % % % % / % % % % % % % N O P Q % % % % % % % % % R % % % S T U % % % K y % V W , ",
"$ % % % % % % % % % % % % > % % % % % % % % % % % % % % { ; % % % % X % % % % % % % % % % % % % % , ",
"$ Y Z % % % % & % % % % % % ` % % % % % % % % % % %  ...{ +.% % % % % % % % % % % % % % @.#.G % % , ",
"$ $.%.% % % % &.*.=.-.;.>.,.'.5 % % % % % % % % % % ).D % % % % % % % % c ; % !.~.% % % {.$.].% % , ",
"$ % % % ^./.(._.:.<.[.}.|.1.2.% % % 3.K % % % % % % % % % % % % % % % % { 4 4.5.6.7.% % % % % % % , ",
"$ % % 8.9.0.a.b.c.d.e.f.g.% % % % % 4 { % q h.% % % % % % % % i.j.% % % % % i J k.W % % % % % % % , ",
"$ % l.m.n.o.p.q.r.s.t.u.% % % % % % % % % v.w.% % % % % % % % x.y.% % % % % % % % % % % % % % % % , ",
"$ z.A.B.C.D.E.F.G.H.I.J.% % % % % % % % % K.L.% % % % % % % % % % % % % % % % % g { % % % % % % M., ",
"$ % % N.O.P.Q.R.S.T.U.% % % % 1 V.% % % % % % % % % % W.0 % % % % X.& % % % % % % % % % % Y.Z.% % , ",
"$ % M `.%  +.+++@+#+$+< % % % % & % % %+c % % % &+*+=+-+;+>+,+% % % % K.D % % % % % % % % 5 % % % , ",
"$ % '+)+% !+~+{+]+^+/+(+% % { % % % % % % _+:+<+[+}+|+1+2+3+% % % % % 4+5+! % % % % % % % % % % % , ",
"$ % 6+ .% 7+8+9+0+a+b+% % % X.% % % % c+d+e+f+g+h+i+j+k+l+% % % % % % % % % % % % r % % % % % % % , ",
"$ % % % % m+n+o+p+q+r+s+t+u+% % % % v+w+x+y+z+A+B+C+D+E+F+{ % % % % % % % % % % % G+H+% % % % % % , ",
"$ % % % % I+J+K+L+M+N+O+P+Q+R+S+T+U+V+W+X+Y+Z+`+ @.@+@@@#@$@% % %@&@% % % % % % % - *@% % % % % % , ",
"$ ; % % % =@-@;@>@,@'@)@!@~@{@]@^@/@(@_@:@<@[@}@|@1@2@3@% { % % 4@5@% % % % % % % % % % c c % ' M , ",
"$ > % % % 6@7@8@9@0@a@b@c@d@e@f@g@h@i@j@k@l@m@n@o@p@% q@r@s@{ % % % % % % % % % % % % % K K % t@M , ",
"$ % % % % u@v@w@x@y@z@A@B@C@D@E@F@G@H@I@J@K@L@M@N@% { O@P@Q@K { % { % % % % % % R@< % % % % % % % , ",
"$ % % % % S@T@U@V@W@X@Y@Z@`@ #.#+#@###$#%#&#*#=#-#;#>#,#'#)#!#~#{#]#^#/#! % % % (#M % % % % % % % , ",
"$ _#% % % % % :#<#[#}#|#1#2#3#4#5#6#7#8#9#0#a#b#c#d#e#f#g#h#i#j#k#l#m#n#o#% % % % % % % % % % % % , ",
"$ p#% % % % q#r#s#t#u#v#w#x#y#z#A#B#C#D#E#F#G#H#I#J#K#L#M#N#O#% % P#Q#R#S#% % % % % % % 2.T#% % % , ",
"$ % % % % U#V#W#X#Y#Z#`# $.$+$@$#$$$%$&$*$V@=$-$;$>$,$'$)$!$~${$]$,+! ^$5 % % % % %+% /$($_$:$% % , ",
"$ g % % <$[$}$|$1$2$3$4$5$% 6$7$8$9$0$a$b$c$d$e$f$g$h$i$j$k$l$m$n$o$p$q$r$% % % % s$% D t$u$v$% % , ",
"$ s$% w$x$y$z$A$B$C$% % % { D$E$F$7.G$H$I$% J$K$L$M$N$O$P$Q$R$S$T$U$V$W$X$Y$Z$`$ %% % % M .%% % % , ",
"$ % +%@%#%$%%%&%% % % % g *%=%-%% % ;%>%,%'%% % % % 4 )%!%~%{%]%^%/%(%_%:%<%[%}%|%1%2%3%4%5%6%7%% , ",
"$ 8%9%0%a%b%% c%g % % d%e%f%g%y % h%i%j%k%l%m%% % % % % % c n%c%o%p%q%r%s%t%u%v%w%x%y%z%A%B%C%D%% , ",
"$ E%F%K % % % % % c G%H%I%J%K%% L%M%N%O%{ q P%% % % % % % % % % % % % % % n%Q%R%S%T%U%V%W%X%Y%Z%% , ",
"$ % % % % % % % % > `% &.&+&% % @&k%#&$&% % 5 % % % % % % % % % % % % % % % % % % % % % % { n%4 % , ",
"$ %&&&e % *&=&-&;&% % % ] >&S@=&,&% % % '&)&=&!&% % ~&{&% % % ]&x.% % ^&/&% (&&&_&% % J *&% % :&&&, ",
"<&/#[&}&!.: _#|&1&!.!.!.2&3&4&5&6&!.!.!.7&C 8&9&!.!.0&a&!.!.!.b&c&!.!.d&e&!.f&[&g&!.!.h&i&!.j&k&[&/#",
"l&m&n&o&p&o&q&r&o&s&[&t&u&o&u&u&l&v&[&[&w&p&l&o&x&y&l&l&z&[&A&u&p&p&B&q&l&C&o&D&w&E&l&p&u&F&G&u&o&H&",
"I&J&K&L&L&L&M&N&L&O&P&Q&L&L&L&L&L&R&P&S&T&L&L&L&U&V&L&L&W&X&Y&L&L&L&Z&`&L&L&L& *T&.*+*L&L&@*#*L&L&$*",
"I&L&L&L&L&L&L&L&L&L&L&L&L&L&L&L&L&L&L&L&L&L&L&L&L&L&L&L&L&L&L&L&L&L&L&L&L&L&L&L&L&L&L&L&L&L&L&L&L&%*",
"&***L&L&L&L&=*-*;*;*>*L&L&L&L&L&L&,*;*;*'*)*!*I&L&L&L&=*;*;*~*L&L&L&L&L&L&{*;*]*L&L&L&L&{*;*;*^*L&%*",
"/*(*_*:*:*:*<*[*[*[*}*|*1*:*:*2*|*3*[*[*4*5*6*7*:*:*8*9*[*[*0*a*:*:*:*b*c*3*[*d*e*:*:*f*g*[*[*h*i*j*",
"k*[*l*m*m*n*o*[*[*[*[*[*p*m*m*q*[*[*[*[*[*[*[*r*m*m*s*[*[*[*[*t*m*m*m*u*[*[*[*[*p*m*m*v*w*[*[*[*x*y*",
"w*[*[*[*[*[*[*[*[*[*[*[*[*[*[*[*[*[*z*A*B*[*[*[*[*[*[*[*k*A*z*[*[*[*[*[*[*[*[*[*[*[*[*[*[*[*[*[*[*C*",
"A*D*[*[*[*[*[*[*B*E*E*F*[*[*[*[*[*G*H*I*H*[*[*[*[*[*J*E*A*I*K*[*[*[*[*[*[*[*z*L*[*[*[*[*L*E*M*k*[*C*",
"N*I*I*O*[*[*[*H*I*I*I*I*I*I*[*B*I*I*I*I*I*P*E*[*[*[*E*I*I*I*I*Q*[*[*[*k*H*I*I*I*I*[*[*L*I*I*I*I*I*C*",
"N*I*I*I*I*I*I*I*I*I*I*I*I*I*I*I*I*I*I*I*I*I*I*I*I*I*I*I*I*I*I*I*I*I*I*I*I*I*I*I*I*I*I*I*I*I*I*I*I*R*",
"N*I*I*I*I*I*I*I*I*I*I*I*I*I*I*I*I*I*I*I*I*I*I*I*I*I*I*I*I*I*I*I*I*I*I*I*I*I*I*I*I*I*I*I*I*I*I*I*I*S*",
"N*I*I*I*I*I*I*I*I*I*I*I*I*I*I*I*I*I*I*I*I*I*I*I*I*I*I*I*I*I*I*I*I*I*I*I*I*I*I*I*I*I*I*I*I*I*I*I*I*S*",
"T*U*U*U*U*U*U*U*U*U*U*U*U*U*U*U*U*U*U*U*U*U*U*U*U*U*U*U*U*U*U*U*U*U*U*U*U*U*U*U*U*U*U*U*U*U*U*U*U*V*"};
