/* XPM */
static char * dragon_xpm[] = {
"50 50 817 2",
"  	c None",
". 	c #5EAB46",
"+ 	c #5DAC47",
"@ 	c #5EAC47",
"# 	c #71B550",
"$ 	c #50A343",
"% 	c #4FA446",
"& 	c #4EA446",
"* 	c #50A547",
"= 	c #89C141",
"- 	c #4FA344",
"; 	c #4EA046",
"> 	c #4D9F45",
", 	c #62AD45",
"' 	c #6CB144",
") 	c #7ABA44",
"! 	c #4FA445",
"~ 	c #50A344",
"{ 	c #4FA346",
"] 	c #62AC44",
"^ 	c #7EBA42",
"/ 	c #4EA045",
"( 	c #4E9F45",
"_ 	c #50A443",
": 	c #8AC241",
"< 	c #51A545",
"[ 	c #81BC40",
"} 	c #94C744",
"| 	c #53A645",
"1 	c #61AB43",
"2 	c #7AB73E",
"3 	c #4C9D44",
"4 	c #4FA246",
"5 	c #4FA447",
"6 	c #86BF3E",
"7 	c #5DAB47",
"8 	c #7FBD44",
"9 	c #5BAA47",
"0 	c #4EA447",
"a 	c #4EA146",
"b 	c #4DA046",
"c 	c #4EA246",
"d 	c #52A647",
"e 	c #5FAB45",
"f 	c #86C143",
"g 	c #4D9C45",
"h 	c #57A846",
"i 	c #5BA946",
"j 	c #4D9D45",
"k 	c #5CAA48",
"l 	c #82BD41",
"m 	c #5CA945",
"n 	c #50A446",
"o 	c #61AD46",
"p 	c #58A846",
"q 	c #59A946",
"r 	c #61AC45",
"s 	c #66AF45",
"t 	c #6EB345",
"u 	c #56A745",
"v 	c #61AB45",
"w 	c #5DA945",
"x 	c #70B341",
"y 	c #4EA145",
"z 	c #6FB344",
"A 	c #60AC44",
"B 	c #63AE46",
"C 	c #6FB242",
"D 	c #53A646",
"E 	c #74B543",
"F 	c #7AB842",
"G 	c #61AC46",
"H 	c #63AD47",
"I 	c #71B546",
"J 	c #57A745",
"K 	c #4EA245",
"L 	c #6CB145",
"M 	c #51A546",
"N 	c #56A845",
"O 	c #76B645",
"P 	c #66AF47",
"Q 	c #69B045",
"R 	c #6FB345",
"S 	c #6DB347",
"T 	c #7EBB43",
"U 	c #5AA844",
"V 	c #77B643",
"W 	c #50A445",
"X 	c #58A755",
"Y 	c #85B995",
"Z 	c #9FC7B8",
"` 	c #B1D2CC",
" .	c #BED7DA",
"..	c #BDD7DC",
"+.	c #7CB588",
"@.	c #74B643",
"#.	c #7EBC43",
"$.	c #70B344",
"%.	c #53A54D",
"&.	c #93B98D",
"*.	c #A3A687",
"=.	c #AE9D8F",
"-.	c #AC998E",
";.	c #B39F93",
">.	c #BEBEBC",
",.	c #C1C8CF",
"'.	c #A8C3BC",
").	c #4FA546",
"!.	c #75B745",
"~.	c #55A847",
"{.	c #4DA145",
"].	c #65AD44",
"^.	c #7FBC43",
"/.	c #6FB446",
"(.	c #65AE45",
"_.	c #94BE9D",
":.	c #C2C8C0",
"<.	c #A38C7B",
"[.	c #7A4C3B",
"}.	c #724D3B",
"|.	c #634639",
"1.	c #A69B95",
"2.	c #CCD8E1",
"3.	c #C8D8E3",
"4.	c #88BC6E",
"5.	c #7BB840",
"6.	c #69B147",
"7.	c #6FB243",
"8.	c #5BA844",
"9.	c #5EAB45",
"0.	c #5AAA46",
"a.	c #AFCABD",
"b.	c #D0C6B2",
"c.	c #8A6552",
"d.	c #653C2E",
"e.	c #4F241B",
"f.	c #471E17",
"g.	c #461F11",
"h.	c #664C44",
"i.	c #C6D6DE",
"j.	c #B6D2CA",
"k.	c #67AE44",
"l.	c #68AF44",
"m.	c #4D9F46",
"n.	c #70B446",
"o.	c #75B643",
"p.	c #7FBB42",
"q.	c #52A646",
"r.	c #50A448",
"s.	c #ADC4BF",
"t.	c #757476",
"u.	c #86888E",
"v.	c #92969E",
"w.	c #777276",
"x.	c #431C12",
"y.	c #5D392C",
"z.	c #653727",
"A.	c #B1AAAA",
"B.	c #81B78D",
"C.	c #81BD46",
"D.	c #74B646",
"E.	c #6AB247",
"F.	c #5FAA43",
"G.	c #84B890",
"H.	c #A3C8B7",
"I.	c #A9CABF",
"J.	c #BCCCD4",
"K.	c #24170F",
"L.	c #482C20",
"M.	c #7B412C",
"N.	c #BDB2AB",
"O.	c #5BAA46",
"P.	c #8AC343",
"Q.	c #5AA946",
"R.	c #58A847",
"S.	c #76B27F",
"T.	c #82898E",
"U.	c #271810",
"V.	c #4C3126",
"W.	c #87442C",
"X.	c #909D6C",
"Y.	c #50A546",
"Z.	c #58A948",
"`.	c #5AA559",
" +	c #6FA67B",
".+	c #829D80",
"++	c #869888",
"@+	c #839192",
"#+	c #778075",
"$+	c #50A248",
"%+	c #4B9B45",
"&+	c #72A77A",
"*+	c #3F3C3A",
"=+	c #322119",
"-+	c #543628",
";+	c #86503D",
">+	c #71A25D",
",+	c #7DBA40",
"'+	c #58A655",
")+	c #82B191",
"!+	c #98B3AE",
"~+	c #A4B1B9",
"{+	c #B28581",
"]+	c #AF583C",
"^+	c #956F5C",
"/+	c #7C8362",
"(+	c #4FA044",
"_+	c #4C9C45",
":+	c #7BBB45",
"<+	c #6BB247",
"[+	c #52A645",
"}+	c #5D915B",
"|+	c #2A1C13",
"1+	c #402D24",
"2+	c #614134",
"3+	c #A07567",
"4+	c #68A85C",
"5+	c #4C9D45",
"6+	c #61A764",
"7+	c #92B8A8",
"8+	c #AFC2CB",
"9+	c #A9ABAD",
"0+	c #988C8D",
"a+	c #BB5540",
"b+	c #D85B30",
"c+	c #AF5434",
"d+	c #A56556",
"e+	c #579F56",
"f+	c #6DB244",
"g+	c #7CBB43",
"h+	c #6A926F",
"i+	c #2A1B12",
"j+	c #47362B",
"k+	c #795846",
"l+	c #845946",
"m+	c #BAAAA1",
"n+	c #ACBFAC",
"o+	c #78AC81",
"p+	c #51A349",
"q+	c #8CB89F",
"r+	c #BCCDD7",
"s+	c #B6BDC2",
"t+	c #938C8F",
"u+	c #874733",
"v+	c #C34C27",
"w+	c #CA5834",
"x+	c #BC5632",
"y+	c #D45024",
"z+	c #9D6A62",
"A+	c #5F895E",
"B+	c #5DAB46",
"C+	c #7DBB44",
"D+	c #67AF45",
"E+	c #557E56",
"F+	c #291912",
"G+	c #362922",
"H+	c #A2826A",
"I+	c #BE8C71",
"J+	c #B27759",
"K+	c #BE8160",
"L+	c #B89684",
"M+	c #B9A89E",
"N+	c #99AE9E",
"O+	c #7FAD8B",
"P+	c #63A866",
"Q+	c #90B4A6",
"R+	c #A8B0B6",
"S+	c #B97264",
"T+	c #985641",
"U+	c #863E24",
"V+	c #BC5534",
"W+	c #B34D2C",
"X+	c #BE5835",
"Y+	c #CF5631",
"Z+	c #C24F29",
"`+	c #8C4F3E",
" @	c #7D8166",
".@	c #51984E",
"+@	c #6B8B73",
"@@	c #281C15",
"#@	c #231006",
"$@	c #77584A",
"%@	c #C99777",
"&@	c #A5765F",
"*@	c #B27C63",
"=@	c #D4976B",
"-@	c #D99860",
";@	c #F0A168",
">@	c #D5A887",
",@	c #C8B4A3",
"'@	c #908990",
")@	c #9A4732",
"!@	c #823E24",
"~@	c #9B492C",
"{@	c #B05131",
"]@	c #B34825",
"^@	c #C34B24",
"/@	c #C34F2A",
"(@	c #A75234",
"_@	c #80693E",
":@	c #5E9548",
"<@	c #84C145",
"[@	c #61AA42",
"}@	c #5E9C5E",
"|@	c #43463F",
"1@	c #25140C",
"2@	c #311A10",
"3@	c #A57D64",
"4@	c #A98068",
"5@	c #614534",
"6@	c #956C51",
"7@	c #B28160",
"8@	c #D6976F",
"9@	c #DB9D73",
"0@	c #A47155",
"a@	c #70301E",
"b@	c #683A26",
"c@	c #85422D",
"d@	c #953B1D",
"e@	c #9E3E20",
"f@	c #974125",
"g@	c #924831",
"h@	c #856740",
"i@	c #719B4B",
"j@	c #64AE44",
"k@	c #57A746",
"l@	c #77B53E",
"m@	c #498741",
"n@	c #241811",
"o@	c #25140A",
"p@	c #352119",
"q@	c #8E6E5C",
"r@	c #7F6452",
"s@	c #644636",
"t@	c #6B4939",
"u@	c #815642",
"v@	c #5F3121",
"w@	c #4F2D20",
"x@	c #673F31",
"y@	c #6B2F1C",
"z@	c #782D17",
"A@	c #813921",
"B@	c #76402D",
"C@	c #875941",
"D@	c #82725E",
"E@	c #50A149",
"F@	c #76B745",
"G@	c #74B645",
"H@	c #6EB242",
"I@	c #5CA844",
"J@	c #48743B",
"K@	c #261811",
"L@	c #25160D",
"M@	c #231209",
"N@	c #5E4439",
"O@	c #765649",
"P@	c #473126",
"Q@	c #432D22",
"R@	c #3F251A",
"S@	c #4C2415",
"T@	c #58210D",
"U@	c #663A2A",
"V@	c #83523D",
"W@	c #CB916B",
"X@	c #E1A87F",
"Y@	c #DA9F71",
"Z@	c #A56648",
"`@	c #7D6D51",
" #	c #5F9953",
".#	c #78B845",
"+#	c #5DA855",
"@#	c #62AA5B",
"##	c #76B647",
"$#	c #6EB445",
"%#	c #59A747",
"&#	c #4E6745",
"*#	c #2A211D",
"=#	c #2E1B0F",
"-#	c #5C3C2F",
";#	c #7A5849",
">#	c #442D22",
",#	c #442113",
"'#	c #4C1B0A",
")#	c #432317",
"!#	c #342119",
"~#	c #382621",
"{#	c #43302E",
"]#	c #56392E",
"^#	c #8C6146",
"/#	c #CD8B60",
"(#	c #EFA463",
"_#	c #D7834B",
":#	c #96503A",
"<#	c #81734F",
"[#	c #5D9653",
"}#	c #5BA653",
"|#	c #73B645",
"1#	c #67AE43",
"2#	c #57A845",
"3#	c #529D4E",
"4#	c #587E5F",
"5#	c #535B5B",
"6#	c #443330",
"7#	c #563429",
"8#	c #5E3F34",
"9#	c #45261D",
"0#	c #411507",
"a#	c #5C362B",
"b#	c #664D3F",
"c#	c #4D3F36",
"d#	c #24190F",
"e#	c #251710",
"f#	c #261714",
"g#	c #2F2120",
"h#	c #312322",
"i#	c #4A312A",
"j#	c #764733",
"k#	c #BC6E3E",
"l#	c #DB7747",
"m#	c #AC5B37",
"n#	c #A95939",
"o#	c #8C7056",
"p#	c #648D59",
"q#	c #58A051",
"r#	c #54A34B",
"s#	c #5BA553",
"t#	c #52A448",
"u#	c #77B742",
"v#	c #6BB143",
"w#	c #77B743",
"x#	c #5F9864",
"y#	c #616F71",
"z#	c #474749",
"A#	c #361B11",
"B#	c #563225",
"C#	c #513226",
"D#	c #2B0B05",
"E#	c #403422",
"F#	c #52713D",
"G#	c #3E312D",
"H#	c #2C1912",
"I#	c #583E33",
"J#	c #292625",
"K#	c #292726",
"L#	c #37312C",
"M#	c #39322E",
"N#	c #291A16",
"O#	c #322424",
"P#	c #442E2C",
"Q#	c #6D4333",
"R#	c #A56443",
"S#	c #BF6740",
"T#	c #C4653D",
"U#	c #A2593A",
"V#	c #745248",
"W#	c #5E7552",
"X#	c #65975E",
"Y#	c #78B147",
"Z#	c #73B444",
"`#	c #74B746",
" $	c #63AC43",
".$	c #61906B",
"+$	c #677177",
"@$	c #3A3031",
"#$	c #37150B",
"$$	c #4A291F",
"%$	c #37190F",
"&$	c #3C4627",
"*$	c #6D9641",
"=$	c #5AA746",
"-$	c #375735",
";$	c #180604",
">$	c #4B372F",
",$	c #282C2B",
"'$	c #2B2E2F",
")$	c #363435",
"!$	c #81785A",
"~$	c #567B5B",
"{$	c #494C4A",
"]$	c #414243",
"^$	c #2B2721",
"/$	c #2C1D19",
"($	c #3B2A23",
"_$	c #583C32",
":$	c #8C573B",
"<$	c #C66B45",
"[$	c #CC6A42",
"}$	c #A55536",
"|$	c #894832",
"1$	c #6C5E54",
"2$	c #698659",
"3$	c #659A59",
"4$	c #53A24E",
"5$	c #6AB044",
"6$	c #56835C",
"7$	c #46474A",
"8$	c #2C0E0A",
"9$	c #37150D",
"0$	c #391A14",
"a$	c #365622",
"b$	c #498B3D",
"c$	c #5DA943",
"d$	c #52A546",
"e$	c #3E6A3E",
"f$	c #180A0A",
"g$	c #4A823C",
"h$	c #4F9C49",
"i$	c #3D4D40",
"j$	c #4D7940",
"k$	c #4FA047",
"l$	c #559555",
"m$	c #518155",
"n$	c #47644A",
"o$	c #3F4543",
"p$	c #393D3D",
"q$	c #30251F",
"r$	c #503D2E",
"s$	c #704A35",
"t$	c #A96949",
"u$	c #C57853",
"v$	c #BD714A",
"w$	c #A76343",
"x$	c #855340",
"y$	c #7A6C6B",
"z$	c #6F7D6B",
"A$	c #5E8D64",
"B$	c #569856",
"C$	c #4D9C48",
"D$	c #64AD45",
"E$	c #7BBA44",
"F$	c #7AB943",
"G$	c #67B047",
"H$	c #528C52",
"I$	c #3C302F",
"J$	c #2C0D04",
"K$	c #251608",
"L$	c #3B6829",
"M$	c #77AB39",
"N$	c #3A5E3A",
"O$	c #201A18",
"P$	c #436D28",
"Q$	c #73B543",
"R$	c #4E854F",
"S$	c #414748",
"T$	c #43863D",
"U$	c #4FA247",
"V$	c #539851",
"W$	c #518950",
"X$	c #4D784F",
"Y$	c #486049",
"Z$	c #4A4D4D",
"`$	c #353532",
" %	c #433326",
".%	c #784E39",
"+%	c #89593F",
"@%	c #9B6248",
"#%	c #9C5D3E",
"$%	c #A26042",
"%%	c #9B634B",
"&%	c #886459",
"*%	c #777256",
"=%	c #658152",
"-%	c #73984E",
";%	c #70A24F",
">%	c #589D4E",
",%	c #53994C",
"'%	c #5A8D4A",
")%	c #4EA346",
"!%	c #4F9E48",
"~%	c #3E4641",
"{%	c #2D3926",
"]%	c #3C7531",
"^%	c #4C9D43",
"/%	c #54A746",
"(%	c #498E45",
"_%	c #39483E",
":%	c #1F1515",
"<%	c #2B4A23",
"[%	c #52A346",
"}%	c #4F954A",
"|%	c #4A5453",
"1%	c #2F3434",
"2%	c #499641",
"3%	c #84BF42",
"4%	c #5AAA48",
"5%	c #4FA347",
"6%	c #539A4E",
"7%	c #4C8A4A",
"8%	c #477A43",
"9%	c #446942",
"0%	c #455541",
"a%	c #3D3936",
"b%	c #3E2C21",
"c%	c #4B3022",
"d%	c #6A4533",
"e%	c #835642",
"f%	c #7D503C",
"g%	c #8F5942",
"h%	c #9C6146",
"i%	c #9A664F",
"j%	c #8F5940",
"k%	c #6F6236",
"l%	c #4E9E47",
"m%	c #478740",
"n%	c #4EA244",
"o%	c #3E7237",
"p%	c #25201C",
"q%	c #1D0C05",
"r%	c #232B15",
"s%	c #4B9A42",
"t%	c #489241",
"u%	c #2F3E31",
"v%	c #252B27",
"w%	c #292E2B",
"x%	c #50A444",
"y%	c #7BBA48",
"z%	c #6AA744",
"A%	c #4F8D4A",
"B%	c #4F864D",
"C%	c #4F7B4E",
"D%	c #476845",
"E%	c #435C42",
"F%	c #373A33",
"G%	c #36312D",
"H%	c #352A25",
"I%	c #3C6030",
"J%	c #70B242",
"K%	c #6FB141",
"L%	c #499540",
"M%	c #499440",
"N%	c #509A40",
"O%	c #4C9E43",
"P%	c #4B9A43",
"Q%	c #499541",
"R%	c #4A9842",
"S%	c #88C141",
"T%	c #56A746",
"U%	c #4D9E46",
"V%	c #86C044",
"W%	c #78B945",
"X%	c #8EC43F",
"Y%	c #5DA546",
"Z%	c #82BC3D",
"`%	c #4EA345",
" &	c #4D9E45",
".&	c #82BD42",
"+&	c #50A447",
"@&	c #56A747",
"#&	c #69AF43",
"$&	c #60AB44",
"%&	c #55A645",
"&&	c #51A445",
"*&	c #64AD43",
"=&	c #53A647",
"-&	c #60AA43",
";&	c #63AD44",
">&	c #4FA345",
",&	c #61AB44",
"'&	c #64AD46",
")&	c #53A747",
"!&	c #5DAA44",
"~&	c #62AD46",
"{&	c #5EAA45",
"]&	c #54A644",
"^&	c #65AD43",
"/&	c #6FB241",
"(&	c #94C83F",
"_&	c #86C042",
":&	c #71B442",
"<&	c #8EC540",
"[&	c #8CC440",
"}&	c #77B845",
"|&	c #91C740",
"1&	c #78B742",
"2&	c #87BF3F",
"3&	c #8DC440",
"4&	c #78B741",
"5&	c #86BF3F",
"6&	c #8CC441",
"7&	c #85BF41",
"8&	c #7FBC44",
"9&	c #76B743",
"0&	c #8BC443",
"a&	c #86C043",
"b&	c #77B641",
"c&	c #7BB942",
"d&	c #87C042",
"e&	c #6FB343",
"f&	c #7AB142",
"g&	c #7FB642",
"h&	c #8BC140",
"i&	c #7BB242",
"j&	c #7BB243",
"k&	c #8FC33F",
"l&	c #7AB140",
"m&	c #84BA42",
"n&	c #86BC41",
"o&	c #7BB142",
"p&	c #85BA41",
"q&	c #80B641",
"r&	c #87BC41",
"s&	c #86BC42",
"t&	c #7FB543",
"u&	c #8ABF3F",
"v&	c #91C53F",
"w&	c #7BB143",
"x&	c #8AC040",
"y&	c #92C742",
"z&	c #8AC044",
"A&	c #84BB42",
"B&	c #81B743",
"C&	c #367F3F",
"D&	c #468940",
"E&	c #619D3E",
"F&	c #377F3F",
"G&	c #69A33E",
"H&	c #377F3D",
"I&	c #529241",
"J&	c #71AA3D",
"K&	c #559440",
"L&	c #56933F",
"M&	c #71AB3D",
"N&	c #47893E",
"O&	c #579540",
"P&	c #55933F",
"Q&	c #448940",
"R&	c #71AA3E",
"S&	c #5F9B3E",
"T&	c #6BA53F",
"U&	c #69A23F",
"V&	c #5F9C3E",
"W&	c #6FA840",
"X&	c #35803F",
"Y&	c #5F9C43",
"Z&	c #4F913D",
"`&	c #478840",
" *	c #347D3E",
".*	c #7D6D39",
"+*	c #76723A",
"@*	c #36803F",
"#*	c #806C39",
"$*	c #806D39",
"%*	c #6A753B",
"&*	c #5F783B",
"**	c #4D7C3E",
"=*	c #477C3F",
"-*	c #777039",
";*	c #6B763B",
">*	c #5D793C",
",*	c #5D783D",
"'*	c #4E7C3D",
")*	c #995D33",
"!*	c #966134",
"~*	c #6B743A",
"{*	c #387F3F",
"]*	c #757138",
"^*	c #9B5D34",
"/*	c #916335",
"(*	c #7E6C37",
"_*	c #4E7B3D",
":*	c #4B7C3D",
"<*	c #8D6635",
"[*	c #856936",
"}*	c #836A36",
"|*	c #966034",
"1*	c #6B753A",
"2*	c #766F39",
"3*	c #816C37",
"4*	c #916334",
"5*	c #5E773B",
"6*	c #4D7B3E",
"7*	c #806B36",
"8*	c #8C6636",
"9*	c #4D7D3D",
"0*	c #54793D",
"a*	c #8E6536",
"b*	c #876936",
"c*	c #3B7E3E",
"d*	c #367D3D",
"e*	c #9A5C33",
"f*	c #946135",
"g*	c #8D6538",
"h*	c #8D6637",
"i*	c #985F35",
"j*	c #8F6537",
"k*	c #906437",
"l*	c #966135",
"m*	c #995E35",
"n*	c #926336",
"o*	c #926337",
"p*	c #916337",
"q*	c #9A5D33",
"r*	c #8D6537",
"s*	c #8B6336",
"t*	c #96582F",
"u*	c #92542B",
"v*	c #995B32",
"w*	c #995C32",
"x*	c #94562D",
"y*	c #93552C",
"z*	c #975931",
"A*	c #975930",
"B*	c #91532A",
"C*	c #905229",
"D*	c #9B5D33",
"E*	c #94572E",
"F*	c #985A31",
"G*	c #92542C",
"H*	c #8F5229",
"I*	c #96582E",
"J*	c #90522A",
"K*	c #965830",
"L*	c #8E5128",
"M*	c #8D5128",
"N*	c #8C5128",
"O*	c #8E5127",
"P*	c #946145",
". + + + + + + + + + + + + + + + + @ + + + + + + + + + + + + + + + + + + + + + + + + + + + + + + + # ",
"$ % & * % % % % % % % % & = - % ; > % % % % % % % % % % % % % % % % % % % % % % % % % % % % % % % , ",
"$ % ' ) % % % % ! ~ % % { % % % % % % % % % ] ^ % % % % % % / ( % % _ : < % % % % % % % % % [ } | , ",
"$ % % & % % % % 1 2 % % 3 4 % % % % % % % % ! 5 % % % % % % % % % % 6 7 8 ! % % % 9 % % % % 5 0 % , ",
"$ % a b % % % % % % % % % % % % % % % % c % % % % % % % d e % % % % % % % % b a % f % % % % % g % , ",
"$ % % % % % % % % % % % % % % % h i % % j % % % % % % % k l m % % % % % % % % % % n % % % % % % % , ",
"$ % % % o p % % % q r % % % % % s t % % % % u v % % % % % w x % % % % % % % % % % % % % % % % % % , ",
"$ y % % z A % % % B C % % % % % % % % % % D E F G % % % % % % % % % % % % % H I J % % % K K % L M , ",
"$ > % % % % % % % % % % % / % % % % % % % N O P Q % % % % % % % % % R % % % S T U % % % K y % V W , ",
"$ % % % % % % % X Y Z `  ...+.% % % % % % % % % % % % % { ; % % % % @.% % % % % % % % % % % % % % , ",
"$ #.$.% % %.&.*.=.-.;.>.,.'.).% % % % % % % % % % % !.~.{ {.% % % % % % % % % % % % % % ].^.G % % , ",
"$ /.(.% _.:.<.[.}.|.1.2.3.4.5.5 % % % % % % % % % % 6.D % % % % % % % % c ; % 7.8.% % % 9./.0.% % , ",
"$ % % a.b.c.d.e.f.g.h.i.j.k.l.% % % m.K % % % % % % % % % % % % % % % % { 4 n.o.p.q.% % % % % % % , ",
"$ % r.s.t.u.v.w.x.y.z.A.B.% % % % % 4 { % q C.% % % % % % % % D.E.% % % % % i J F.W % % % % % % % , ",
"$ % a b G.H.I.J.K.L.M.N.% % % % % % % % % O.P.% % % % % % % % Q.R.% % % % % % % % % % % % % % % % , ",
"$ % % { % % S.T.U.V.W.X.% % % % % % % % % Y.Z.% % `. +.+++@+#+$+% % % % % % % % g { % % % % % % %+, ",
"$ % % % % % &+*+=+-+;+>+% % % 1 ,+% % % % % '+)+!+~+{+]+^+/+(+% % _+& % % % % % % % % % % :+<+% % , ",
"$ % M [+% % }+|+1+2+3+4+% % % % & % % 5+6+7+8+9+0+a+b+c+d+e+% % % % % Y.D % % % % % % % % 5 % % % , ",
"$ % f+g+% % h+i+j+k+l+m+n+o+p+% % % % q+r+s+t+u+v+w+x+y+z+A+{ % % % % B+C+! % % % % % % % % % % % , ",
"$ % D+!.% % E+F+G+H+I+J+K+L+M+N+O+P+Q+R+S+T+U+V+W+X+Y+Z+`+ @.@% % % % % % % % % % r % % % % % % % , ",
"$ % % % % % +@@@#@$@%@&@*@=@-@;@>@,@'@)@!@~@{@]@^@/@(@_@:@% % % % % % % % % % % % <@[@% % % % % % , ",
"$ % % % % % }@|@1@2@3@4@5@6@7@8@9@0@a@b@c@d@e@f@g@h@i@q.% % % % j@k@% % % % % % % - l@% % % % % % , ",
"$ ; % % % % % m@n@o@p@q@r@s@t@u@v@w@x@y@z@A@B@C@D@E@F@G@% { % % H@I@% % % % % % % % % % c c % ' M , ",
"$ > % % % % % % J@K@L@M@N@O@P@Q@R@S@T@U@V@W@X@Y@Z@`@ #.#+#@#{ % % % % % % % % % % % % % K K % ##M , ",
"$ % % % % $#Q.% %#&#*#=#-#;#>#,#'#)#!#~#{#]#^#/#(#_#:#<#[#}#K { % { % % % % % % |#< % % % % % % % , ",
"$ % % % % 1#2#3#4#5#6#7#8#9#0#a#b#c#d#e#f#g#h#i#j#k#l#m#n#o#p#q#r#s#t#u#! % % % v#M % % % % % % % , ",
"$ w#% % % % x#y#z#A#B#C#D#E#F#G#H#I#J#K#L#M#K@N#O#P#Q#R#S#T#U#V#W#X#Y#Z#`#% % % % % % % % % % % % , ",
"$  $% % % .$+$@$#$$$%$&$*$=$% -$;$>$,$'$)$!$~${$]$^$/$($_$:$<$[$}$|$1$2$3$4$% % % % % % l.5$% % % , ",
"$ % % % 6$7$8$9$0$a$b$% c$d${ e$f$g$% h$i$j$% k$l$m$n$o$p$q$r$s$t$u$v$w$x$y$z$A$B$C$% D$E$F$G$% % , ",
"$ g % H$I$J$K$L$M$% % % % g N$O$P$Q$% R$S$T$% % > {.0 U$V$W$X$Y$Z$`$ %.%+%@%#%$%%%&%*%=%-%;%>%,%'%, ",
"$ )%!%~%{%]%^%% /%% % % (%_%:%<%[%q.}%|%1%2%% % % % 3%4%% % % % 5%6%7%8%9%0%a%b%c%d%e%f%g%h%i%j%k%, ",
"$ % l%m%n%% % % % % c o%p%q%r%s%% t%u%v%w%~ % % % % ! % % % % % % x%% % % % y%z%A%B%C%D%E%F%G%H%I%, ",
"$ % % J%K%% % 5%g % > L%M%N%O%% % P%2%Q%R%S%T%% % % % % % c U%% % V%2#% % % % % % % % % % W%X%Y%4 , ",
"$ % % % % % % % % % % % & Z%`%% % %  &y % q .&% % % % % % % % % % % % % % ; ( % % % % % % +&5 % % , ",
"$ % % % % % % % % % % % % & % % % % % % % % 5 % % % % % % % % % % % % % % % % % % % % % % % % % % , ",
"$ @&#&e % $&%&&&*&% % % ] =&1#%&-&% % % ;&>&%&,&% % '&)&% % % !&Q.% % /%~&% {&#&]&% % J $&% % ^&#&, ",
"/&u#(&_&7.: w#:&<&7.7.7.[&}&|&1&2&7.7.7.3&C 4&5&7.7.6&G@7.7.7.7&8&7.7.9&0&7.a&(&b&7.7.c&d&7.e&X%(&u#",
"f&g&h&i&j&i&k&l&i&m&(&n&o&i&o&o&f&p&(&(&q&j&f&i&r&s&f&f&t&(&u&o&j&j&v&k&f&w&i&x&q&y&f&j&o&z&A&o&i&B&",
"C&D&E&F&F&F&G&H&F&I&J&K&F&F&F&F&F&L&J&M&N&F&F&F&O&P&F&F&Q&R&S&F&F&F&T&U&F&F&F&V&N&W&X&F&F&Y&Z&F&F&`&",
"C&F&F&F&F&F&F&F&F&F&F&F&F&F&F&F&F&F&F&F&F&F&F&F&F&F&F&F&F&F&F&F&F&F&F&F&F&F&F&F&F&F&F&F&F&F&F&F&F& *",
".*+*F&F&F&F&@*#*$*$*%*F&F&F&F&F&F&&*$*$***=*-*C&F&F&F&@*$*$*;*F&F&F&F&F&F&>*$*,*F&F&F&F&>*$*$*'*F& *",
")*!*~*{*{*{*]*^*^*^*/*(*_*{*{*:*(*<*^*^*[*}*|*1*{*{*2*3*^*^*4*5*{*{*{*6*7*<*^*8*9*{*{*0*a*^*^*b*c*d*",
"e*^*f*g*g*h*i*^*^*^*^*^*j*g*g*k*^*^*^*^*^*^*^*l*g*g*m*^*^*^*^*n*g*g*g*o*^*^*^*^*j*g*g*p*q*^*^*^*r*s*",
"q*^*^*^*^*^*^*^*^*^*^*^*^*^*^*^*^*^*t*u*v*^*^*^*^*^*^*^*e*u*t*^*^*^*^*^*^*^*^*^*^*^*^*^*^*^*^*^*^*w*",
"u*x*^*^*^*^*^*^*v*y*y*z*^*^*^*^*^*A*B*C*B*^*^*^*^*^*D*y*u*C*E*^*^*^*^*^*^*^*t*F*^*^*^*^*F*y*G*e*^*w*",
"H*C*C*I*^*^*^*B*C*C*C*C*C*C*^*v*C*C*C*C*C*J*y*^*^*^*y*C*C*C*C*K*^*^*^*e*B*C*C*C*C*^*^*F*C*C*C*C*C*w*",
"H*C*C*C*C*C*C*C*C*C*C*C*C*C*C*C*C*C*C*C*C*C*C*C*C*C*C*C*C*C*C*C*C*C*C*C*C*C*C*C*C*C*C*C*C*C*C*C*C*L*",
"H*C*C*C*C*C*C*C*C*C*C*C*C*C*C*C*C*C*C*C*C*C*C*C*C*C*C*C*C*C*C*C*C*C*C*C*C*C*C*C*C*C*C*C*C*C*C*C*C*M*",
"H*C*C*C*C*C*C*C*C*C*C*C*C*C*C*C*C*C*C*C*C*C*C*C*C*C*C*C*C*C*C*C*C*C*C*C*C*C*C*C*C*C*C*C*C*C*C*C*C*M*",
"N*O*O*O*O*O*O*O*O*O*O*O*O*O*O*O*O*O*O*O*O*O*O*O*O*O*O*O*O*O*O*O*O*O*O*O*O*O*O*O*O*O*O*O*O*O*O*O*O*P*"};
