/* XPM */
static char * hero_fly_xpm[] = {
"50 50 574 2",
"  	c None",
". 	c #73B34F",
"+ 	c #5DAC47",
"@ 	c #5EAC47",
"# 	c #64AB41",
"$ 	c #4FA446",
"% 	c #4FA445",
"& 	c #82BF46",
"* 	c #5FAC47",
"= 	c #4EA246",
"- 	c #4D9D45",
"; 	c #4EA446",
"> 	c #50A547",
", 	c #63AC41",
"' 	c #5CAA45",
") 	c #85BF42",
"! 	c #51A444",
"~ 	c #4FA447",
"{ 	c #61AC45",
"] 	c #82BD42",
"^ 	c #4EA045",
"/ 	c #4E9F45",
"( 	c #8AC240",
"_ 	c #52A545",
": 	c #84BF42",
"< 	c #92C741",
"[ 	c #4EA346",
"} 	c #50A444",
"| 	c #84BD3F",
"1 	c #50A546",
"2 	c #4D9F46",
"3 	c #4EA146",
"4 	c #84BE3D",
"5 	c #5BAA47",
"6 	c #7FBC44",
"7 	c #5CAA47",
"8 	c #4FA346",
"9 	c #4D9E46",
"0 	c #51A546",
"a 	c #60AB45",
"b 	c #4DA046",
"c 	c #85C043",
"d 	c #4D9C46",
"e 	c #55A645",
"f 	c #5EAA44",
"g 	c #4C9E46",
"h 	c #54A646",
"i 	c #80BC41",
"j 	c #50A446",
"k 	c #5DAA46",
"l 	c #5EAB45",
"m 	c #55A746",
"n 	c #63AD46",
"o 	c #71B341",
"p 	c #56A746",
"q 	c #65AE46",
"r 	c #5BA945",
"s 	c #66AE45",
"t 	c #68AF43",
"u 	c #5AA946",
"v 	c #6FB343",
"w 	c #75B644",
"x 	c #7AB943",
"y 	c #65AE45",
"z 	c #64AD46",
"A 	c #71B444",
"B 	c #57A745",
"C 	c #4EA245",
"D 	c #4EA445",
"E 	c #6DB145",
"F 	c #4FA345",
"G 	c #73B441",
"H 	c #5EAA45",
"I 	c #6EB244",
"J 	c #6FB345",
"K 	c #6CB246",
"L 	c #7CB942",
"M 	c #59A845",
"N 	c #4EA145",
"O 	c #75B541",
"P 	c #70B241",
"Q 	c #77B743",
"R 	c #79B743",
"S 	c #72B343",
"T 	c #5BAA46",
"U 	c #4DA145",
"V 	c #67AE43",
"W 	c #7FBB42",
"X 	c #5CAA44",
"Y 	c #68B046",
"Z 	c #69B146",
"` 	c #78B741",
" .	c #52A646",
"..	c #74B543",
"+.	c #80BA3F",
"@.	c #53A54B",
"#.	c #76B171",
"$.	c #64AF46",
"%.	c #4EA046",
"&.	c #70B342",
"*.	c #5DAB45",
"=.	c #6EB447",
"-.	c #57A846",
";.	c #6EB143",
">.	c #83C044",
",.	c #66AD43",
"'.	c #64A75E",
").	c #A4C2A2",
"!.	c #D2DED1",
"~.	c #F1F1F1",
"{.	c #F4F4F4",
"].	c #E4EAE3",
"^.	c #DDE6DD",
"/.	c #D1E1D1",
"(.	c #C7D9C6",
"_.	c #A4C6A2",
":.	c #66AB60",
"<.	c #72B647",
"[.	c #73B442",
"}.	c #81BD43",
"|.	c #51A545",
"1.	c #84BE42",
"2.	c #61AC43",
"3.	c #81B37D",
"4.	c #CBD9CA",
"5.	c #F4F5F4",
"6.	c #FEFEFE",
"7.	c #F6FBFD",
"8.	c #EDF7FB",
"9.	c #E7F4FB",
"0.	c #E2F2FA",
"a.	c #E2F2F9",
"b.	c #E6F4FA",
"c.	c #EDF7FC",
"d.	c #FDFEFD",
"e.	c #E0EAE0",
"f.	c #BDD6B3",
"g.	c #7EB66A",
"h.	c #57A746",
"i.	c #5FAA46",
"j.	c #4C9D45",
"k.	c #4E9F46",
"l.	c #83B480",
"m.	c #D8E2D8",
"n.	c #FCFCFC",
"o.	c #F6FBFC",
"p.	c #D1EBF7",
"q.	c #CCE9F7",
"r.	c #D1EBF8",
"s.	c #E3F3F9",
"t.	c #F7FBFD",
"u.	c #FAFBFA",
"v.	c #BED4BD",
"w.	c #55A64D",
"x.	c #61A95A",
"y.	c #C8D7C7",
"z.	c #FAFAF9",
"A.	c #F5FBFC",
"B.	c #DBEFF9",
"C.	c #CCE9F6",
"D.	c #CCE9F8",
"E.	c #DDF0F9",
"F.	c #F7FCFC",
"G.	c #E9F0E9",
"H.	c #84B780",
"I.	c #4C9B45",
"J.	c #4C9C44",
"K.	c #52A546",
"L.	c #86B782",
"M.	c #DCE4DC",
"N.	c #E7F4FA",
"O.	c #CFEAF7",
"P.	c #E5F3F9",
"Q.	c #D7EEF8",
"R.	c #CEEAF7",
"S.	c #E8F5FA",
"T.	c #FBFCFB",
"U.	c #AECCAD",
"V.	c #7DBB44",
"W.	c #64AD45",
"X.	c #59A947",
"Y.	c #83BD3F",
"Z.	c #73B168",
"`.	c #E6EAE6",
" +	c #FDFEFE",
".+	c #DCEFF8",
"++	c #D0EBF8",
"@+	c #F5FBFD",
"#+	c #FFFFFF",
"$+	c #E9F5FC",
"%+	c #CBE9F7",
"&+	c #DEF1F9",
"*+	c #FCFEFE",
"=+	c #9DC39B",
"-+	c #5DAB46",
";+	c #88C041",
">+	c #6AB044",
",+	c #D6E2CB",
"'+	c #FCFDFD",
")+	c #D9EFF8",
"!+	c #CBE9F6",
"~+	c #F3F9FC",
"{+	c #DCEFF9",
"]+	c #F9FCFA",
"^+	c #8CBB89",
"/+	c #7DBA44",
"(+	c #8FB98C",
"_+	c #DFF1F9",
":+	c #FFFFFE",
"<+	c #F1F9FB",
"[+	c #E3F2F9",
"}+	c #F2F6F2",
"|+	c #72AF6D",
"1+	c #62AC44",
"2+	c #E3EAE2",
"3+	c #EFF7FB",
"4+	c #F0F8FC",
"5+	c #F1F9FC",
"6+	c #E5EBE5",
"7+	c #5BA754",
"8+	c #7FBC42",
"9+	c #68AF45",
"0+	c #4DA045",
"a+	c #99BE97",
"b+	c #D2ECF7",
"c+	c #D0EBF7",
"d+	c #EAF5FB",
"e+	c #EBF6FB",
"f+	c #D5EDF7",
"g+	c #A3C2A1",
"h+	c #50A445",
"i+	c #78B743",
"j+	c #DDE5DC",
"k+	c #EDF8FB",
"l+	c #EFF8FC",
"m+	c #F1F8FC",
"n+	c #D7E1D6",
"o+	c #6EB141",
"p+	c #7CB278",
"q+	c #F8F8F7",
"r+	c #DAEFF8",
"s+	c #D4ECF8",
"t+	c #C0DEF3",
"u+	c #B2D3EF",
"v+	c #A8CBED",
"w+	c #A0C4EA",
"x+	c #9DC1EA",
"y+	c #9EC2EB",
"z+	c #A8CCED",
"A+	c #B3D4F0",
"B+	c #C1DFF3",
"C+	c #CBE9F8",
"D+	c #F5F5F5",
"E+	c #5EA857",
"F+	c #6DB140",
"G+	c #4FA448",
"H+	c #6BB144",
"I+	c #63AD45",
"J+	c #A2C2A0",
"K+	c #CEE9F7",
"L+	c #C7E6F6",
"M+	c #B1D2EF",
"N+	c #9ABFE9",
"O+	c #94BAE7",
"P+	c #9BBFE9",
"Q+	c #B2D4F0",
"R+	c #C9E6F7",
"S+	c #FDFDFE",
"T+	c #7DB179",
"U+	c #61AD47",
"V+	c #BDD0BC",
"W+	c #F7FBFC",
"X+	c #B8D8F1",
"Y+	c #98BDE8",
"Z+	c #99BEE8",
"`+	c #BADAF2",
" @	c #CCEAF8",
".@	c #F8FCFD",
"+@	c #8CB989",
"@@	c #7EBB42",
"#@	c #4EA345",
"$@	c #C2D4C1",
"%@	c #F2F9FC",
"&@	c #C8E6F5",
"*@	c #B6D5E8",
"=@	c #B6D6E9",
"-@	c #B7D5E8",
";@	c #C1DFEE",
">@	c #ADD0EE",
",@	c #93BAE7",
"'@	c #B1D2F0",
")@	c #BFDDED",
"!@	c #B7D5E9",
"~@	c #C8E6F4",
"{@	c #F5FAFC",
"]@	c #A3C3A1",
"^@	c #5FAA45",
"/@	c #BFD3BD",
"(@	c #ADCEEB",
"_@	c #85ACDA",
":@	c #86ACDA",
"<@	c #8AB0DD",
"[@	c #92B8E5",
"}@	c #84ABD8",
"|@	c #92B7E5",
"1@	c #83AAD8",
"2@	c #94BAE8",
"3@	c #89AFDC",
"4@	c #B1D2EB",
"5@	c #CCEAF7",
"6@	c #F4FBFD",
"7@	c #6DB142",
"8@	c #6CB144",
"9@	c #AECAAC",
"0@	c #C9E6F6",
"a@	c #97BCE7",
"b@	c #90B7E4",
"c@	c #87ACDA",
"d@	c #91B7E4",
"e@	c #86ADDA",
"f@	c #86ACD9",
"g@	c #91B8E5",
"h@	c #CAE8F7",
"i@	c #A3BFA2",
"j@	c #68B045",
"k@	c #7ABA44",
"l@	c #7CBA42",
"m@	c #4D9C45",
"n@	c #B6D49E",
"o@	c #BAD9F1",
"p@	c #94BBE7",
"q@	c #8FB4E2",
"r@	c #87AEDC",
"s@	c #8EB5E2",
"t@	c #BDDDF2",
"u@	c #FAFDFE",
"v@	c #8CB889",
"w@	c #73B642",
"x@	c #72B443",
"y@	c #51A446",
"z@	c #7EB17A",
"A@	c #FDFDFD",
"B@	c #B5D5F1",
"C@	c #D4EDF7",
"D@	c #62A85C",
"E@	c #53A646",
"F@	c #58A947",
"G@	c #52A44B",
"H@	c #F3F4F2",
"I@	c #E2F3FA",
"J@	c #B7D7F1",
"K@	c #BAD9F2",
"L@	c #DDE7DC",
"M@	c #58A847",
"N@	c #5FAB47",
"O@	c #61AB44",
"P@	c #76B642",
"Q@	c #CFDCCE",
"R@	c #CDEAF8",
"S@	c #C6E4F5",
"T@	c #95BBE8",
"U@	c #96BCE8",
"V@	c #FBFDFE",
"W@	c #B4CCB2",
"X@	c #5CAA46",
"Y@	c #85B582",
"Z@	c #F9F9F8",
"`@	c #B1D3EF",
" #	c #B4D6F0",
".#	c #EAF6FB",
"+#	c #F3F4F3",
"@#	c #63A95D",
"##	c #C7D6C6",
"$#	c #E1F1F9",
"%#	c #B4D4EF",
"&#	c #95BBE7",
"*#	c #96BBE8",
"=#	c #B6D7F1",
"-#	c #A7C5A5",
";#	c #73B545",
">#	c #6AB045",
",#	c #6EB345",
"'#	c #D7E0D6",
")#	c #E4F3FA",
"!#	c #C5E3F5",
"~#	c #ACCDED",
"{#	c #97BCE8",
"]#	c #98BEE8",
"^#	c #ADCFEE",
"/#	c #C5E4F5",
"(#	c #BCD3B2",
"_#	c #72B544",
":#	c #6DB144",
"<#	c #6DB245",
"[#	c #63AB41",
"}#	c #7CB940",
"|#	c #74B644",
"1#	c #94C83F",
"2#	c #8DC441",
"3#	c #74B544",
"4#	c #86C042",
"5#	c #91C740",
"6#	c #C1D7B0",
"7#	c #D5EDF9",
"8#	c #BEDDF2",
"9#	c #A9CCED",
"0#	c #A1C4EB",
"a#	c #97BDE7",
"b#	c #98BDE7",
"c#	c #A1C5EA",
"d#	c #BFDEF2",
"e#	c #CBE8F7",
"f#	c #D7EDF8",
"g#	c #F3FAFC",
"h#	c #F9FAF7",
"i#	c #B2D09D",
"j#	c #87C243",
"k#	c #7BB943",
"l#	c #80BC43",
"m#	c #87C042",
"n#	c #8FC53F",
"o#	c #8FC541",
"p#	c #7BB940",
"q#	c #6BA23D",
"r#	c #6BA43E",
"s#	c #8EC33F",
"t#	c #6CA43E",
"u#	c #6CA33E",
"v#	c #6BA33D",
"w#	c #87BC3E",
"x#	c #76AC3E",
"y#	c #75AC3E",
"z#	c #85BB40",
"A#	c #87AB78",
"B#	c #DFE4DF",
"C#	c #DBEFF8",
"D#	c #CDE9F7",
"E#	c #CBEAF7",
"F#	c #DCF0F8",
"G#	c #F0F9FB",
"H#	c #E1E8DD",
"I#	c #82A970",
"J#	c #86BC3E",
"K#	c #75AC3D",
"L#	c #91C640",
"M#	c #6BA33E",
"N#	c #86BB3F",
"O#	c #77AE3F",
"P#	c #75AB3B",
"Q#	c #347D3D",
"R#	c #367F3E",
"S#	c #639D40",
"T#	c #377F40",
"U#	c #377F3F",
"V#	c #5A9640",
"W#	c #45873E",
"X#	c #45873F",
"Y#	c #6AA240",
"Z#	c #579440",
"`#	c #387F40",
" $	c #98AE9A",
".$	c #DDE2DD",
"+$	c #FBFBFB",
"@$	c #EFF8FB",
"#$	c #D4EDF8",
"$$	c #CEE9F6",
"%$	c #CDE9F6",
"&$	c #DAEFF9",
"*$	c #E4F3F9",
"=$	c #FBFAFB",
"-$	c #D5DCD5",
";$	c #90AE8A",
">$	c #629B3F",
",$	c #367F3F",
"'$	c #5B9640",
")$	c #669F41",
"!$	c #46893F",
"~$	c #45853C",
"{$	c #769979",
"]$	c #B0BFB1",
"^$	c #D2D9D3",
"/$	c #E9ECEA",
"($	c #F8F8F8",
"_$	c #FCFDFC",
":$	c #FEFFFF",
"<$	c #F8F9F8",
"[$	c #E8EDE8",
"}$	c #E1E6E1",
"|$	c #C8D2C9",
"1$	c #9FB3A0",
"2$	c #598B5D",
"3$	c #776B37",
"4$	c #896837",
"5$	c #35803F",
"6$	c #7E6D38",
"7$	c #896737",
"8$	c #72713A",
"9$	c #61773C",
"0$	c #896736",
"a$	c #4F7B3D",
"b$	c #357F3E",
"c$	c #7B6D37",
"d$	c #4B8651",
"e$	c #548958",
"f$	c #49854F",
"g$	c #886737",
"h$	c #717239",
"i$	c #62773B",
"j$	c #60773C",
"k$	c #64753B",
"l$	c #4C7B3E",
"m$	c #955D32",
"n$	c #9B5D33",
"o$	c #836B37",
"p$	c #348140",
"q$	c #358140",
"r$	c #358040",
"s$	c #76713A",
"t$	c #985F34",
"u$	c #9B5D34",
"v$	c #976035",
"w$	c #8E6537",
"x$	c #66783C",
"y$	c #447E3F",
"z$	c #8F6537",
"A$	c #926236",
"B$	c #916337",
"C$	c #776E3A",
"D$	c #76703A",
"E$	c #8D6636",
"F$	c #966034",
"G$	c #6F723C",
"H$	c #4F7B3F",
"I$	c #936335",
"J$	c #936336",
"K$	c #4F7D3E",
"L$	c #5E773D",
"M$	c #916436",
"N$	c #34803F",
"O$	c #337E3E",
"P$	c #955A30",
"Q$	c #995E34",
"R$	c #8E6536",
"S$	c #936234",
"T$	c #8F6435",
"U$	c #956034",
"V$	c #906335",
"W$	c #916335",
"X$	c #936235",
"Y$	c #8C6233",
"Z$	c #96582F",
"`$	c #905229",
" %	c #995B32",
".%	c #9A5C33",
"+%	c #94572D",
"@%	c #995B31",
"#%	c #8D5027",
"$%	c #8F5128",
"%%	c #95572E",
"&%	c #91532A",
"*%	c #94562D",
"=%	c #94572E",
"-%	c #965830",
";%	c #8D5127",
">%	c #93552B",
",%	c #995C32",
"'%	c #92542B",
")%	c #985A31",
"!%	c #91532B",
"~%	c #93552C",
"{%	c #975930",
"]%	c #966C56",
"^%	c #8C5026",
"/%	c #966B57",
". + + + + + + + + + + + + + + + + @ + + + + + + + + + + + + + + + + + + + + + + + + + + + + + + + . ",
"# $ $ $ $ $ $ $ $ $ $ $ % & * $ = - $ $ $ $ $ ; $ $ $ $ $ $ $ $ $ $ $ $ $ $ $ $ $ $ $ $ $ $ > $ $ , ",
"# $ ' ) $ $ $ $ $ ! $ $ $ ~ $ $ $ $ $ $ $ $ { ] $ $ $ $ $ $ ^ / $ $ ! ( _ $ $ $ $ $ $ $ $ $ : < ~ , ",
"# $ $ [ $ $ $ $ } | 1 $ 2 3 $ $ $ $ $ $ $ $ $ ~ $ $ $ $ $ $ $ $ $ $ 4 5 6 % $ $ $ 7 $ $ $ $ ~ [ $ , ",
"# $ 8 9 $ $ $ $ $ $ $ $ $ $ $ $ $ $ $ $ = $ $ $ $ $ $ $ 0 a $ $ $ $ $ $ $ $ b 3 $ c $ $ $ $ $ d % , ",
"# $ $ $ $ $ $ $ $ $ $ $ $ $ $ $ e f $ $ g 8 $ $ $ $ $ $ h i f $ $ $ $ $ $ $ $ $ $ j $ $ $ $ $ $ $ , ",
"# $ $ $ k l $ $ $ m n $ $ $ $ $ f o $ $ $ $ p q $ $ $ $ $ r o $ $ $ $ $ $ $ $ $ $ $ $ $ $ $ $ $ $ , ",
"# ^ $ $ s t $ $ $ u v $ $ $ $ $ $ $ $ $ $ $ w x y $ $ $ $ $ $ $ $ $ $ $ $ $ z A B $ $ $ C = D E $ , ",
"# 2 $ $ $ $ $ $ $ $ $ $ $ 3 8 $ $ $ $ $ $ F G H I $ $ $ $ $ $ $ $ $ J $ $ $ K L M $ $ $ = N % O F , ",
"# $ $ $ $ $ $ $ $ $ $ $ $ 3 8 $ $ $ $ $ $ $ $ $ $ $ $ $ 8 b $ $ $ $ P $ $ $ $ $ $ $ $ $ $ $ $ $ $ , ",
"# Q R D $ $ $ ; $ $ $ $ $ $ $ $ $ $ $ $ $ $ $ $ $ $ S T $ U $ $ $ $ $ $ $ $ $ $ $ $ $ $ V W X $ $ , ",
"# Y Z $ $ $ $ `  .$ $ $ % ..+.% $ $ $ $ $ $ @.#.$ $ $.p $ $ $ $ $ $ $ $ = %.$ &.r $ $ $ *.=.-.$ $ , ",
"# $ $ $ $ $ Q ;.>.$ $ $ $ a ,.$ $ $ %.'.).!.~.{.].^./.(._.:.$ $ $ $ $ $ 8 = <.[.}.|.$ $ $ $ $ $ $ , ",
"# $ $ $ $ $ ' 1.2.$ $ $ $ $ $ $ $ 3.4.5.6.7.8.9.0.a.b.c.7.d.e.f.g.$ $ $ $ $ u h.i.$ $ $ $ $ $ $ $ , ",
"# $ [ j.$ $ $ T $ $ 3 k.$ $ $ l.m.n.o.a.p.q.q.q.q.q.q.q.q.r.s.t.u.v.w.$ $ $ $ $ $ $ $ $ $ $ $ $ $ , ",
"# $ $ 8 $ $ $ $ $ $ $ $ $ x.y.z.A.B.C.D.q.q.q.q.q.q.q.q.q.q.q.q.E.F.G.H.$ $ $ $ I.$ $ $ $ $ $ $ J., ",
"# $ $ $ $ $ $ K.$ $ $ $ L.M.d.N.O.P.7.t.Q.q.q.q.q.q.q.q.q.q.q.q.q.R.S.T.U.$ $ $ $ $ $ $ $ V.W.$ $ , ",
"# $ 0 X.$ $ $ Y.h $ h Z.`. +.+++@+#+#+#+$+q.q.q.q.q.q.q.q.q.q.q.q.q.%+&+*+=+$ $ $ $ $ $ $ ~ $ $ $ , ",
"# $ -+;+$ $ $ ~ $ $ >+,+'+)+!+~+#+#+#+#+E.q.q.q.q.q.q.q.q.q.q.q.q.q.q.q.{+]+^+$ $ $ $ $ $ $ $ $ $ , ",
"# $ u /+$ $ $ $ $ $ (+n._+D..+:+#+#+#+<+q.q.q.q.q.q.q.q.q.q.q.q.q.q.q.q.q.[+}+|+$ 1+$ $ $ $ $ $ $ , ",
"# $ $ $ $ $ = 8 $ D 2+3+q.q.a.#+#+#+4+O.q.q.q.q.q.q.q.q.q.q.q.q.q.q.q.q.q.q.5+6+7+8+9+$ $ $ $ $ $ , ",
"# $ $ $ $ $ 0+8 $ a+ +b+p.c+R.d+e+{+q.q.q.q.q.q.q.q.q.q.q.q.q.q.q.q.q.q.q.q.f+6.g+h+i+$ $ $ $ $ $ , ",
"# %.$ $ $ $ $ $ $ j+k+q.c.l+D.q.q.q.q.q.q.q.q.q.q.q.q.q.q.q.q.q.q.q.q.q.q.q.q.m+n+$ $ $ = = $ o+$ , ",
"# ^ $ $ $ $ $ $ p+q+r+q.r.s+q.q.q.q.q.%+t+u+v+w+x+y+w+z+A+B+C+q.q.q.q.q.q.q.q.&+D+E+$ $ = = $ F+G+, ",
"# $ $ $ $ H+I+$ J+d.K+q.q.q.q.q.q.L+M+N+O+O+O+O+O+O+O+O+O+O+P+Q+R+q.q.q.q.q.q.++S+T+$ $ $ $ $ $ $ , ",
"# $ $ $ $ U+5 $ V+W+q.q.q.q.q.C.X+Y+O+O+O+O+O+O+O+O+O+O+O+O+O+O+Z+`+q.q.q.q.C. @.@+@$ $ $ $ $ $ $ , ",
"# @@#@$ $ $ $ $ $@%@&@*@=@-@;@>@O+O+O+O+O+O+O+O+O+O+O+O+O+O+O+O+O+,@'@)@!@-@*@~@{@]@$ $ $ $ $ $ $ , ",
"# ^@$ $ $ $ $ $ /@3+q.q.q.q.(@_@_@:@<@O+[@}@[@O+O+O+O+|@1@O+2@3@:@_@:@4@5@q.q.q.6@]@$ $ 7@8@$ $ $ , ",
"# $ $ $ $ $ $ $ 9@%@q.q.q.0@a@O+O+O+b@_@_@c@[@O+O+O+O+d@e@:@f@g@O+O+O+Z+h@q.q.q.A.i@$ j@k@l@1+$ $ , ",
"# m@$ $ $ $ $ $ n@.@q.q.q.o@p@O+O+O+O+O+q@r@O+O+O+O+O+O+:@s@O+O+O+O+O+O+t@q.q.q.u@v@$ 0 w@x@y@$ $ , ",
"# $ $ $ $ $ $ $ z@A@p.q.q.B@O+O+O+O+O+O+O+O+O+O+O+O+O+O+O+O+O+O+O+O+O+O+X+q.q.C@T.D@$ $ $ % $ $ $ , ",
"# $ $ E@F@$ $ $ G@H@I@q.q.J@O+O+O+O+O+O+O+O+O+O+O+O+O+O+O+O+O+O+O+O+O+O+K@q.q.b.L@$ $ $ $ M@N@0 $ , ",
"# $ $ O@P@$ $ $ j.Q@.@R@q.S@T@O+O+O+O+O+O+O+O+O+O+O+O+O+O+O+O+O+O+O+O+U@L+q.O.V@W@$ $ $ $ Q ( X@$ , ",
"# $ $ $ $ $ $ $ $ Y@Z@S.q.q.`@O+O+O+O+O+O+O+O+O+O+O+O+O+O+O+O+O+O+O+O+ #q.D..#+#@#$ $ $ $ $ $ $ $ , ",
"# $ $ $ $ $ $ $ $ $ ##'+$#q.q.%#&#O+O+O+O+O+O+O+O+O+O+O+O+O+O+O+O+*#=#q.q.[+A@-#$ $ $ $ $ $ $ $ $ , ",
"# $ ;#>#$ W.X@$ ,#$ x.'# +)#q.D.!#~#{#O+O+O+O+O+O+O+O+O+O+O+O+]#^#/#q.5@N.A@(#_#h.$ $ X@I+$ D :#<#[#",
"}#|#1#2#3#4#}.3#5#3#3#3#6#u.%@7#q.q.h@8#u+9#0#x+a#b#x+c#9#A+d#e#C.q.f#g#h#i#j#1#k#3#3#l#m#3#..n#o#p#",
"q#r#s#t#u#v#w#x#u#y#1#z#u#A#B#6.l+C#D#q.q.q.D.q.q.E# @q.q.q.q.D#F#G#d.H#I#u#u#J#K#L#M#u#u#N#O#u#u#P#",
"Q#R#S#T#U#U#V#W#U#X#Y#Z#U#U#`# $.$+$u@@$s.r+#$$$%$%$$$7#&$*$@$V@=$-$;$>$,$U#U#'$W#)$,$U#U#V#!$U#U#~$",
"Q#U#U#U#U#U#U#U#U#U#U#U#U#U#U#U#U#{$]$^$/$($_$:$:$:$:$<$[$}$|$1$2$U#U#U#U#U#U#U#U#U#U#U#U#U#U#U#U#Q#",
"3$4$5$U#U#U#U#6$7$7$8$U#U#U#U#U#U#9$0$7$a$b$c$d$e$f$U#U#g$7$h$U#U#U#U#U#U#i$7$j$U#U#U#U#k$7$0$l$U#Q#",
"m$n$o$p$q$r$s$t$u$u$v$w$x$q$q$y$z$A$u$u$B$w$t$C$q$q$D$E$u$u$F$G$q$q$q$H$E$I$u$J$K$q$q$L$I$u$u$M$N$O$",
"P$u$Q$R$R$R$F$u$u$u$u$u$S$R$R$T$u$u$u$u$u$u$u$F$R$R$F$u$u$u$u$U$R$R$R$V$u$u$u$u$W$R$R$X$u$u$u$u$T$Y$",
"P$u$u$u$u$u$u$u$u$u$u$u$u$u$u$u$u$u$Z$`$ %u$u$u$u$u$u$u$.%`$+%u$u$u$u$u$u$u$u$u$u$u$u$u$u$u$u$u$u$@%",
"#%$%u$u$u$u$u$.%.%$%$%%%.%.%u$u$.%Z$`$`$`$.%u$u$u$u$n$&%`$`$*%u$u$u$u$u$.%.%=%-%.%u$u$u$Z$$%$% %u$@%",
";%`$`$>%,% % %'%`$`$`$`$`$`$)%)%`$`$`$`$`$`$!% % % %~%`$`$`$`$%% % % %)%`$`$`$`$`$ % %Z$`$`$`$`$'%{%",
";%`$`$`$`$`$`$`$`$`$`$`$`$`$`$`$`$`$`$`$`$`$`$`$`$`$`$`$`$`$`$`$`$`$`$`$`$`$`$`$`$`$`$`$`$`$`$`$`$;%",
";%`$`$`$`$`$`$`$`$`$`$`$`$`$`$`$`$`$`$`$`$`$`$`$`$`$`$`$`$`$`$`$`$`$`$`$`$`$`$`$`$`$`$`$`$`$`$`$`$;%",
";%`$`$`$`$`$`$`$`$`$`$`$`$`$`$`$`$`$`$`$`$`$`$`$`$`$`$`$`$`$`$`$`$`$`$`$`$`$`$`$`$`$`$`$`$`$`$`$`$;%",
"]%^%^%^%^%^%^%^%^%^%^%^%^%^%^%^%^%^%^%^%^%^%^%^%^%^%^%^%^%^%^%^%^%^%^%^%^%^%^%^%^%^%^%^%^%^%^%^%^%/%"};
