/* XPM */
static char * porte_xpm[] = {
"50 50 494 2",
"  	c None",
". 	c #5EAB46",
"+ 	c #5DAC47",
"@ 	c #5EAC47",
"# 	c #71B550",
"$ 	c #50A343",
"% 	c #4FA446",
"& 	c #4EA446",
"* 	c #50A547",
"= 	c #89C141",
"- 	c #4FA344",
"; 	c #4EA046",
"> 	c #4D9F45",
", 	c #62AD45",
"' 	c #6CB144",
") 	c #7ABA44",
"! 	c #4FA445",
"~ 	c #50A344",
"{ 	c #9D948D",
"] 	c #76665E",
"^ 	c #77665E",
"/ 	c #78665E",
"( 	c #75675E",
"_ 	c #73675E",
": 	c #9C958E",
"< 	c #81BC40",
"[ 	c #94C744",
"} 	c #53A645",
"| 	c #61AB43",
"1 	c #7AB73E",
"2 	c #8C827A",
"3 	c #4C2B14",
"4 	c #4C2A13",
"5 	c #4D2A13",
"6 	c #4E2A13",
"7 	c #4E2A14",
"8 	c #4A2B16",
"9 	c #4D2A12",
"0 	c #8C827B",
"a 	c #5BAA47",
"b 	c #4FA447",
"c 	c #4EA447",
"d 	c #4EA146",
"e 	c #4DA046",
"f 	c #8C837B",
"g 	c #4A2B11",
"h 	c #59391F",
"i 	c #613E23",
"j 	c #623D24",
"k 	c #623C25",
"l 	c #623C26",
"m 	c #623D23",
"n 	c #5A371F",
"o 	c #8D827C",
"p 	c #86C143",
"q 	c #4D9C45",
"r 	c #624026",
"s 	c #71492D",
"t 	c #72482C",
"u 	c #72482D",
"v 	c #72482E",
"w 	c #643F26",
"x 	c #4C2C16",
"y 	c #8D827B",
"z 	c #50A446",
"A 	c #61AD46",
"B 	c #58A846",
"C 	c #59A946",
"D 	c #61AC45",
"E 	c #4A2C11",
"F 	c #634227",
"G 	c #714A2E",
"H 	c #714828",
"I 	c #714928",
"J 	c #714827",
"K 	c #704826",
"L 	c #72492B",
"M 	c #72482F",
"N 	c #654128",
"O 	c #4B2C15",
"P 	c #4EA145",
"Q 	c #6FB344",
"R 	c #60AC44",
"S 	c #63AE46",
"T 	c #6FB242",
"U 	c #644227",
"V 	c #694220",
"W 	c #603913",
"X 	c #603914",
"Y 	c #613A13",
"Z 	c #684020",
"` 	c #63AD47",
" .	c #71B546",
"..	c #57A745",
"+.	c #4EA245",
"@.	c #6CB145",
"#.	c #51A546",
"$.	c #492C11",
"%.	c #674027",
"&.	c #73492D",
"*.	c #5F3914",
"=.	c #5F3814",
"-.	c #603814",
";.	c #613714",
">.	c #623514",
",.	c #6B4022",
"'.	c #714A2C",
").	c #644127",
"!.	c #6DB347",
"~.	c #7EBB43",
"{.	c #5AA844",
"].	c #77B643",
"^.	c #50A445",
"/.	c #79512F",
"(.	c #805735",
"_.	c #815936",
":.	c #835836",
"<.	c #845836",
"[.	c #835636",
"}.	c #7B5032",
"|.	c #7EBC43",
"1.	c #70B344",
"2.	c #7F5533",
"3.	c #8A5E3B",
"4.	c #8B5D3B",
"5.	c #8A5D3C",
"6.	c #7F5435",
"7.	c #65AD44",
"8.	c #7FBC43",
"9.	c #61AC46",
"0.	c #6FB446",
"a.	c #65AE45",
"b.	c #7BBA43",
"c.	c #492C13",
"d.	c #673F28",
"e.	c #73482F",
"f.	c #7F5434",
"g.	c #8B5D3C",
"h.	c #6FB243",
"i.	c #5BA844",
"j.	c #5EAB45",
"k.	c #5AAA46",
"l.	c #7BB942",
"m.	c #6BB143",
"n.	c #7BBA44",
"o.	c #492C14",
"p.	c #673F29",
"q.	c #4FA246",
"r.	c #70B446",
"s.	c #75B643",
"t.	c #7FBB42",
"u.	c #52A646",
"v.	c #5EAB44",
"w.	c #85C144",
"x.	c #5EAA44",
"y.	c #5BA946",
"z.	c #5FAA43",
"A.	c #5FAC47",
"B.	c #8A5D3D",
"C.	c #7F5436",
"D.	c #4FA346",
"E.	c #4B2B11",
"F.	c #654127",
"G.	c #815433",
"H.	c #8A5D3A",
"I.	c #8A5E3A",
"J.	c #8A5D3E",
"K.	c #805437",
"L.	c #714A2B",
"M.	c #4B9B45",
"N.	c #4FA345",
"O.	c #9A704D",
"P.	c #B58962",
"Q.	c #B48962",
"R.	c #B58964",
"S.	c #997050",
"T.	c #7BBB45",
"U.	c #6BB247",
"V.	c #52A645",
"W.	c #8BC444",
"X.	c #664127",
"Y.	c #A37A53",
"Z.	c #C4996D",
"`.	c #C49A6D",
" +	c #A27A55",
".+	c #6DB244",
"++	c #7CBB43",
"@+	c #6CB043",
"#+	c #4B2B13",
"$+	c #654129",
"%+	c #966E4A",
"&+	c #AD855D",
"*+	c #AE865E",
"=+	c #AF865E",
"-+	c #AE845F",
";+	c #966D4E",
">+	c #73482D",
",+	c #654224",
"'+	c #4B2B15",
")+	c #67AF45",
"!+	c #75B745",
"~+	c #4B2B14",
"{+	c #654029",
"]+	c #71482C",
"^+	c #72472C",
"/+	c #73472C",
"(+	c #744829",
"_+	c #744929",
":+	c #65402B",
"<+	c #4B2B16",
"[+	c #8D8379",
"}+	c #4EA246",
"|+	c #724830",
"1+	c #734730",
"2+	c #744730",
"3+	c #74472F",
"4+	c #74472E",
"5+	c #744A28",
"6+	c #724B23",
"7+	c #654320",
"8+	c #4C2C1A",
"9+	c #8D827A",
"0+	c #84C145",
"a+	c #61AA42",
"b+	c #4D9E45",
"c+	c #72492D",
"d+	c #72492C",
"e+	c #74482D",
"f+	c #74482C",
"g+	c #75492A",
"h+	c #C1A930",
"i+	c #F9EB22",
"j+	c #CBBB3A",
"k+	c #4A2917",
"l+	c #77B53E",
"m+	c #5DAA46",
"n+	c #73482C",
"o+	c #734928",
"p+	c #C4AE2C",
"q+	c #FCF306",
"r+	c #D0C42D",
"s+	c #4C2D11",
"t+	c #59A744",
"u+	c #77B844",
"v+	c #78B843",
"w+	c #6E4325",
"x+	c #673E1E",
"y+	c #6A401F",
"z+	c #96792D",
"A+	c #BAA626",
"B+	c #9A8633",
"C+	c #4B2A1A",
"D+	c #8D827D",
"E+	c #76B647",
"F+	c #6EB445",
"G+	c #5AA946",
"H+	c #59A845",
"I+	c #69AE42",
"J+	c #5FAB44",
"K+	c #6A411E",
"L+	c #613A12",
"M+	c #603911",
"N+	c #633813",
"O+	c #6B3F25",
"P+	c #744735",
"Q+	c #4C2B1A",
"R+	c #8D817F",
"S+	c #73B645",
"T+	c #51A545",
"U+	c #67AE43",
"V+	c #57A845",
"W+	c #4EA346",
"X+	c #4E9F46",
"Y+	c #704625",
"Z+	c #6C4220",
"`+	c #6D4322",
" @	c #6D4220",
".@	c #704624",
"+@	c #724A28",
"@@	c #654126",
"#@	c #8D817D",
"$@	c #77B743",
"%@	c #805535",
"&@	c #8B5E3D",
"*@	c #805536",
"=@	c #63AC43",
"-@	c #68AF44",
";@	c #6AB044",
">@	c #4C9D45",
",@	c #64AD45",
"'@	c #7AB943",
")@	c #67B047",
"!@	c #53A544",
"~@	c #83BD40",
"{@	c #53A646",
"]@	c #73B441",
"^@	c #74B542",
"/@	c #55A746",
"(@	c #54A746",
"_@	c #52A545",
":@	c #4FA444",
"<@	c #7CBC48",
"[@	c #71B544",
"}@	c #50A444",
"|@	c #70B242",
"1@	c #6FB141",
"2@	c #4FA347",
"3@	c #664027",
"4@	c #845938",
"5@	c #946844",
"6@	c #936842",
"7@	c #936843",
"8@	c #946748",
"9@	c #83593C",
"0@	c #654227",
"a@	c #78B945",
"b@	c #8FC53F",
"c@	c #60AC46",
"d@	c #A37955",
"e@	c #C4996F",
"f@	c #C59B6D",
"g@	c #C59A6F",
"h@	c #C3996D",
"i@	c #A27A56",
"j@	c #71492C",
"k@	c #4E9F45",
"l@	c #50A447",
"m@	c #A37956",
"n@	c #C59971",
"o@	c #C4996E",
"p@	c #C49970",
"q@	c #C4996C",
"r@	c #A37A56",
"s@	c #56A747",
"t@	c #69AF43",
"u@	c #5FAB45",
"v@	c #60AB44",
"w@	c #55A645",
"x@	c #51A445",
"y@	c #64AD43",
"z@	c #73482E",
"A@	c #7F5337",
"B@	c #895F42",
"C@	c #896040",
"D@	c #895F41",
"E@	c #7E5438",
"F@	c #5EAA45",
"G@	c #54A644",
"H@	c #65AD43",
"I@	c #6FB241",
"J@	c #77B742",
"K@	c #94C83F",
"L@	c #86C042",
"M@	c #8AC241",
"N@	c #71B442",
"O@	c #8EC540",
"P@	c #4B2C0F",
"Q@	c #74482F",
"R@	c #644028",
"S@	c #4C2C15",
"T@	c #86C043",
"U@	c #77B641",
"V@	c #87C042",
"W@	c #6FB343",
"X@	c #8EC43F",
"Y@	c #7AB142",
"Z@	c #7FB642",
"`@	c #8BC140",
" #	c #7BB242",
".#	c #7BB243",
"+#	c #8FC33F",
"@#	c #7AB140",
"##	c #84BA42",
"$#	c #8C837A",
"%#	c #4C2B11",
"&#	c #5C3A21",
"*#	c #653E27",
"=#	c #643F27",
"-#	c #633F27",
";#	c #5B3920",
">#	c #7BB143",
",#	c #8AC040",
"'#	c #80B641",
")#	c #92C742",
"!#	c #7BB142",
"~#	c #8AC044",
"{#	c #84BB42",
"]#	c #81B743",
"^#	c #367F3F",
"/#	c #468940",
"(#	c #619D3E",
"_#	c #377F3F",
":#	c #69A33E",
"<#	c #377F3D",
"[#	c #529241",
"}#	c #71AA3D",
"|#	c #4D2B13",
"1#	c #4C2B13",
"2#	c #4A2C13",
"3#	c #4D2B12",
"4#	c #5F9C3E",
"5#	c #47893E",
"6#	c #6FA840",
"7#	c #35803F",
"8#	c #5F9C43",
"9#	c #4F913D",
"0#	c #478840",
"a#	c #938780",
"b#	c #5A4336",
"c#	c #5A4335",
"d#	c #594435",
"e#	c #584438",
"f#	c #918881",
"g#	c #347D3E",
"h#	c #7D6D39",
"i#	c #76723A",
"j#	c #36803F",
"k#	c #806C39",
"l#	c #806D39",
"m#	c #6A753B",
"n#	c #5F783B",
"o#	c #4D7C3E",
"p#	c #477C3F",
"q#	c #777039",
"r#	c #6B763B",
"s#	c #5D793C",
"t#	c #5D783D",
"u#	c #4E7C3D",
"v#	c #995D33",
"w#	c #966134",
"x#	c #6B743A",
"y#	c #387F3F",
"z#	c #757138",
"A#	c #9B5D34",
"B#	c #916335",
"C#	c #7E6C37",
"D#	c #4E7B3D",
"E#	c #4B7C3D",
"F#	c #8D6635",
"G#	c #856936",
"H#	c #836A36",
"I#	c #966034",
"J#	c #6B753A",
"K#	c #766F39",
"L#	c #816C37",
"M#	c #916334",
"N#	c #5E773B",
"O#	c #4D7B3E",
"P#	c #806B36",
"Q#	c #8C6636",
"R#	c #4D7D3D",
"S#	c #54793D",
"T#	c #8E6536",
"U#	c #876936",
"V#	c #3B7E3E",
"W#	c #367D3D",
"X#	c #9A5C33",
"Y#	c #946135",
"Z#	c #8D6538",
"`#	c #8D6637",
" $	c #985F35",
".$	c #8F6537",
"+$	c #906437",
"@$	c #966135",
"#$	c #995E35",
"$$	c #926336",
"%$	c #926337",
"&$	c #916337",
"*$	c #9A5D33",
"=$	c #8D6537",
"-$	c #8B6336",
";$	c #96582F",
">$	c #92542B",
",$	c #995B32",
"'$	c #995C32",
")$	c #94562D",
"!$	c #93552C",
"~$	c #975931",
"{$	c #975930",
"]$	c #91532A",
"^$	c #905229",
"/$	c #9B5D33",
"($	c #94572E",
"_$	c #985A31",
":$	c #92542C",
"<$	c #8F5229",
"[$	c #96582E",
"}$	c #90522A",
"|$	c #965830",
"1$	c #8E5128",
"2$	c #8D5128",
"3$	c #8C5128",
"4$	c #8E5127",
"5$	c #946145",
". + + + + + + + + + + + + + + + + @ + + + + + + + + + + + + + + + + + + + + + + + + + + + + + + + # ",
"$ % & * % % % % % % % % & = - % ; > % % % % % % % % % % % % % % % % % % % % % % % % % % % % % % % , ",
"$ % ' ) % % % % ! ~ % { ] ^ ^ / / / / / / / / / / / / / / / / / / / ( _ : % % % % % % % % % < [ } , ",
"$ % % & % % % % | 1 % 2 3 4 4 5 6 7 7 7 7 6 7 6 7 6 6 6 6 6 7 7 7 7 8 9 0 ! % % % a % % % % b c % , ",
"$ % d e % % % % % % % f g h i j k k k k k k k k k k k k k k k l k m n 4 o % e d % p % % % % % q % , ",
"$ % % % % % % % % % % f g r s t u u u u u u u u u u u u u u u v v v w x y % % % % z % % % % % % % , ",
"$ % % % A B % % % C D f E F G H I J J J J J J J J J J J J J J K L M N O y % % % % % % % % % % % % , ",
"$ P % % Q R % % % S T f E U s V W X X X X X X X X X X X X X X Y Z M N O y % `  ...% % % +.+.% @.#., ",
"$ > % % % % % % % % % f $.%.&.V *.=.-.;.;.;.;.;.;.;.;.;.;.;.;.>.,.'.).O y % !.~.{.% % % +.P % ].^., ",
"$ % % % % % % % % % % f $.%.&./.(._.:.<.<.<.<.<.<.<.<.<.<.<.<.[.}.'.).O y % % % % % % % % % % % % , ",
"$ |.1.% % % % & % % % f $.%.&.2.3.3.4.4.4.4.4.4.4.4.4.4.4.4.4.5.6.'.).O y % % % % % % % 7.8.9.% % , ",
"$ 0.a.% % % % b.% % % f c.d.e.f.5.5.5.g.g.g.g.g.g.g.g.g.g.g.g.5.6.'.).O y ; % h.i.% % % j.0.k.% % , ",
"$ % % % % ^.l.m.n.% % f o.p.e.6.5.5.5.5.5.5.5.5.5.5.5.5.5.5.5.5.6.'.).O y q.r.s.t.u.% % % % % % % , ",
"$ % % % % % v.w.x.% % f o.p.e.6.5.5.5.5.5.5.5.5.5.5.5.5.5.5.5.5.6.'.).O y % y...z.^.% % % % % % % , ",
"$ % d e % % % A.% % d f c.p.e.6.5.5.5.5.5.5.5.5.5.5.5.5.5.5.5.B.C.'.).O y % % % % % % % % % % % % , ",
"$ % % D.% % % % % % % f E.F.&.G.3.H.I.I.I.I.I.I.I.I.I.I.I.I.H.J.K.L.).O y % % % q D.% % % % % % M., ",
"$ % % % % % % N.% % % f E.F.&.O.P.Q.Q.Q.Q.Q.Q.Q.Q.Q.Q.Q.Q.Q.Q.R.S.'.N O y % % % % % % % % T.U.% % , ",
"$ % #.V.% % % W.& % #.f E.X.&.Y.Z.Z.Z.Z.Z.Z.Z.Z.Z.Z.Z.Z.Z.Z.Z.`. +s N O y % % % % % % % % b % % % , ",
"$ % .+++% % % b % % @+f #+$+e.%+&+*+*+=+=+=+=+=+=+=+=+=+=+=+=+-+;+>+,+'+y ! % % % % % % % % % % % , ",
"$ % )+!+% % % % % % % f ~+{+e.>+]+]+^+/+/+/+/+/+/+/+/+/+/+/+/+(+_+_+:+<+[+% % % % D % % % % % % % , ",
"$ % % % % % }+% % % % f ~+{+e.e.|+M 1+2+2+3+2+3+2+3+2+3+3+3+2+4+5+6+7+8+9+% % % % 0+a+% % % % % % , ",
"$ % % % % % b+% % % % f #+{+e.>+c+d+>+e+e+f+e+f+e+f+e+e+f+f+f+g+h+i+j+k+o % % % % - l+% % % % % % , ",
"$ ; % % % % % % % m+a.f E.F.&.n+]+c+c+c+c+c+c+c+c+c+c+c+c+c+c+o+p+q+r+s+o % % % % % % % }+}+% ' #., ",
"$ > % % % % % % t+u+v+f E.F.&.w+Z x+x+x+x+x+x+x+x+x+x+x+x+x+x+y+z+A+B+C+D+% % % % % % % +.+.% E+#., ",
"$ % % % % F+G+% H+I+J+f E.F.&.K+L+M+M+M+M+M+M+M+M+M+M+M+M+M+M+N+O+P+{+Q+R+% % % S+T+% % % % % % % , ",
"$ % % % % U+V+% W+X+% f E %.>+Y+Z+`+`+`+`+`+`+`+`+`+`+`+`+`+`+ @.@+@@@O #@% % % m.#.% % % % % % % , ",
"$ $@% % % % % % D.d % f $.%.&.%@5.&@&@&@&@&@&@&@&@&@&@&@&@&@&@&@*@'.).O y % % % % % % % % % % % % , ",
"$ =@% % % % % % % % % f $.%.&.f.5.5.5.5.5.5.5.5.5.5.5.5.5.5.5.5.C.'.).O y % % % % % % % -@;@% % % , ",
"$ % % % % % % % % % % f $.%.&.f.5.5.5.5.5.5.5.5.5.5.5.5.5.5.5.5.6.'.).O y % % % % >@% ,@n.'@)@% % , ",
"$ q % % % % % !@~@% % f $.%.&.f.5.5.5.5.5.5.5.5.5.5.5.5.5.5.5.5.6.'.).O y % % % % W+% {@]@^@/@% % , ",
"$ W+% % % % % % (@% % f $.%.&.f.5.5.5.5.5.5.5.5.5.5.5.5.5.5.5.5.6.'.).O y % b % % % % % #._@% % % , ",
"$ % % :@! % % % % % % f $.%.&.f.5.5.5.5.5.5.5.5.5.5.5.5.5.5.5.5.6.'.).O y % <@[@% % % % % ! }@% % , ",
"$ % % |@1@% % 2@q % % f E 3@>+4@5@6@6@6@6@6@6@6@6@6@6@6@6@6@7@8@9@'.0@O y % % % % % % % % a@b@c@% , ",
"$ % % % % % % % % % % f E.F.&.d@e@f@f@g@g@g@g@g@g@g@g@g@g@g@g@h@i@j@N O y ; k@% % % % % % l@b % % , ",
"$ % % % % % % % % % % f E.F.&.m@n@Z.o@e@e@e@e@e@e@e@p@e@e@e@e@q@r@j@N O y % % % % % % % % % % % % , ",
"$ s@t@u@% v@w@x@y@% % f E.F.z@A@B@C@C@D@D@D@D@D@B@D@B@D@D@D@D@D@E@s ).O y % F@t@G@% % ..v@% % H@t@, ",
"I@J@K@L@h.M@$@N@O@h.h.f P@F.Q@e.M M M M M M M M M M M M M M M M M M R@S@y h.T@K@U@h.h.l.V@h.W@X@K@J@",
"Y@Z@`@ #.# #+#@# ###K@$#%#&#*#=#-#-#-#-#-#-#-#-#-#-#-#-#-#-#-#-#-#-#;#'+y ># #,#'#)#Y@.#!#~#{#!# #]#",
"^#/#(#_#_#_#:#<#_#[#}#2 |#|#1##+2#2#2#2#2#2#2#2#2#2#2#2#2#2#2#2#2#2#3#'+y _#_#4#5#6#7#_#_#8#9#_#_#0#",
"^#_#_#_#_#_#_#_#_#_#_#a#b#c#d#d#d#d#d#d#d#d#d#d#d#d#d#d#d#d#d#d#d#d#c#e#f#_#_#_#_#_#_#_#_#_#_#_#_#g#",
"h#i#_#_#_#_#j#k#l#l#m#_#_#_#_#_#_#n#l#l#o#p#q#^#_#_#_#j#l#l#r#_#_#_#_#_#_#s#l#t#_#_#_#_#s#l#l#u#_#g#",
"v#w#x#y#y#y#z#A#A#A#B#C#D#y#y#E#C#F#A#A#G#H#I#J#y#y#K#L#A#A#M#N#y#y#y#O#P#F#A#Q#R#y#y#S#T#A#A#U#V#W#",
"X#A#Y#Z#Z#`# $A#A#A#A#A#.$Z#Z#+$A#A#A#A#A#A#A#@$Z#Z##$A#A#A#A#$$Z#Z#Z#%$A#A#A#A#.$Z#Z#&$*$A#A#A#=$-$",
"*$A#A#A#A#A#A#A#A#A#A#A#A#A#A#A#A#A#;$>$,$A#A#A#A#A#A#A#X#>$;$A#A#A#A#A#A#A#A#A#A#A#A#A#A#A#A#A#A#'$",
">$)$A#A#A#A#A#A#,$!$!$~$A#A#A#A#A#{$]$^$]$A#A#A#A#A#/$!$>$^$($A#A#A#A#A#A#A#;$_$A#A#A#A#_$!$:$X#A#'$",
"<$^$^$[$A#A#A#]$^$^$^$^$^$^$A#,$^$^$^$^$^$}$!$A#A#A#!$^$^$^$^$|$A#A#A#X#]$^$^$^$^$A#A#_$^$^$^$^$^$'$",
"<$^$^$^$^$^$^$^$^$^$^$^$^$^$^$^$^$^$^$^$^$^$^$^$^$^$^$^$^$^$^$^$^$^$^$^$^$^$^$^$^$^$^$^$^$^$^$^$^$1$",
"<$^$^$^$^$^$^$^$^$^$^$^$^$^$^$^$^$^$^$^$^$^$^$^$^$^$^$^$^$^$^$^$^$^$^$^$^$^$^$^$^$^$^$^$^$^$^$^$^$2$",
"<$^$^$^$^$^$^$^$^$^$^$^$^$^$^$^$^$^$^$^$^$^$^$^$^$^$^$^$^$^$^$^$^$^$^$^$^$^$^$^$^$^$^$^$^$^$^$^$^$2$",
"3$4$4$4$4$4$4$4$4$4$4$4$4$4$4$4$4$4$4$4$4$4$4$4$4$4$4$4$4$4$4$4$4$4$4$4$4$4$4$4$4$4$4$4$4$4$4$4$4$5$"};
