/* XPM */
static char * terre_xpm[] = {
"50 50 423 2",
"  	c #86BC61",
". 	c #6FB446",
"+ 	c #6FB445",
"@ 	c #86BC60",
"# 	c #64AB41",
"$ 	c #4FA446",
"% 	c #4FA445",
"& 	c #77B946",
"* 	c #5CAA47",
"= 	c #4EA246",
"- 	c #4E9F45",
"; 	c #63AC41",
"> 	c #5AA945",
", 	c #7EBB43",
"' 	c #5EAA47",
") 	c #53A646",
"! 	c #4FA346",
"~ 	c #4EA346",
"{ 	c #5EAA45",
"] 	c #7AB942",
"^ 	c #4EA145",
"/ 	c #4EA046",
"( 	c #81BD40",
"_ 	c #7DBB43",
": 	c #89C240",
"< 	c #4FA448",
"[ 	c #51A546",
"} 	c #50A444",
"| 	c #83BC3D",
"1 	c #50A446",
"2 	c #4D9F46",
"3 	c #4EA146",
"4 	c #52A646",
"5 	c #5BAA47",
"6 	c #84BD3D",
"7 	c #68B047",
"8 	c #7EBC43",
"9 	c #4FA345",
"0 	c #4FA447",
"a 	c #60AC49",
"b 	c #4C9D45",
"c 	c #53A545",
"d 	c #4EA445",
"e 	c #52A545",
"f 	c #50A546",
"g 	c #4D9F45",
"h 	c #4DA046",
"i 	c #8CC543",
"j 	c #4C9B45",
"k 	c #51A545",
"l 	c #4B9C45",
"m 	c #56A646",
"n 	c #89C242",
"o 	c #50A445",
"p 	c #55A746",
"q 	c #57A847",
"r 	c #62AB43",
"s 	c #7AB740",
"t 	c #58A847",
"u 	c #5FAA44",
"v 	c #7AB840",
"w 	c #6CB245",
"x 	c #6EB242",
"y 	c #5EAB45",
"z 	c #78B743",
"A 	c #6CB145",
"B 	c #7FBB42",
"C 	c #5BA946",
"D 	c #5AA946",
"E 	c #62AC45",
"F 	c #53A546",
"G 	c #5FAA46",
"H 	c #4D9D45",
"I 	c #7EBB40",
"J 	c #64AD45",
"K 	c #76B644",
"L 	c #62AC46",
"M 	c #74B646",
"N 	c #88C141",
"O 	c #5DAA44",
"P 	c #4DA145",
"Q 	c #80BB41",
"R 	c #7CB941",
"S 	c #6CB144",
"T 	c #6DB144",
"U 	c #67AE44",
"V 	c #58A846",
"W 	c #4C9F45",
"X 	c #5FAB44",
"Y 	c #72B444",
"Z 	c #58A845",
"` 	c #74B645",
" .	c #75B745",
"..	c #6DB142",
"+.	c #6AB043",
"@.	c #73B440",
"#.	c #6FB345",
"$.	c #67AE43",
"%.	c #57A745",
"&.	c #65AE44",
"*.	c #7BBB45",
"=.	c #5BAA45",
"-.	c #6EB345",
";.	c #76B542",
">.	c #79BA45",
",.	c #6BB145",
"'.	c #74B441",
").	c #6AB146",
"!.	c #77B642",
"~.	c #7AB944",
"{.	c #66AF44",
"].	c #7CBA42",
"^.	c #6FB343",
"/.	c #4FA246",
"(.	c #76B742",
"_.	c #6AB044",
":.	c #64AE46",
"<.	c #68B045",
"[.	c #4EA245",
"}.	c #4EA045",
"|.	c #89C13F",
"1.	c #5FAB45",
"2.	c #5DAA46",
"3.	c #61AB43",
"4.	c #57A846",
"5.	c #7FBC44",
"6.	c #81BC41",
"7.	c #4D9E45",
"8.	c #77B744",
"9.	c #84BD3F",
"0.	c #54A646",
"a.	c #4FA547",
"b.	c #58A947",
"c.	c #4C9E45",
"d.	c #59A947",
"e.	c #4FA548",
"f.	c #56A847",
"g.	c #5CAB46",
"h.	c #86C042",
"i.	c #6EB244",
"j.	c #7BBB46",
"k.	c #5EAB47",
"l.	c #83C046",
"m.	c #85BF42",
"n.	c #54A645",
"o.	c #87C141",
"p.	c #81BD43",
"q.	c #5CA945",
"r.	c #53A645",
"s.	c #5BA844",
"t.	c #51A445",
"u.	c #63AD43",
"v.	c #77B742",
"w.	c #6DB143",
"x.	c #74B543",
"y.	c #63AC43",
"z.	c #4E9E45",
"A.	c #72B545",
"B.	c #79B843",
"C.	c #62AE47",
"D.	c #7DBA41",
"E.	c #69B147",
"F.	c #77B640",
"G.	c #5AA751",
"H.	c #60A959",
"I.	c #77B63F",
"J.	c #63AC44",
"K.	c #5DAA45",
"L.	c #77B743",
"M.	c #63AD46",
"N.	c #6DB347",
"O.	c #7CBB51",
"P.	c #54A64C",
"Q.	c #59A650",
"R.	c #5FA856",
"S.	c #50A447",
"T.	c #68AF45",
"U.	c #60AC46",
"V.	c #52A549",
"W.	c #57A54F",
"X.	c #5DA954",
"Y.	c #58A551",
"Z.	c #58A54F",
"`.	c #59A651",
" +	c #58A650",
".+	c #58A550",
"++	c #55A54D",
"@+	c #57A44F",
"#+	c #57A54E",
"$+	c #53A44A",
"%+	c #5EA757",
"&+	c #56A34D",
"*+	c #56A44E",
"=+	c #5AA652",
"-+	c #5AA651",
";+	c #54A44B",
">+	c #5BA653",
",+	c #51A448",
"'+	c #71B242",
")+	c #72B544",
"!+	c #75B543",
"~+	c #53A64A",
"{+	c #55A34D",
"]+	c #53A34B",
"^+	c #56A44F",
"/+	c #59A652",
"(+	c #83BB55",
"_+	c #52A04A",
":+	c #55A24D",
"<+	c #53A24B",
"[+	c #54A24C",
"}+	c #59A252",
"|+	c #64AA52",
"1+	c #78B552",
"2+	c #53A14B",
"3+	c #59A452",
"4+	c #77B445",
"5+	c #74B444",
"6+	c #6FB243",
"7+	c #5FAA43",
"8+	c #52A449",
"9+	c #6CB147",
"0+	c #50A347",
"a+	c #50A448",
"b+	c #65AD45",
"c+	c #6FB247",
"d+	c #7CB840",
"e+	c #69B146",
"f+	c #67AE42",
"g+	c #66AD43",
"h+	c #57A845",
"i+	c #66AF45",
"j+	c #78B843",
"k+	c #79B842",
"l+	c #84C043",
"m+	c #60AA43",
"n+	c #76B741",
"o+	c #56A746",
"p+	c #75B643",
"q+	c #60AD47",
"r+	c #4D9C45",
"s+	c #7AB941",
"t+	c #57A746",
"u+	c #4EA345",
"v+	c #6CB142",
"w+	c #8DC645",
"x+	c #87C145",
"y+	c #5AAA46",
"z+	c #7DBB44",
"A+	c #93C942",
"B+	c #5EAB46",
"C+	c #80BD45",
"D+	c #5FAC47",
"E+	c #4E9F46",
"F+	c #86BF40",
"G+	c #64AC43",
"H+	c #5FA943",
"I+	c #5AA844",
"J+	c #56A745",
"K+	c #5CA944",
"L+	c #56A644",
"M+	c #61AA43",
"N+	c #60AA44",
"O+	c #5DA943",
"P+	c #59A744",
"Q+	c #58A745",
"R+	c #5BA945",
"S+	c #64AC42",
"T+	c #63AB41",
"U+	c #75B440",
"V+	c #6BB043",
"W+	c #93C840",
"X+	c #8AC341",
"Y+	c #83BD42",
"Z+	c #7BB943",
"`+	c #90C740",
" @	c #78B740",
".@	c #8DC33E",
"+@	c #6FB342",
"@@	c #8CC442",
"#@	c #8CC440",
"$@	c #89C140",
"%@	c #88C03F",
"&@	c #7CBB43",
"*@	c #72B443",
"=@	c #89C343",
"-@	c #84BF44",
";@	c #94C840",
">@	c #74B542",
",@	c #7AB943",
"'@	c #83BE43",
")@	c #6AAF43",
"!@	c #8DC43F",
"~@	c #8DC441",
"{@	c #74B53F",
"]@	c #79AF3A",
"^@	c #79B03C",
"/@	c #90C53F",
"(@	c #79AF3C",
"_@	c #79AF3B",
":@	c #8BC03E",
"<@	c #80B53C",
"[@	c #80B53D",
"}@	c #94C93F",
"|@	c #8ABF3F",
"1@	c #84BB3D",
"2@	c #95C83F",
"3@	c #94C83F",
"4@	c #7FB43B",
"5@	c #85BA3D",
"6@	c #7BB13C",
"7@	c #8BBF3D",
"8@	c #91C53F",
"9@	c #90C43F",
"0@	c #7FB53C",
"a@	c #92C640",
"b@	c #8ABF3E",
"c@	c #80B73D",
"d@	c #7FB53A",
"e@	c #347D3D",
"f@	c #367E3F",
"g@	c #71AA3E",
"h@	c #367F3F",
"i@	c #377F3F",
"j@	c #67A23E",
"k@	c #4B8B3F",
"l@	c #4A8B40",
"m@	c #7AB23E",
"n@	c #639F41",
"o@	c #58983D",
"p@	c #7AB23D",
"q@	c #4A8B3F",
"r@	c #5A9641",
"s@	c #3D833F",
"t@	c #669F3D",
"u@	c #72AB40",
"v@	c #70A93E",
"w@	c #67A13F",
"x@	c #75AE40",
"y@	c #35803F",
"z@	c #65A040",
"A@	c #4C8E3F",
"B@	c #4B8A3E",
"C@	c #716E39",
"D@	c #816C39",
"E@	c #36803F",
"F@	c #77703A",
"G@	c #826B39",
"H@	c #6D733C",
"I@	c #5D783D",
"J@	c #4C7C3E",
"K@	c #74713A",
"L@	c #806B39",
"M@	c #6C743B",
"N@	c #5D793C",
"O@	c #5C783D",
"P@	c #60773C",
"Q@	c #497C3E",
"R@	c #925E33",
"S@	c #9A5D33",
"T@	c #747138",
"U@	c #387E3F",
"V@	c #68753A",
"W@	c #966134",
"X@	c #9B5D34",
"Y@	c #906436",
"Z@	c #7C6E38",
"`@	c #5A7B3C",
" #	c #447C3E",
".#	c #7B6E38",
"+#	c #896837",
"@#	c #836B38",
"##	c #7D6D38",
"$#	c #946134",
"%#	c #6A743B",
"&#	c #69763B",
"*#	c #7E6D38",
"=#	c #916335",
"-#	c #62763C",
";#	c #4A7B3E",
">#	c #8B6736",
",#	c #8A6737",
"'#	c #4C7D3E",
")#	c #59783D",
"!#	c #8D6636",
"~#	c #9C5D34",
"{#	c #35803E",
"]#	c #357C3D",
"^#	c #965A30",
"/#	c #975F34",
"(#	c #866A38",
"_#	c #866938",
":#	c #876938",
"<#	c #946235",
"[#	c #8F6536",
"}#	c #896738",
"|#	c #946135",
"1#	c #926336",
"2#	c #8B6638",
"3#	c #8A6837",
"4#	c #8E6537",
"5#	c #866937",
"6#	c #846636",
"7#	c #955A30",
"8#	c #975930",
"9#	c #92542B",
"0#	c #995B32",
"a#	c #9A5C33",
"b#	c #95582E",
"c#	c #995B31",
"d#	c #8F5229",
"e#	c #92542C",
"f#	c #96582F",
"g#	c #985A31",
"h#	c #91532A",
"i#	c #905229",
"j#	c #93552C",
"k#	c #94562D",
"l#	c #8D5127",
"m#	c #90522A",
"n#	c #926044",
"o#	c #8E5127",
"p#	c #925F44",
"  . . . . . . . . . . . + + + . + + . . . . . . . . . . . . . . . . . . . . . . . . . . . . . . . @ ",
"# $ $ $ $ $ $ $ $ $ $ $ % & * $ = - $ $ $ $ $ $ $ $ $ $ $ $ $ $ $ $ $ $ $ $ $ $ $ $ $ $ $ $ $ $ $ ; ",
"# $ > , $ $ $ $ $ $ $ $ $ ' ) $ ! ~ $ $ $ $ { ] $ $ $ $ $ $ ^ / $ $ % ( % $ $ $ $ $ $ $ $ $ _ : < ; ",
"# $ [ * $ $ $ $ } | 1 $ 2 3 $ $ $ $ $ $ $ $ 4 5 $ $ $ $ $ $ $ ! $ $ 6 7 8 9 $ $ $ 0 $ $ $ $ * a $ ; ",
"# $ ~ b $ $ $ $ $ c $ $ $ $ $ $ $ $ $ $ $ $ $ $ $ $ $ $ $ d $ $ $ $ e f 4 $ g h $ i $ $ $ $ $ j % ; ",
"# $ $ $ $ $ $ $ $ $ $ $ $ $ $ $ 1 k $ $ l ! $ $ $ $ $ $ m n k $ $ $ $ $ $ $ $ $ $ o $ $ $ $ $ $ $ ; ",
"# $ $ $ p p $ $ $ [ q $ $ $ $ $ r s $ $ $ $ [ t $ $ $ $ $ u v $ $ $ $ $ $ $ $ $ $ $ $ $ $ $ $ $ $ ; ",
"# = $ $ w x $ $ $ y z $ $ $ $ $ $ $ $ $ $ $ A B C $ $ $ $ $ $ $ $ $ $ $ $ $ D E F $ $ $ ! ! $ G $ ; ",
"# H $ $ $ $ $ $ $ $ $ $ $ ! $ $ $ $ $ $ $ 9 I J K $ $ $ $ $ $ $ $ $ L $ $ $ M N O $ $ $ P P % Q 9 ; ",
"# $ $ $ $ $ $ $ $ $ $ $ $ 2 ~ $ $ $ $ $ $ $ $ $ $ $ $ $ $ 3 $ $ $ $ R $ $ $ $ $ $ $ $ $ $ $ $ $ $ ; ",
"# S T % $ $ $ $ $ $ $ $ $ $ $ $ $ $ $ $ $ $ $ $ $ $ U V ! W $ $ $ $ $ $ $ $ $ $ $ $ $ $ X Y Z $ $ ; ",
"# `  .$ $ $ $ ..[ $ $ $ % +.@.% $ $ $ $ $ $ $ $ $ $ #.D $ $ $ $ $ $ $ $ ~ ^ $ $.%.$ $ $ &.*.=.$ $ ; ",
"# $ $ $ $ $ -.;.>.$ $ $ $ ,.'.% $ $ 3 = $ $ $ $ $ $ $ $ $ $ $ $ $ $ $ $ = ^ ).!.~.[ $ $ $ $ $ $ $ ; ",
"# $ $ $ $ $ {.].^.$ $ $ $ $ $ $ $ $ /.! $ % (.$ $ $ $ $ $ $ $ _.:.$ $ $ $ $ :.{ A 1 $ $ $ $ $ $ $ ; ",
"# $ ~ g $ $ $ <.f $ [.}.$ $ $ $ $ $ $ $ $ 9 |.$ $ $ $ $ $ $ $ 1.2.$ $ $ $ $ $ $ $ $ $ $ $ $ $ $ $ ; ",
"# $ $ /.$ $ $ $ $ $ ! /.$ $ $ $ $ $ $ $ $ % 3.$ $ $ $ $ $ $ $ $ $ $ $ $ $ $ $ $ H $ $ $ $ $ $ $ b ; ",
"# $ $ $ $ $ $ 0 $ $ $ $ $ $ $ 4.5.$ $ $ $ $ $ $ $ $ $ 6.o $ $ $ $ 7.$ $ $ $ $ $ /.$ $ $ $ 8.E $ = ; ",
"# $ $ 0 $ $ $ 9.0.$ 0 a.$ $ $ f b.$ $ c.= $ $ $ $ $ $ d.$ $ $ $ $ ! $ $ e.$ $ $ $ $ $ $ $ f.4 $ $ ; ",
"# $ g.h.$ $ $ [ $ $ i.j.$ $ $ $ $ $ $ $ $ $ $ $ $ $ b [.$ $ $ $ $ $ $ k.l.$ $ $ $ $ $ $ $ $ $ $ $ ; ",
"# $ g.m.$ $ $ $ $ $ $ $ $ % j % $ $ $ $ $ $ $ $ $ $ $ $ $ $ $ $ $ $ $ $ $ $ $ $ $ n.$ $ $ $ $ $ $ ; ",
"# $ $ $ $ $ ~ $ $ $ $ $ $ $ $ $ $ $ $ $ $ $ 2.$ $ $ $ $ $ $ $ $ $ $ $ $ $ $ $ $ 0 o.2.$ $ $ $ $ $ ; ",
"# $ $ $ $ $ g = $ $ $ $ $ $ $ $ $ $ $ $ $ % p.$ $ $ q.r.$ $ $ $ s.c $ $ $ $ $ $ $ t.p.$ $ $ $ $ $ ; ",
"# 3 $ $ $ $ $ $ $ n.u $ $ $ $ u.$ $ $ $ $ $ $ $ $ $ v.w.$ $ $ $ x.u $ $ $ $ $ $ $ $ $ $ ~ ! $ y.% ; ",
"# z.$ $ $ $ $ $ 1 A.B.C.$ $ $ D.E.$ $ = ! $ $ $ $ $ $ F.G.H.! $ $ $ $ $ $ $ $ $ $ $ $ $ 3 3 $ I.< ; ",
"# $ $ $ $ J.K.$ o L.M.N.$ $ $ 0.O.$ $ }.! 0 $ $ $ $ $ P.Q.R.S.$ $ $ $ $ $ $ $ $ w.f $ $ $ $ $ $ $ ; ",
"# $ $ $ $ T.U.$ $ - $ $ $ $ V.W.X.Y.Z.`. +.+++@+#+$+Q.%+&+*+=+-+;+>+,+'+% $ $ $ )+o $ $ $ $ $ $ $ ; ",
"# !+9 $ $ $ $ $ $ / $ $ $ $ ~+{+.+]+=+^+/+(+_+:+<+[+~+}+@+|+1+=+2+3+4+5+A.$ $ $ $ $ $ $ $ $ $ $ $ ; ",
"# ,.9 $ $ $ $ $ $ $ $ $ 6+7+$ ! $ S.S.8+$ 9+0 0+a+0+$ 0 $ m b+S.S.S.c+d+e+$ $ $ $ $ $ $ f+g+$ $ $ ; ",
"# $ $ $ $ $ $ $ 1 $ $ $ U.h+$ $ $ $ $ $ $ $ $ $ $ $ $ $ $ $ $ $ $ $ % i+$ $ $ $ $ b $ J j+k+X $ $ ; ",
"# H $ $ $ $ $ $ l+$ $ $ $ $ % $ m+n+$ $ $ $ $ $ 3 / % $ $ $ $ $ $ $ $ $ $ $ $ $ $ = $ o+p+x.n.$ $ ; ",
"# ~ $ $ $ $ $ $ q+$ $ $ $ % r+% c C $ $ $ $ $ $ ! ! s+{ $ $ $ $ $ $ $ $ $ $ $ $ $ $ $ $ V t+$ $ $ ; ",
"# $ $ $ $ $ $ $ $ $ $ $ $ $ u+$ $ $ $ $ $ $ $ $ $ $ f.[ $ $ $ $ $ $ $ $ $ $ 8.v+$ $ $ $ $ $ $ $ $ ; ",
"# $ $ b+_ $ $ $ l $ $ $ $ S.f $ $ $ $ $ $ w+$ $ $ $ $ $ $ = b $ $ x+y+$ $ $ $ % $ $ $ $ $ z+A+B+$ ; ",
"# $ $ $ $ $ $ $ $ $ $ $ % C+D+$ $ $ E+^ $ % F+$ $ $ $ $ $ $ $ $ $ 0 $ $ $ / g $ $ $ $ $ $ 0 0 $ $ ; ",
"# $ $ $ $ $ $ $ $ $ $ $ $ $ $ $ $ $ $ $ $ $ 0 $ $ $ $ $ $ $ $ $ $ $ $ $ $ $ $ $ $ $ $ $ $ $ $ $ $ ; ",
"# $ G+H+$ I+J+$ 3.$ $ $ K+L+M+[ N+$ $ $ m+[ c O+$ $ O+c $ $ $ P+Q+$ $ ) y $ R+S+c $ $ J+I+$ d m+m+T+",
"U+V+W+X++.Y+Z++.`++.+.+.m. @.@+@@@+.+.+.#@x x.$@+.+.%@x.+.+.+.6.&@+.+.*@=@+.-@;@>@+.+.,@'@+.)@!@~@{@",
"]@^@/@(@(@_@:@<@_@[@}@|@_@_@_@_@_@1@2@3@4@(@_@_@5@5@_@_@6@3@7@_@(@(@8@9@(@(@_@:@0@a@_@(@_@b@c@_@_@d@",
"e@f@g@h@i@i@j@k@i@l@m@n@i@i@i@i@i@o@p@p@q@i@i@i@r@r@i@i@s@m@t@i@i@i@u@v@i@i@i@w@q@x@y@i@i@z@A@i@i@B@",
"e@i@i@i@i@i@i@i@i@i@i@i@i@i@i@i@i@i@i@i@i@i@i@i@i@i@i@i@i@i@i@i@i@i@i@i@i@i@i@i@i@i@i@i@i@i@i@i@i@e@",
"C@D@E@i@i@i@i@F@G@G@H@i@i@i@i@i@i@I@G@G@J@h@K@h@i@i@i@i@L@G@M@i@i@i@i@i@i@N@G@O@i@i@i@i@P@G@G@Q@i@e@",
"R@S@T@h@U@U@V@W@X@X@Y@Z@`@U@U@ #.#+#X@X@@###$#%#U@U@&#*#X@X@=#-#U@U@U@;###>#X@,#'#U@U@)#!#X@~#@#{#]#",
"^#X@/#(#_#:#<#X@X@X@X@X@[#_#_#}#X@X@X@X@X@X@X@|#_#_#|#X@X@X@X@1#_#_#_#2#X@X@X@X@3#_#_#4#X@X@X@~#5#6#",
"7#X@X@X@X@X@X@X@X@X@X@X@X@X@X@X@X@X@8#9#0#X@X@X@X@X@X@X@a#9#b#X@X@X@X@X@X@X@X@X@X@X@X@X@X@X@X@X@X@c#",
"d#9#X@X@X@X@X@X@X@9#e#f#X@X@X@X@X@g#h#i#9#a#X@X@X@X@X@j#9#i#k#X@X@X@X@X@X@X@f#g#X@X@X@X@8#e#9#a#X@c#",
"l#i#h#k#X@X@X@j#h#i#i#i#h#h#a#a#h#m#i#i#i#h#j#X@X@X@k#i#i#i#i#f#X@X@X@a#h#h#i#m#h#X@X@g#h#i#i#h#j#0#",
"l#i#i#i#i#i#i#i#i#i#i#i#i#i#i#i#i#i#i#i#i#i#i#i#i#i#i#i#i#i#i#i#i#i#i#i#i#i#i#i#i#i#i#i#i#i#i#i#i#l#",
"l#i#i#i#i#i#i#i#i#i#i#i#i#i#i#i#i#i#i#i#i#i#i#i#i#i#i#i#i#i#i#i#i#i#i#i#i#i#i#i#i#i#i#i#i#i#i#i#i#l#",
"l#i#i#i#i#i#i#i#i#i#i#i#i#i#i#i#i#i#i#i#i#i#i#i#i#i#i#i#i#i#i#i#i#i#i#i#i#i#i#i#i#i#i#i#i#i#i#i#i#l#",
"n#o#o#o#o#o#o#o#o#o#o#o#o#o#o#o#o#o#o#o#o#o#o#o#o#o#o#o#o#o#o#o#o#o#o#o#o#o#o#o#o#o#o#o#o#o#o#o#o#p#"};
