/* XPM */
static char *_56ec162495942889ea5ec87bd058af4agqgf7rG5By1oHoc[] = {
/* columns rows colors chars-per-pixel */
"50 50 106 2 ",
"   c #20201F",
".  c #242422",
"X  c #292825",
"o  c #2C2C2A",
"O  c #302F2D",
"+  c #31312E",
"@  c #353532",
"#  c #383735",
"$  c #393936",
"%  c #3D3D3A",
"&  c #403F3C",
"*  c #3F403D",
"=  c #42413E",
"-  c #454542",
";  c #484743",
":  c #474845",
">  c #4A4946",
",  c #4D4D4A",
"<  c #504F4B",
"1  c #52514E",
"2  c #555552",
"3  c #585753",
"4  c #575853",
"5  c #5A5A56",
"6  c #5D5D59",
"7  c #605F5C",
"8  c #5F605A",
"9  c #62625D",
"0  c #656561",
"q  c #686763",
"w  c #676863",
"e  c #6A6A65",
"r  c #6D6E6A",
"t  c #706F6D",
"y  c #6E716A",
"u  c #72726E",
"i  c #757571",
"p  c #757871",
"a  c #757972",
"s  c #777972",
"d  c #777874",
"f  c #777B75",
"g  c #797875",
"h  c #7A7975",
"j  c #7A7976",
"k  c #797C75",
"l  c #7C7B78",
"z  c #7D7C78",
"x  c #7D7D7A",
"c  c #7E7D7A",
"v  c #817F7B",
"b  c #7E8079",
"n  c #7F827C",
"m  c #7F807E",
"M  c #80817B",
"N  c #81807C",
"B  c #84837F",
"V  c #858481",
"C  c #868582",
"Z  c #888783",
"A  c #888784",
"S  c #868882",
"D  c #898885",
"F  c #8A8985",
"G  c #8A8986",
"H  c #8C8B88",
"J  c #8E8D8A",
"K  c #8F8E8B",
"L  c #908F8B",
"P  c #908F8C",
"I  c #91908D",
"U  c #93928E",
"Y  c #94928F",
"T  c #969592",
"R  c #989794",
"E  c #999794",
"W  c #999895",
"Q  c #9A9995",
"!  c #9D9D99",
"~  c #9E9D99",
"^  c #A09F9B",
"/  c #A2A19E",
"(  c #A3A29F",
")  c #A5A4A1",
"_  c #A6A5A2",
"`  c #A8A7A4",
"'  c #A9A8A5",
"]  c #AAA9A6",
"[  c #ABAAA7",
"{  c #ACABA8",
"}  c #ADACA9",
"|  c #B0AFAC",
" . c #B1AFAC",
".. c #B2B1AE",
"X. c #B5B4B1",
"o. c #B6B5B2",
"O. c #B8B7B4",
"+. c #BAB9B6",
"@. c #BBBAB7",
"#. c #BEBDBB",
"$. c #C0BFBC",
"%. c #C2C1BE",
"&. c #C8C7C5",
"*. c #CAC9C7",
"=. c #CECDCA",
"-. c #D1D0CE",
/* pixels */
"u y y y y y u u 8 w w w 8 4 4 1 1 4 1 1 1 < > > = > ; ; $ @ O X o o O @ # # % # @ O # O [ m l d d r ",
"u u y u a b a b b w 8 8 8 4 4 4 = 4 = 1 < < > < < < > = % $ + O o O + + # % % % # O @ O _ x l l g d ",
"a u a a b b b a b w w 8 4 4 4 < = < < < < > > < < < > = % $ + O o O + @ # * * : * + @ O [ x x x l g ",
"k b n n n n b b w b w 8 8 4 < < 1 < < = > = ; = > > > > & % @ O + @ @ + # * : , * % % + [ m V n x l ",
"a b n n n S n a w w w 8 8 4 < < 1 < > = = = % ; ; > ; ; = % $ @ @ @ @ + @ * : 1 , * * @ | A F H V l ",
"y k n b n b b u b w w w 8 5 1 < 1 = = % % % & ; = ; ; = % % $ $ @ @ % % % * - , , * * @ X.J J J H V ",
"y b b b b b a u b 9 w 8 8 8 5 1 1 = = @ @ @ % = ; ; ; = = = = % $ % @ % * * : 1 , - - # +.J K W R T ",
"y a a a u y y y y e w 8 8 4 4 1 < = = % % % = ; ; > > = = = = = = % % * = = , 2 1 : : % +.J T R / ! ",
"y u u a b w 8 w w 8 w 8 8 4 4 < 4 = = = = = = < ; ; - - - > > < > - % & - : , 5 1 ; > # %.T E ^ ) ( ",
"r y u u y w w 8 8 8 8 5 4 1 = 4 = , = < , = , = ; - > > > < < < , : * = - : , 2 1 ; , & $.^ ( ' ` ) ",
"9 y y a e w w 8 5 8 4 4 1 < 1 1 1 = , = = 1 , < > > < 4 1 , < 1 , : = = & : > 2 1 > > & $.^ [ .. .) ",
"9 e r 9 w w 8 8 8 5 1 4 4 4 = 4 1 1 , 1 , 4 1 4 < < 1 4 4 , 1 1 > : * % & > 1 2 < > ; & %.[  ...} ' ",
"8 9 w 8 9 8 8 4 1 4 1 4 1 = 1 = = < , 4 4 8 8 4 1 1 , 1 1 , , 1 , - = = = , < 2 3 > > & %.| | | | | ",
"8 w w 9 8 8 4 1 1 4 4 4 4 4 4 = 4 1 = 4 4 w 8 1 4 , , , , > > > - : = = - > , 2 1 > > & %.[ ( |  .#.",
"9 w 9 9 8 4 4 1 1 4 4 4 = = = = = < 1 5 8 8 8 4 4 , 1 > = * * > - = : = - : , 3 1 > > & %.} [ | ..$.",
"9 w 8 8 8 4 1 1 1 4 1 1 5 1 4 1 4 < < 4 4 8 4 4 4 4 1 < = * * * * = = : : : , 1 1 ; > & %.} } _ } ..",
"w 9 6 6 7 3 < < , < , 1 2 , , < < 1 < 4 5 6 4 1 5 5 1 : * % - - = = < < < = 1 1 < = < & =.[ ( ^ / } ",
"e w w 9 6 5 < ; , > , , < < 2 < , , < 4 5 4 4 4 5 4 1 : - * - - = < 1 1 3 3 1 1 > & < = %.^ ^ ^ ^ _ ",
"e e 0 0 0 6 < > , : , 1 < 2 < < = , < 8 8 2 4 1 2 1 > : : = - : < 1 1 1 3 1 3 1 < ; , & %.^ Y T ! ^ ",
"e e 0 0 q 6 5 < , 2 < 1 < < < > < , 1 4 8 4 1 1 1 > > > > - - : < 1 3 3 3 1 3 9 1 = & & $.Q Y Y ! B ",
"e r w 0 0 6 5 2 2 < 1 1 2 > > ; , < 1 4 4 4 1 1 , > > > : > > > < 3 3 3 9 3 7 9 2 & & & $.Y B F B B ",
"r r w w 7 7 7 6 2 , < , > : : : = < 1 4 4 4 2 1 > 1 > > > < 1 1 3 7 7 q 9 7 7 9 3 = & & $.B v v M M ",
"r e 9 9 7 7 6 5 < , , , - - & & = * = < 1 1 < = : , > , > , 2 2 3 3 7 9 9 3 8 8 < & & + } v v v e M ",
"1 1 < < < < > : - ; & & @ @ @ + * * * * = = * $ $ % = % = = = * = = = > > 1 = ; & & & O Y 7 < < < 1 ",
", 1 < > > > > > - = % % @ O @ O @ @ $ $ % * * * % % & = = = & & = = = = = < = = = = = O = = # @ @ @ ",
"F I T R R P L Z x g r O 2 > > : 1 3 6 6 0 w w 0 0 w 0 9 9 7 5 7 9 y q q q q 9 8 9 9 3 3 3 3 3 = 1 = ",
"%.&.*.-.-.=.=.&.#.X.J + v h d l V F I T W ! ^ / ) / ! T I L F L B B B B B B B B B B M v B B v v M v ",
"[ | X.$.$.$.+. ./ d 6 @ H V i t h V J J I T W ! ! ! T V h z h u v M M v M M M M v v v q 9 v v u q e ",
"L ^ ( | | _ ^ ^ l 1 < @ R K 0 6 6 w r r r i i u d h i q 6 6 3 1 3 8 3 3 3 9 3 3 , < < 3 1 < 1 < < 3 ",
"T ^ } | [ _ ^ T d 1 < @ T T i r e r i r r i t t i h i e 9 9 5 5 8 3 8 3 5 5 5 3 1 < 3 < < < = < = < ",
"Q ( } } } _ ^ Y l 2 2 @ P R d r i t d r r i u i t i u e q 7 6 6 8 8 w 9 9 8 3 3 < < 3 < < = = < 1 3 ",
"^ ( ` ( _ ^ R T l 5 4 $ / ! l d d d h t r r i i t t r e q 9 7 6 8 q q w 9 8 3 3 < 3 < < < = = < < 3 ",
"` ( _ _ ^ ^ Y Y v 5 9 = ] ` B v i d m i t t t t t t t r 0 6 0 6 7 0 0 0 6 2 2 2 2 2 2 , - : ; , 1 8 ",
"| } [ ( Q ^ Q Y s 7 9 =  . .V v m j i i t 0 t t t t r 0 0 6 6 6 0 r 0 0 5 2 2 2 2 , , : : > > 1 3 8 ",
"|  .( ^ ^ ^ ^ ( v 7 9 = o.X.Z c m m m j t 0 r 0 0 0 0 0 6 4 4 6 0 0 0 7 6 4 2 2 , : : , , < < 3 3 8 ",
"[  .( ^ Q Q ^ ( B 9 9 = o.O.F V m x m x t t 0 0 9 6 8 6 2 2 4 6 0 0 7 7 6 2 1 1 , - : , < 3 5 7 8 8 ",
"[ [ [ ^ T ^ ( [ A 9 0 - o.X.A d m m x m t t 0 6 6 6 6 6 , 4 2 2 6 5 5 6 7 5 2 , > = , < 3 5 7 7 9 8 ",
"[ [  .( ( ( [ ( C 6 5 = } } n i t i t i t 0 7 6 6 6 6 6 , , 2 4 6 4 5 6 6 4 2 , = : < < 3 7 7 q 9 9 ",
"}  . . . .[  .[ A 6 5 % ^ ^ i r 0 t t t 0 6 6 5 4 6 4 4 2 , 2 4 5 6 6 6 2 2 , : < < < 2 7 7 q t q q ",
"[ [  . .[  .} ] V 6 5 @ R R r 9 0 0 0 0 7 5 2 6 4 4 6 4 2 2 4 4 6 7 7 5 2 , - : & , < 4 7 7 q r q q ",
"' [ } ' _ } ) / l 4 < @ ! R 0 7 7 7 6 5 5 4 2 2 2 6 7 2 2 2 2 2 8 9 5 3 3 1 1 > , < < 3 5 0 q 7 q q ",
"! [ ' _ [ ) / ! g 2 2 # ! R e 6 7 6 2 4 5 2 2 , 1 2 2 1 2 2 6 2 3 5 3 1 3 3 2 3 < 2 < 3 5 5 7 7 8 9 ",
"! ) ) ) ' ' ! R i 2 < # R R r 0 7 4 2 5 4 2 - , , , , , 1 2 4 1 1 3 3 1 3 3 8 8 7 3 2 < 3 3 3 3 5 5 ",
"R ! ) ) ^ ) R K r < 1 @ W ! t 0 6 5 5 5 2 1 , , : * * : , , , , = < < < 3 8 8 8 7 3 3 2 1 3 3 = 3 3 ",
"R ! ! ) ^ R K G r 1 2 $ R W t w 0 6 5 6 2 1 , : * # # * * , : - = < 1 3 3 8 8 8 9 9 6 3 3 3 3 1 3 3 ",
"! / / ! R T C G r 1 1 $ W R t 0 0 0 6 6 2 1 = * # + + # * * : - = = < 1 3 8 8 8 q e 9 q 6 3 3 3 3 3 ",
"! / _ ! P G G K t 2 1 @ ! R r 0 0 0 7 5 2 , : % @ o o + # * * - = < < = 3 3 6 9 q q q q 9 5 3 3 3 3 ",
") ) ! W R J K K i < 4 % ) ) t 9 0 6 2 2 1 : * # + X . o + @ * * = = = < = 1 8 9 9 q q 9 9 9 5 3 3 3 ",
") ) ! R R I T I d 2 5 * ) ) t 0 6 4 2 , : * % # + . . o o + @ * = < = 1 3 5 9 q 9 8 8 9 5 5 3 5 5 3 ",
"/ ) ^ ! ! T R ! x 6 6 % ) ! t 7 6 4 , : : % # + o     . o o @ @ = = 1 3 3 3 8 9 q 8 8 3 3 3 3 3 8 3 "
};
