/* XPM */
static char * door_open_xpm[] = {
"50 50 568 2",
"  	c None",
". 	c #5EAB46",
"+ 	c #5DAC47",
"@ 	c #5EAC47",
"# 	c #71B550",
"$ 	c #50A343",
"% 	c #4FA446",
"& 	c #4EA446",
"* 	c #50A547",
"= 	c #89C141",
"- 	c #4FA344",
"; 	c #4EA046",
"> 	c #4D9F45",
", 	c #62AD45",
"' 	c #6CB144",
") 	c #7ABA44",
"! 	c #4FA445",
"~ 	c #50A344",
"{ 	c #4FA346",
"] 	c #62AC44",
"^ 	c #7EBA42",
"/ 	c #4EA045",
"( 	c #4E9F45",
"_ 	c #50A443",
": 	c #8AC241",
"< 	c #51A545",
"[ 	c #81BC40",
"} 	c #94C744",
"| 	c #53A645",
"1 	c #61AB43",
"2 	c #7AB73E",
"3 	c #4C9D44",
"4 	c #4FA246",
"5 	c #4FA447",
"6 	c #86BF3E",
"7 	c #5DAB47",
"8 	c #7FBD44",
"9 	c #5BAA47",
"0 	c #4EA447",
"a 	c #4EA146",
"b 	c #4DA046",
"c 	c #4EA246",
"d 	c #52A647",
"e 	c #5FAB45",
"f 	c #86C143",
"g 	c #4D9C45",
"h 	c #6FAD65",
"i 	c #A2BD92",
"j 	c #A4BD94",
"k 	c #A4BE94",
"l 	c #A7C096",
"m 	c #A9C296",
"n 	c #A8C198",
"o 	c #A9BF98",
"p 	c #AAC29A",
"q 	c #ABC29C",
"r 	c #ACC29D",
"s 	c #ADC39F",
"t 	c #AEC39F",
"u 	c #AEC4A0",
"v 	c #B0C5A0",
"w 	c #B3C9A2",
"x 	c #BED0A1",
"y 	c #B5C8A4",
"z 	c #B3C6A6",
"A 	c #B4C7A5",
"B 	c #56A64D",
"C 	c #8DBA7E",
"D 	c #A1B783",
"E 	c #9EA880",
"F 	c #81AD74",
"G 	c #61AD46",
"H 	c #58A846",
"I 	c #59A946",
"J 	c #61AC45",
"K 	c #86AF73",
"L 	c #9C7756",
"M 	c #9A6B43",
"N 	c #996B43",
"O 	c #9A6C41",
"P 	c #9A6B42",
"Q 	c #996B42",
"R 	c #876544",
"S 	c #73AC68",
"T 	c #90BD8A",
"U 	c #AEC79D",
"V 	c #BAC5A1",
"W 	c #BDB490",
"X 	c #B9A28C",
"Y 	c #997250",
"Z 	c #8B531A",
"` 	c #7E4708",
" .	c #719958",
"..	c #4EA145",
"+.	c #6FB344",
"@.	c #60AC44",
"#.	c #63AE46",
"$.	c #6FB242",
"%.	c #8CB177",
"&.	c #9A683F",
"*.	c #8E4F09",
"=.	c #844A09",
"-.	c #834A0A",
";.	c #84490B",
">.	c #844A0A",
",.	c #84490E",
"'.	c #884D11",
").	c #8F510C",
"!.	c #82511D",
"~.	c #C9B6A0",
"{.	c #B0937A",
"].	c #956537",
"^.	c #8B4D07",
"/.	c #904F06",
"(.	c #914F06",
"_.	c #8F5109",
":.	c #905109",
"<.	c #814708",
"[.	c #4EA245",
"}.	c #6CB145",
"|.	c #51A546",
"1.	c #8FB27B",
"2.	c #9A673E",
"3.	c #884E0C",
"4.	c #C6BCB0",
"5.	c #E3E1D9",
"6.	c #E3E1DB",
"7.	c #E3E1DA",
"8.	c #E4E0DC",
"9.	c #BCA892",
"0.	c #91510A",
"a.	c #905206",
"b.	c #8D5307",
"c.	c #8E5308",
"d.	c #90510A",
"e.	c #90500A",
"f.	c #915008",
"g.	c #8C4F0B",
"h.	c #844C0A",
"i.	c #824709",
"j.	c #77B643",
"k.	c #50A445",
"l.	c #93B47E",
"m.	c #98683E",
"n.	c #874F0D",
"o.	c #DAD3CD",
"p.	c #FFFFFF",
"q.	c #FFFFFE",
"r.	c #CABBAA",
"s.	c #905108",
"t.	c #8F5107",
"u.	c #894F09",
"v.	c #814D0C",
"w.	c #7E4809",
"x.	c #7A470D",
"y.	c #7B4710",
"z.	c #7E490E",
"A.	c #7D480C",
"B.	c #8C500D",
"C.	c #82480A",
"D.	c #7EBC43",
"E.	c #70B344",
"F.	c #97B581",
"G.	c #98683F",
"H.	c #884E0D",
"I.	c #DAD3CE",
"J.	c #CABBA7",
"K.	c #925A1F",
"L.	c #7E490D",
"M.	c #854E0E",
"N.	c #8B500C",
"O.	c #905008",
"P.	c #8E5109",
"Q.	c #824C0A",
"R.	c #8C500F",
"S.	c #709958",
"T.	c #65AD44",
"U.	c #7FBC43",
"V.	c #61AC46",
"W.	c #6FB446",
"X.	c #65AE45",
"Y.	c #7BBA43",
"Z.	c #99B684",
"`.	c #884F0B",
" +	c #C9BCA6",
".+	c #8E4F08",
"++	c #9E6427",
"@+	c #8D4F08",
"#+	c #8F5008",
"$+	c #8E5009",
"%+	c #8E500A",
"&+	c #844B09",
"*+	c #8C500E",
"=+	c #824808",
"-+	c #709957",
";+	c #5EAB45",
">+	c #5AAA46",
",+	c #7BB942",
"'+	c #6BB143",
")+	c #7BBA44",
"!+	c #9CB887",
"~+	c #884F0A",
"{+	c #C9BCA8",
"]+	c #9F6628",
"^+	c #5EAB44",
"/+	c #85C144",
"(+	c #5EAA44",
"_+	c #9FB98A",
":+	c #C9BCA7",
"<+	c #8E4F0B",
"[+	c #9F6629",
"}+	c #905007",
"|+	c #8F5009",
"1+	c #824809",
"2+	c #5FAC47",
"3+	c #A2BA8D",
"4+	c #884F0C",
"5+	c #8E4F0A",
"6+	c #9F662A",
"7+	c #844B0A",
"8+	c #A4BC8F",
"9+	c #8C510D",
"0+	c #4B9B45",
"a+	c #4FA345",
"b+	c #A5BC8F",
"c+	c #8C510B",
"d+	c #824807",
"e+	c #7BBB45",
"f+	c #6BB247",
"g+	c #52A645",
"h+	c #8BC444",
"i+	c #6DB244",
"j+	c #7CBB43",
"k+	c #6CB043",
"l+	c #6CB143",
"m+	c #67AF45",
"n+	c #75B745",
"o+	c #884F0D",
"p+	c #844B08",
"q+	c #799D56",
"r+	c #4D9E45",
"s+	c #A06628",
"t+	c #854B08",
"u+	c #84A554",
"v+	c #5DAA46",
"w+	c #CABCA6",
"x+	c #8E4F07",
"y+	c #A56F36",
"z+	c #9D6934",
"A+	c #A06A35",
"B+	c #9F6A35",
"C+	c #9F6B35",
"D+	c #9D6B35",
"E+	c #9D6B38",
"F+	c #936030",
"G+	c #8B4F0C",
"H+	c #82470B",
"I+	c #59A744",
"J+	c #77B844",
"K+	c #78B843",
"L+	c #5EAA43",
"M+	c #CABBA6",
"N+	c #8F5108",
"O+	c #915717",
"P+	c #93591B",
"Q+	c #95581D",
"R+	c #94581D",
"S+	c #925A19",
"T+	c #94591A",
"U+	c #915919",
"V+	c #8D561E",
"W+	c #80470D",
"X+	c #76B647",
"Y+	c #6EB445",
"Z+	c #5AA946",
"`+	c #59A845",
" @	c #69AE42",
".@	c #5FAB44",
"+@	c #60AA43",
"@@	c #CABBA8",
"#@	c #8F5208",
"$@	c #8D510A",
"%@	c #8E5107",
"&@	c #844E0C",
"*@	c #5B3917",
"=@	c #513D26",
"-@	c #714C1B",
";@	c #6D9858",
">@	c #67AE43",
",@	c #57A845",
"'@	c #4EA346",
")@	c #4E9F46",
"!@	c #C9BBA8",
"~@	c #8D5207",
"{@	c #8A4F0E",
"]@	c #8E500C",
"^@	c #8D510B",
"/@	c #8E510C",
"(@	c #8F520D",
"_@	c #8E520F",
":@	c #895211",
"<@	c #784710",
"[@	c #7E480D",
"}@	c #77B743",
"|@	c #8D5008",
"1@	c #985F26",
"2@	c #84480D",
"3@	c #84480A",
"4@	c #7F490E",
"5@	c #7F490D",
"6@	c #7D480B",
"7@	c #7C480D",
"8@	c #7A460A",
"9@	c #8C4E08",
"0@	c #804609",
"a@	c #63AC43",
"b@	c #B2C78E",
"c@	c #8D500A",
"d@	c #A16528",
"e@	c #8F4F08",
"f@	c #915005",
"g@	c #8E5106",
"h@	c #8E5108",
"i@	c #8E510A",
"j@	c #844C0B",
"k@	c #8A500A",
"l@	c #81480A",
"m@	c #68AF44",
"n@	c #6AB044",
"o@	c #AABE90",
"p@	c #8F4F09",
"q@	c #64AD45",
"r@	c #7AB943",
"s@	c #67B047",
"t@	c #53A544",
"u@	c #83BD40",
"v@	c #A9BE94",
"w@	c #8E5008",
"x@	c #9F6627",
"y@	c #854C09",
"z@	c #53A646",
"A@	c #73B441",
"B@	c #74B542",
"C@	c #55A746",
"D@	c #54A746",
"E@	c #ACBF97",
"F@	c #9E6627",
"G@	c #8C5109",
"H@	c #8F5007",
"I@	c #52A545",
"J@	c #4FA444",
"K@	c #AEC19A",
"L@	c #50A444",
"M@	c #70B242",
"N@	c #6FB141",
"O@	c #4FA347",
"P@	c #B1C29D",
"Q@	c #9E6628",
"R@	c #8D5009",
"S@	c #78B945",
"T@	c #8FC53F",
"U@	c #60AC46",
"V@	c #B4C4A0",
"W@	c #50A447",
"X@	c #B6C6A3",
"Y@	c #8F5006",
"Z@	c #A06627",
"`@	c #904F0A",
" #	c #56A747",
".#	c #69AF43",
"+#	c #60AB44",
"@#	c #55A645",
"##	c #51A445",
"$#	c #64AD43",
"%#	c #BCCAA6",
"&#	c #8E5006",
"*#	c #A56C31",
"=#	c #9B612C",
"-#	c #91551A",
";#	c #8C500A",
">#	c #905009",
",#	c #8A500B",
"'#	c #814908",
")#	c #57A745",
"!#	c #65AD43",
"~#	c #6FB241",
"{#	c #77B742",
"]#	c #94C83F",
"^#	c #86C042",
"/#	c #6FB243",
"(#	c #71B442",
"_#	c #8EC540",
":#	c #C9D5A8",
"<#	c #8B5011",
"[#	c #945D26",
"}#	c #A06A34",
"|#	c #A46D36",
"1#	c #A16E3D",
"2#	c #A06B38",
"3#	c #9C652C",
"4#	c #87531C",
"5#	c #894F0A",
"6#	c #804808",
"7#	c #80A357",
"8#	c #87C042",
"9#	c #6FB343",
"0#	c #8EC43F",
"a#	c #7AB142",
"b#	c #7FB642",
"c#	c #8BC140",
"d#	c #7BB242",
"e#	c #7BB243",
"f#	c #8FC33F",
"g#	c #7AB140",
"h#	c #84BA42",
"i#	c #86BC41",
"j#	c #C7CFAC",
"k#	c #9F7859",
"l#	c #90623F",
"m#	c #DAD5D0",
"n#	c #FDFEFC",
"o#	c #FCFDFB",
"p#	c #FCFDFA",
"q#	c #FBFCF9",
"r#	c #F9FBF8",
"s#	c #F8FAF7",
"t#	c #F7FAF6",
"u#	c #F6F9F4",
"v#	c #F5F8F2",
"w#	c #F3F7F0",
"x#	c #F1F5EF",
"y#	c #F0F4ED",
"z#	c #EEF4EB",
"A#	c #EFF5E8",
"B#	c #C3B9A0",
"C#	c #8E541C",
"D#	c #8F4F05",
"E#	c #8E520A",
"F#	c #955C23",
"G#	c #96612A",
"H#	c #8A5008",
"I#	c #81480B",
"J#	c #86A256",
"K#	c #7BB142",
"L#	c #8AC044",
"M#	c #84BB42",
"N#	c #81B743",
"O#	c #367F3F",
"P#	c #468940",
"Q#	c #619D3E",
"R#	c #377F3F",
"S#	c #69A33E",
"T#	c #377F3D",
"U#	c #529241",
"V#	c #71AA3D",
"W#	c #559440",
"X#	c #56933F",
"Y#	c #71AB3D",
"Z#	c #47893E",
"`#	c #579540",
" $	c #55933F",
".$	c #448940",
"+$	c #71AA3E",
"@$	c #5F9B3E",
"#$	c #568248",
"$$	c #6D7C44",
"%$	c #7A7241",
"&$	c #8B7135",
"*$	c #90541E",
"=$	c #8D4C07",
"-$	c #904F09",
";$	c #8D5108",
">$	c #834A0B",
",$	c #688055",
"'$	c #5F9C43",
")$	c #4F913D",
"!$	c #478840",
"~$	c #4A8348",
"{$	c #627F47",
"]$	c #72743F",
"^$	c #816A37",
"/$	c #8E5F2C",
"($	c #8A4D05",
"_$	c #814808",
":$	c #347D3E",
"<$	c #7D6D39",
"[$	c #76723A",
"}$	c #36803F",
"|$	c #806C39",
"1$	c #806D39",
"2$	c #6A753B",
"3$	c #5F783B",
"4$	c #4D7C3E",
"5$	c #477C3F",
"6$	c #777039",
"7$	c #6B763B",
"8$	c #5D793C",
"9$	c #5E783D",
"0$	c #578047",
"a$	c #5D7441",
"b$	c #60885D",
"c$	c #4E7C3D",
"d$	c #995D33",
"e$	c #966134",
"f$	c #6B743A",
"g$	c #387F3F",
"h$	c #757138",
"i$	c #9B5D34",
"j$	c #916335",
"k$	c #7E6C37",
"l$	c #4E7B3D",
"m$	c #4B7C3D",
"n$	c #8D6635",
"o$	c #856936",
"p$	c #836A36",
"q$	c #966034",
"r$	c #6B753A",
"s$	c #766F39",
"t$	c #816C37",
"u$	c #916334",
"v$	c #5E773B",
"w$	c #4D7B3E",
"x$	c #806B36",
"y$	c #8C6636",
"z$	c #4D7D3D",
"A$	c #54793D",
"B$	c #8E6536",
"C$	c #876936",
"D$	c #3B7E3E",
"E$	c #367D3D",
"F$	c #9A5C33",
"G$	c #946135",
"H$	c #8D6538",
"I$	c #8D6637",
"J$	c #985F35",
"K$	c #8F6537",
"L$	c #906437",
"M$	c #966135",
"N$	c #995E35",
"O$	c #926336",
"P$	c #926337",
"Q$	c #916337",
"R$	c #9A5D33",
"S$	c #8D6537",
"T$	c #8B6336",
"U$	c #96582F",
"V$	c #92542B",
"W$	c #995B32",
"X$	c #995C32",
"Y$	c #94562D",
"Z$	c #93552C",
"`$	c #975931",
" %	c #975930",
".%	c #91532A",
"+%	c #905229",
"@%	c #9B5D33",
"#%	c #94572E",
"$%	c #985A31",
"%%	c #92542C",
"&%	c #8F5229",
"*%	c #96582E",
"=%	c #90522A",
"-%	c #965830",
";%	c #8E5128",
">%	c #8D5128",
",%	c #8C5128",
"'%	c #8E5127",
")%	c #946145",
". + + + + + + + + + + + + + + + + @ + + + + + + + + + + + + + + + + + + + + + + + + + + + + + + + # ",
"$ % & * % % % % % % % % & = - % ; > % % % % % % % % % % % % % % % % % % % % % % % % % % % % % % % , ",
"$ % ' ) % % % % ! ~ % % { % % % % % % % % % ] ^ % % % % % % / ( % % _ : < % % % % % % % % % [ } | , ",
"$ % % & % % % % 1 2 % % 3 4 % % % % % % % % ! 5 % % % % % % % % % % 6 7 8 ! % % % 9 % % % % 5 0 % , ",
"$ % a b % % % % % % % % % % % % % % % % c % % % % % % % d e % % % % % % % % b a % f % % % % % g % , ",
"$ % % % % % % % % % % % h i j k l m l n o p q r s t u v w x y z A % % % % % B C D E F % % % % % % , ",
"$ % % % G H % % % I J % K L M N M O O O O O M M M M P O O O Q N R S T U V W X Y Z `  .% % % % % % , ",
"$ ..% % +.@.% % % #.$.% %.&.*.=.-.;.;.;.;.;.=.=.=.=.>.;.;.,.'.).!.~.{.].^./.(._.:.<. .% [.[.% }.|., ",
"$ > % % % % % % % % % % 1.2.3.4.5.6.6.6.6.6.5.5.5.5.7.6.6.8.9.0.a.b.c.d.e.f.g.h._.i. .% [...% j.k., ",
"$ % % % % % % % % % % % l.m.n.o.p.p.p.p.p.p.p.p.p.p.p.p.p.q.r.s.t.u.v.w.x.y.z.A.B.C. .% % % % % % , ",
"$ D.E.% % % % & % % % % F.G.H.I.p.p.p.p.p.p.p.p.p.p.p.p.p.q.J.:.K.L.M.N._.O.P.Q.R.C.S.% T.U.V.% % , ",
"$ W.X.% % % % Y.% % % % Z.G.`.o.p.p.p.p.p.p.p.p.p.p.p.p.p.q. +.+++@+#+P.$+$+%+&+*+=+-+% ;+W.>+% % , ",
"$ % % % % k.,+'+)+% % % !+G.~+o.p.p.p.p.p.p.p.p.p.p.p.p.p.q.{+%+]+*.#+$+%+%+%+&+B.=+-+% % % % % % , ",
"$ % % % % % ^+/+(+% % % _+G.`.I.p.p.p.p.p.p.p.p.p.p.p.p.p.q.:+<+[+*.}+|+$+$+$+&+*+1+-+% % % % % % , ",
"$ % a b % % % 2+% % a / 3+G.4+I.p.p.p.p.p.p.p.p.p.p.p.p.p.q. +5+6+*.}+#+#+#+#+7+*+1+S.% % % % % % , ",
"$ % % { % % % % % % % % 8+G.4+I.p.p.p.p.p.p.p.p.p.p.p.p.p.q. +5+6+*.}+#+#+#+#+7+9+1+S.% % % % % 0+, ",
"$ % % % % % % a+% % % % b+G.~+o.p.p.p.p.p.p.p.p.p.p.p.p.p.q. +5+6+*.}+#+#+#+#+7+c+d+S.% % e+f+% % , ",
"$ % |.g+% % % h+& % |.< b+G.`.I.p.p.p.p.p.p.p.p.p.p.p.p.p.q. +5+6+*.}+#+#+#+#+7+9+=+S.% % 5 % % % , ",
"$ % i+j+% % % 5 % % k+l+b+G.`.I.p.p.p.p.p.p.p.p.p.p.p.p.p.q. +5+6+*.}+#+#+#+#+7+*+=+S.% % % % % % , ",
"$ % m+n+% % % % % % % % b+G.o+I.p.p.p.p.p.p.p.p.p.p.p.p.p.q. +5+6+*.}+#+#+#+#+&+R.1+S.% % % % % % , ",
"$ % % % % % c % % % % % b+G.`.o.p.p.p.p.p.p.p.p.p.p.p.p.p.q. +*.[+*.}+#+#+#+#+p+*+=+q+% % % % % % , ",
"$ % % % % % r+% % % % % b+G.`.o.p.p.p.p.p.p.p.p.p.p.p.p.p.q. +*.s+*.}+#+#+s.O.t+B.d+u+% % % % % % , ",
"$ ; % % % % % % % v+X.% b+G.`.I.p.p.p.p.p.p.p.p.p.p.p.p.p.q.w+x+y+z+A+B+C+D+E+F+G+H+ .% c c % ' |., ",
"$ > % % % % % % I+J+K+L+b+G.o+I.p.p.p.p.p.p.p.p.p.p.p.p.p.q.M+N+O+P+Q+R+R+S+T+U+V+W+ .% [.[.% X+|., ",
"$ % % % % Y+Z+% `+ @.@+@b+G.4+I.p.p.p.p.p.p.p.p.p.p.p.p.p.q.@@#@$@%@}+#+P.#@&@*@=@-@;@% % % % % % , ",
"$ % % % % >@,@% '@)@% % b+G.~+o.p.p.p.p.p.p.p.p.p.p.p.p.p.q.!@~@{@*+]@^@/@(@_@:@<@[@ .% % % % % % , ",
"$ }@% % % % % % { a % % b+G.`.I.p.p.p.p.p.p.p.p.p.p.p.p.p.q. +|@1@2@3@4@5@6@7@8@9@0@S.% % % % % % , ",
"$ a@% % % % % % % % % % b@G.`.I.p.p.p.p.p.p.p.p.p.p.p.p.p.q.{+c@d@e@f@g@h@h@i@j@k@l@ .% m@n@% % % , ",
"$ % % % % % % % % % % % o@G.o+I.p.p.p.p.p.p.p.p.p.p.p.p.p.q.{+%+]+p@}+g@h@h@$+j@k@l@ .q@)+r@s@% % , ",
"$ g % % % % % t@u@% % % v@G.`.o.p.p.p.p.p.p.p.p.p.p.p.p.p.q.:+w@x@$+}+#+#+#+#+y@k@l@ .z@A@B@C@% % , ",
"$ '@% % % % % % D@% % % E@G.`.o.p.p.p.p.p.p.p.p.p.p.p.p.p.q.:+w@F@G@H@#+#+#+#+y@k@l@ .% |.I@% % % , ",
"$ % % J@! % % % % % % % K@G.`.I.p.p.p.p.p.p.p.p.p.p.p.p.p.q.{+w@F@G@H@#+#+#+#+y@k@l@ .% % ! L@% % , ",
"$ % % M@N@% % O@g % % % P@G.o+I.p.p.p.p.p.p.p.p.p.p.p.p.p.q.{+%+Q@R@H@#+#+#+#+y@k@l@ .% % S@T@U@% , ",
"$ % % % % % % % % % % % V@G.`.I.p.p.p.p.p.p.p.p.p.p.p.p.p.q.{+w@F@|+H@#+#+#+#+y@k@l@ .% % W@5 % % , ",
"$ % % % % % % % % % % % X@G.~+o.p.p.p.p.p.p.p.p.p.p.p.p.p.q.:+Y@Z@`@O.#+#+#+#+y@k@l@ .% % % % % % , ",
"$  #.#e % +#@###$#% % % %#G.`.I.p.p.p.p.p.p.p.p.p.p.p.p.p.q.{+&#*#=#-#;##+>#.+7+,#'# .)#+#% % !#.#, ",
"~#{#]#^#/#: }@(#_#/#/#/#:#G.4+I.p.p.p.p.p.p.p.p.p.p.p.p.p.q.@@0.<#[#}#|#1#2#3#4#5#6#7#,+8#/#9#0#]#{#",
"a#b#c#d#e#d#f#g#d#h#]#i#j#k#l#m#n#o#p#q#r#s#t#u#v#w#x#y#z#A#B#C#9@w@h@P.D#E#F#G#H#I#J#e#K#L#M#K#d#N#",
"O#P#Q#R#R#R#S#T#R#U#V#W#R#R#R#R#R#X#V#Y#Z#R#R#R#`# $R#R#.$+$@$#$$$%$&$*$=$-$$@c+;$>$,$R#R#'$)$R#R#!$",
"O#R#R#R#R#R#R#R#R#R#R#R#R#R#R#R#R#R#R#R#R#R#R#R#R#R#R#R#R#R#R#R#R#R#R#~${$]$^$/$($_$,$R#R#R#R#R#R#:$",
"<$[$R#R#R#R#}$|$1$1$2$R#R#R#R#R#R#3$1$1$4$5$6$O#R#R#R#}$1$1$7$R#R#R#R#R#R#8$1$9$0$a$b$R#8$1$1$c$R#:$",
"d$e$f$g$g$g$h$i$i$i$j$k$l$g$g$m$k$n$i$i$o$p$q$r$g$g$s$t$i$i$u$v$g$g$g$w$x$n$i$y$z$g$g$A$B$i$i$C$D$E$",
"F$i$G$H$H$I$J$i$i$i$i$i$K$H$H$L$i$i$i$i$i$i$i$M$H$H$N$i$i$i$i$O$H$H$H$P$i$i$i$i$K$H$H$Q$R$i$i$i$S$T$",
"R$i$i$i$i$i$i$i$i$i$i$i$i$i$i$i$i$i$U$V$W$i$i$i$i$i$i$i$F$V$U$i$i$i$i$i$i$i$i$i$i$i$i$i$i$i$i$i$i$X$",
"V$Y$i$i$i$i$i$i$W$Z$Z$`$i$i$i$i$i$ %.%+%.%i$i$i$i$i$@%Z$V$+%#%i$i$i$i$i$i$i$U$$%i$i$i$i$$%Z$%%F$i$X$",
"&%+%+%*%i$i$i$.%+%+%+%+%+%+%i$W$+%+%+%+%+%=%Z$i$i$i$Z$+%+%+%+%-%i$i$i$F$.%+%+%+%+%i$i$$%+%+%+%+%+%X$",
"&%+%+%+%+%+%+%+%+%+%+%+%+%+%+%+%+%+%+%+%+%+%+%+%+%+%+%+%+%+%+%+%+%+%+%+%+%+%+%+%+%+%+%+%+%+%+%+%+%;%",
"&%+%+%+%+%+%+%+%+%+%+%+%+%+%+%+%+%+%+%+%+%+%+%+%+%+%+%+%+%+%+%+%+%+%+%+%+%+%+%+%+%+%+%+%+%+%+%+%+%>%",
"&%+%+%+%+%+%+%+%+%+%+%+%+%+%+%+%+%+%+%+%+%+%+%+%+%+%+%+%+%+%+%+%+%+%+%+%+%+%+%+%+%+%+%+%+%+%+%+%+%>%",
",%'%'%'%'%'%'%'%'%'%'%'%'%'%'%'%'%'%'%'%'%'%'%'%'%'%'%'%'%'%'%'%'%'%'%'%'%'%'%'%'%'%'%'%'%'%'%'%'%)%"};
