/* XPM */
static char * hero_fly_xpm[] = {
"50 50 757 2",
"  	c None",
". 	c #EDEDED",
"+ 	c #EBF3F1",
"@ 	c #FAFAF6",
"# 	c #EEEEEE",
"$ 	c #F6F6F6",
"% 	c #FFFDFE",
"& 	c #FBF6F9",
"* 	c #ECEFEC",
"= 	c #EFF6F1",
"- 	c #F9FFFA",
"; 	c #FDF8F7",
"> 	c #E0D0D2",
", 	c #DDD7D3",
"' 	c #D9C9BF",
") 	c #D5D5D5",
"! 	c #7C7C7C",
"~ 	c #878787",
"{ 	c #F8F8F8",
"] 	c #F0F0F1",
"^ 	c #F1F7F6",
"/ 	c #F6FBF6",
"( 	c #F6F1EB",
"_ 	c #C3B2B2",
": 	c #9C8A89",
"< 	c #D5C0C3",
"[ 	c #E1E9E0",
"} 	c #FAFAFA",
"| 	c #939494",
"1 	c #1E2020",
"2 	c #1F1D1B",
"3 	c #EEEFEF",
"4 	c #F5F7F9",
"5 	c #F0ECEE",
"6 	c #F1F4F2",
"7 	c #EBE0DF",
"8 	c #8A6368",
"9 	c #D0BFBE",
"0 	c #DECCC7",
"a 	c #A77F83",
"b 	c #F0F0EF",
"c 	c #979795",
"d 	c #211C1B",
"e 	c #24201F",
"f 	c #54514E",
"g 	c #EAE8E5",
"h 	c #F6F5F4",
"i 	c #F9F9F9",
"j 	c #F3E9EB",
"k 	c #886B67",
"l 	c #E9DCD3",
"m 	c #B7A09E",
"n 	c #681419",
"o 	c #F2F2F2",
"p 	c #777777",
"q 	c #342D2B",
"r 	c #C6ACA2",
"s 	c #D5B1A8",
"t 	c #D4CBCB",
"u 	c #F0EBE9",
"v 	c #EFF6F7",
"w 	c #D1E0E8",
"x 	c #DBD8D9",
"y 	c #EAE0D6",
"z 	c #997570",
"A 	c #823638",
"B 	c #F4F4F4",
"C 	c #B0B0B0",
"D 	c #0A0A0C",
"E 	c #71655F",
"F 	c #E7C2AD",
"G 	c #CCA58F",
"H 	c #D9B7A6",
"I 	c #CDD3DA",
"J 	c #5C84A5",
"K 	c #8299B5",
"L 	c #F5F4F5",
"M 	c #CFC2C2",
"N 	c #B89A9F",
"O 	c #FBFEFE",
"P 	c #F0F3F3",
"Q 	c #E4E3E5",
"R 	c #1D1A1C",
"S 	c #685C57",
"T 	c #D4B4A2",
"U 	c #E8C2AB",
"V 	c #ECC1AB",
"W 	c #858A9E",
"X 	c #0C5C9C",
"Y 	c #7799BB",
"Z 	c #F8F9F8",
"` 	c #FEFEFD",
" .	c #F2F8FA",
"..	c #F4F8F7",
"+.	c #F4F5F5",
"@.	c #F7F3F5",
"#.	c #A29E9F",
"$.	c #CBB0A3",
"%.	c #E3BCA6",
"&.	c #E9C1AA",
"*.	c #E6C1A9",
"=.	c #D4B2B4",
"-.	c #0E6A99",
";.	c #8098B2",
">.	c #F4F3F3",
",.	c #FDFBF8",
"'.	c #F4E8E8",
").	c #C7B5B5",
"!.	c #8E7879",
"~.	c #9B8B8B",
"{.	c #C5B2AA",
"].	c #E0BAA4",
"^.	c #E4BAA2",
"/.	c #DFBAA6",
"(.	c #BCA9A1",
"_.	c #6E8AAA",
":.	c #7195BC",
"<.	c #E1F1F5",
"[.	c #E3D4D6",
"}.	c #AA8383",
"|.	c #944042",
"1.	c #852724",
"2.	c #862425",
"3.	c #C48A84",
"4.	c #EEC2B3",
"5.	c #E9C1AE",
"6.	c #E0BEA5",
"7.	c #C5A89D",
"8.	c #24658D",
"9.	c #6287B1",
"0.	c #DFEAEA",
"a.	c #E9D9DE",
"b.	c #92373E",
"c.	c #70344A",
"d.	c #7C3658",
"e.	c #802D43",
"f.	c #942237",
"g.	c #8E2B2B",
"h.	c #D8A492",
"i.	c #E2C0AB",
"j.	c #EAC2A0",
"k.	c #DBB6B3",
"l.	c #4D7C99",
"m.	c #D3E5EA",
"n.	c #EAF5F7",
"o.	c #F1E2E1",
"p.	c #924F4D",
"q.	c #573248",
"r.	c #225E90",
"s.	c #17699F",
"t.	c #2A679E",
"u.	c #326689",
"v.	c #5C596F",
"w.	c #793647",
"x.	c #E4A9A0",
"y.	c #C7B9B5",
"z.	c #7894AD",
"A.	c #BAD4DC",
"B.	c #FDFCFD",
"C.	c #F5ECEC",
"D.	c #985D62",
"E.	c #5D1E2A",
"F.	c #265C85",
"G.	c #0D5C97",
"H.	c #156E98",
"I.	c #176CA8",
"J.	c #186CA9",
"K.	c #2B7BB4",
"L.	c #3777A9",
"M.	c #576C88",
"N.	c #2C7FA9",
"O.	c #2F7DC6",
"P.	c #87ADC6",
"Q.	c #EDF3F4",
"R.	c #EFF0F3",
"S.	c #F3F2EF",
"T.	c #9B716E",
"U.	c #70191F",
"V.	c #3A4761",
"W.	c #0F5E93",
"X.	c #16579A",
"Y.	c #1C69A7",
"Z.	c #1E69A3",
"`.	c #1374AF",
" +	c #2783B4",
".+	c #2481B1",
"++	c #2A7FB7",
"@+	c #2B81B1",
"#+	c #2A80BC",
"$+	c #3484A5",
"%+	c #F9EEF3",
"&+	c #F8FDFB",
"*+	c #F6F2F1",
"=+	c #A57674",
"-+	c #811823",
";+	c #68505B",
">+	c #7791AF",
",+	c #185D8F",
"'+	c #1370A3",
")+	c #0F71A2",
"!+	c #1370AA",
"~+	c #297BB4",
"{+	c #5087B1",
"]+	c #2B7EB2",
"^+	c #2881B8",
"/+	c #79B2C8",
"(+	c #377FAE",
"_+	c #9FC6D7",
":+	c #98AFBD",
"<+	c #EBEFEF",
"[+	c #EBF5F2",
"}+	c #FCF1EE",
"|+	c #AC7D7F",
"1+	c #7A2024",
"2+	c #642827",
"3+	c #CABBB2",
"4+	c #E9DBDC",
"5+	c #E4E2EB",
"6+	c #A9BBCD",
"7+	c #91A2BF",
"8+	c #8FA6C3",
"9+	c #ADAFB5",
"0+	c #E1C4B0",
"a+	c #C8BCC0",
"b+	c #4B84A9",
"c+	c #D8E3EC",
"d+	c #F5FAFD",
"e+	c #E8EFF6",
"f+	c #EFEFEF",
"g+	c #F3F4F4",
"h+	c #FCFBFD",
"i+	c #F6F3F3",
"j+	c #AA8082",
"k+	c #852223",
"l+	c #5D1013",
"m+	c #9E7078",
"n+	c #AA8A84",
"o+	c #A78582",
"p+	c #A68680",
"q+	c #A88A8D",
"r+	c #AB9394",
"s+	c #DFD5D5",
"t+	c #ECDAD3",
"u+	c #EEC1A4",
"v+	c #DAC1B5",
"w+	c #3E83A7",
"x+	c #E1E8EE",
"y+	c #F4F9F7",
"z+	c #F6F9F5",
"A+	c #EDEEEC",
"B+	c #FBF5F5",
"C+	c #A98283",
"D+	c #8A2328",
"E+	c #661516",
"F+	c #5A0F15",
"G+	c #DCCECA",
"H+	c #FCF8F3",
"I+	c #FCF6F6",
"J+	c #F0E6E1",
"K+	c #D3C7C5",
"L+	c #B5A5AC",
"M+	c #A4B4C3",
"N+	c #8BA8C0",
"O+	c #AAA6A6",
"P+	c #A8AEB6",
"Q+	c #79A2BA",
"R+	c #B7CDDA",
"S+	c #F5F5F5",
"T+	c #F2F1F2",
"U+	c #F5F4FA",
"V+	c #F8FBFA",
"W+	c #F5E9E7",
"X+	c #A67C7D",
"Y+	c #842629",
"Z+	c #6E1C1E",
"`+	c #5F1118",
" @	c #620F19",
".@	c #611B1F",
"+@	c #753537",
"@@	c #75161B",
"#@	c #612730",
"$@	c #4A6787",
"%@	c #317CB4",
"&@	c #2880BF",
"*@	c #2175AF",
"=@	c #246DA3",
"-@	c #1F70AD",
";@	c #166AA6",
">@	c #FDFDFD",
",@	c #EEEFEE",
"'@	c #F3F4F0",
")@	c #EAD9D8",
"!@	c #9D6265",
"~@	c #902229",
"{@	c #75181D",
"]@	c #601419",
"^@	c #621316",
"/@	c #5B1415",
"(@	c #5C1316",
"_@	c #571215",
":@	c #A98381",
"<@	c #617384",
"[@	c #2B7DBF",
"}@	c #2A7EB2",
"|@	c #1774A7",
"1@	c #1D6EA1",
"2@	c #1A6AA2",
"3@	c #507FA6",
"4@	c #FBFBFB",
"5@	c #F6F6F8",
"6@	c #F4F4F6",
"7@	c #F6F7F4",
"8@	c #EDE6E5",
"9@	c #B89490",
"0@	c #862529",
"a@	c #892428",
"b@	c #6F191A",
"c@	c #64161B",
"d@	c #621218",
"e@	c #621412",
"f@	c #61140E",
"g@	c #5E1419",
"h@	c #D3BDB9",
"i@	c #A38D90",
"j@	c #F2E4E7",
"k@	c #575C6F",
"l@	c #42719D",
"m@	c #1D6EA0",
"n@	c #186DA7",
"o@	c #5B86AC",
"p@	c #F1FCFA",
"q@	c #FBFEFC",
"r@	c #F8F1F0",
"s@	c #E8E0DF",
"t@	c #C1A2A2",
"u@	c #90252F",
"v@	c #8E2528",
"w@	c #7F1E20",
"x@	c #6C1617",
"y@	c #671518",
"z@	c #621117",
"A@	c #63161A",
"B@	c #601418",
"C@	c #601719",
"D@	c #AA8D93",
"E@	c #BFA9A1",
"F@	c #D6C5C2",
"G@	c #CCB0B5",
"H@	c #957274",
"I@	c #E4E0EA",
"J@	c #29537E",
"K@	c #6888AE",
"L@	c #FAF9F9",
"M@	c #F9F3F5",
"N@	c #F5F7F1",
"O@	c #ECE3DD",
"P@	c #BA9997",
"Q@	c #8C2C2F",
"R@	c #93232A",
"S@	c #852625",
"T@	c #731B1A",
"U@	c #6A1516",
"V@	c #67181A",
"W@	c #5F1115",
"X@	c #66161C",
"Y@	c #5F1317",
"Z@	c #61161A",
"`@	c #67131A",
" #	c #EDDCD4",
".#	c #905D5D",
"+#	c #EDECEB",
"@#	c #664C61",
"##	c #AAAAB7",
"$#	c #A6A3A7",
"%#	c #BCB6C1",
"&#	c #D8EFEF",
"*#	c #EEF7F3",
"=#	c #FCF2FD",
"-#	c #ECECEC",
";#	c #E2D4D0",
">#	c #B18283",
",#	c #91242C",
"'#	c #8C2526",
")#	c #8B2829",
"!#	c #7F1D23",
"~#	c #71131C",
"{#	c #6D1719",
"]#	c #6A1519",
"^#	c #651318",
"/#	c #68161C",
"(#	c #641319",
"_#	c #65181C",
":#	c #62171B",
"<#	c #97706F",
"[#	c #E2D7D4",
"}#	c #727886",
"|#	c #367CA9",
"1#	c #2473AE",
"2#	c #1E75AE",
"3#	c #1869A1",
"4#	c #1E6FA4",
"5#	c #7097B8",
"6#	c #CADCE9",
"7#	c #F7F9F3",
"8#	c #FEFEFE",
"9#	c #EFF6F4",
"0#	c #E4D0CF",
"a#	c #A4686B",
"b#	c #90202A",
"c#	c #94242C",
"d#	c #902429",
"e#	c #8A2427",
"f#	c #7B1C20",
"g#	c #71171B",
"h#	c #6F171C",
"i#	c #69181B",
"j#	c #661418",
"k#	c #68171B",
"l#	c #65151B",
"m#	c #64141D",
"n#	c #681714",
"o#	c #4D4561",
"p#	c #98A0AB",
"q#	c #D0D2D8",
"r#	c #347EAF",
"s#	c #2582B7",
"t#	c #2A7FB5",
"u#	c #2880B3",
"v#	c #2882B4",
"w#	c #2778AF",
"x#	c #2173A9",
"y#	c #186A9D",
"z#	c #82A5BF",
"A#	c #DAE9F0",
"B#	c #F4F5F7",
"C#	c #F4ECEB",
"D#	c #905053",
"E#	c #92242B",
"F#	c #91252B",
"G#	c #881F24",
"H#	c #791519",
"I#	c #73171A",
"J#	c #72181A",
"K#	c #6F1719",
"L#	c #6A1319",
"M#	c #6C181C",
"N#	c #6B151B",
"O#	c #69151B",
"P#	c #65170E",
"Q#	c #603552",
"R#	c #2876A2",
"S#	c #5A88AC",
"T#	c #8FB8CC",
"U#	c #2283BB",
"V#	c #2483B3",
"W#	c #2582B3",
"X#	c #2781B4",
"Y#	c #2980B4",
"Z#	c #2781B5",
"`#	c #2882B5",
" $	c #1C74A9",
".$	c #266EA5",
"+$	c #A0B5CD",
"@$	c #F5F9F8",
"#$	c #F5EEEE",
"$$	c #BC999B",
"%$	c #92252C",
"&$	c #8E262B",
"*$	c #821C20",
"=$	c #79171A",
"-$	c #78171A",
";$	c #701618",
">$	c #6E1618",
",$	c #70161D",
"'$	c #6B1C1F",
")$	c #6A171B",
"!$	c #73141D",
"~$	c #8C7175",
"{$	c #5888AC",
"]$	c #246FB5",
"^$	c #1B71AC",
"/$	c #1872AB",
"($	c #1E7AB0",
"_$	c #2981B2",
":$	c #2682B7",
"<$	c #2580BA",
"[$	c #2480BE",
"}$	c #2481B6",
"|$	c #2683B6",
"1$	c #2482B5",
"2$	c #2782B4",
"3$	c #1E73A9",
"4$	c #1969A6",
"5$	c #7498B4",
"6$	c #E6D7D9",
"7$	c #8B222D",
"8$	c #922425",
"9$	c #91252D",
"0$	c #841D22",
"a$	c #78191A",
"b$	c #761919",
"c$	c #78181B",
"d$	c #74171B",
"e$	c #701718",
"f$	c #732227",
"g$	c #BDA0A1",
"h$	c #7E5552",
"i$	c #9B7D82",
"j$	c #91AEC4",
"k$	c #2B80B5",
"l$	c #1B73A8",
"m$	c #1F71A9",
"n$	c #1A73B1",
"o$	c #216DA0",
"p$	c #9CB7CB",
"q$	c #D7E2EA",
"r$	c #C8D8E4",
"s$	c #B9CDDA",
"t$	c #85AECB",
"u$	c #3881B2",
"v$	c #297FB4",
"w$	c #2780B6",
"x$	c #1971A9",
"y$	c #B49392",
"z$	c #99252E",
"A$	c #912529",
"B$	c #8A1D20",
"C$	c #7C191B",
"D$	c #7B1B17",
"E$	c #791818",
"F$	c #792B2E",
"G$	c #BCA4A1",
"H$	c #763334",
"I$	c #721E21",
"J$	c #D7C5C7",
"K$	c #FAFBFB",
"L$	c #F5F3EB",
"M$	c #C5D1E1",
"N$	c #2B82B1",
"O$	c #2281BB",
"P$	c #1D72A8",
"Q$	c #1B71A7",
"R$	c #1F72AB",
"S$	c #ADC8DB",
"T$	c #F6FCFB",
"U$	c #F1F1F1",
"V$	c #F0EEEF",
"W$	c #FCFBFB",
"X$	c #FAFEF3",
"Y$	c #CFE7F1",
"Z$	c #518FB9",
"`$	c #207DAD",
" %	c #1C6C9D",
".%	c #8A2B32",
"+%	c #962127",
"@%	c #933D40",
"#%	c #844344",
"$%	c #731A17",
"%%	c #82181C",
"&%	c #814446",
"*%	c #DFCECF",
"=%	c #EFEFEA",
"-%	c #E8DDDB",
";%	c #E7DCDA",
">%	c #F3F8F9",
",%	c #F2ECE7",
"'%	c #D6EDF0",
")%	c #4389B3",
"!%	c #2382B8",
"~%	c #2783B1",
"{%	c #1D7EB2",
"]%	c #2F79AA",
"^%	c #BAD4E1",
"/%	c #EDF0ED",
"(%	c #F1EEEE",
"_%	c #FAFEFE",
":%	c #EDF1EF",
"<%	c #F3ECF4",
"[%	c #D6E1E5",
"}%	c #D3E0E5",
"|%	c #C9C5D2",
"1%	c #B69697",
"2%	c #951F29",
"3%	c #8E383A",
"4%	c #EDDFDB",
"5%	c #FAEEEF",
"6%	c #DFC6CB",
"7%	c #C1A9AA",
"8%	c #F6EEEC",
"9%	c #F4F2F4",
"0%	c #ECEEEF",
"a%	c #F5F6F5",
"b%	c #F9FEFB",
"c%	c #EAEFF2",
"d%	c #709EBE",
"e%	c #2C7EB8",
"f%	c #2785B5",
"g%	c #4088AF",
"h%	c #CAE1EA",
"i%	c #FDFDF7",
"j%	c #EAEEF1",
"k%	c #F5EBE7",
"l%	c #FBFEFD",
"m%	c #F7EDF1",
"n%	c #B98E90",
"o%	c #CFB8BA",
"p%	c #E8DFE0",
"q%	c #AC8180",
"r%	c #95242D",
"s%	c #C9B0AE",
"t%	c #EDEFEE",
"u%	c #F6FCFA",
"v%	c #F8FEFE",
"w%	c #F3F6F4",
"x%	c #EFEFEE",
"y%	c #F9F7F7",
"z%	c #FAFEFD",
"A%	c #F8F4F6",
"B%	c #F4EDEC",
"C%	c #F6F4F1",
"D%	c #A2BFCF",
"E%	c #2185B9",
"F%	c #2A82B6",
"G%	c #2281BA",
"H%	c #4F8AB4",
"I%	c #D4E2EE",
"J%	c #EFEEED",
"K%	c #D8C0C3",
"L%	c #8F202D",
"M%	c #892126",
"N%	c #8E3436",
"O%	c #9A6162",
"P%	c #F1EBE7",
"Q%	c #EFEDF2",
"R%	c #FCFBF9",
"S%	c #FDFEFD",
"T%	c #F8F8F9",
"U%	c #FCFFFD",
"V%	c #FBF4F1",
"W%	c #EBEFF3",
"X%	c #BCD5E4",
"Y%	c #267FA7",
"Z%	c #2780BD",
"`%	c #2382BA",
" &	c #5088B1",
".&	c #E8E4E0",
"+&	c #923D43",
"@&	c #862426",
"#&	c #861A1E",
"$&	c #E4CECD",
"%&	c #881B25",
"&&	c #D8C3C1",
"*&	c #F8F9F6",
"=&	c #F9FAFB",
"-&	c #F5F4F3",
";&	c #F7F7F7",
">&	c #F7F5F6",
",&	c #F1F4F0",
"'&	c #F6F5F2",
")&	c #D7E4EC",
"!&	c #3C8ABA",
"~&	c #2681B8",
"{&	c #377CAC",
"]&	c #F7F9F5",
"^&	c #AF7F81",
"/&	c #8C2227",
"(&	c #801E1F",
"_&	c #CDB9B6",
":&	c #A46B6D",
"<&	c #FCF8FC",
"[&	c #F1F2F1",
"}&	c #EEEEED",
"|&	c #F0F3F6",
"1&	c #A7C7D4",
"2&	c #6698C0",
"3&	c #3C83B7",
"4&	c #2980B6",
"5&	c #2182BC",
"6&	c #D4B8B8",
"7&	c #8C2129",
"8&	c #7E1D21",
"9&	c #BDB2A9",
"0&	c #E1C6CC",
"a&	c #F7F9F9",
"b&	c #F7F8F5",
"c&	c #F2F8F4",
"d&	c #F5F4F6",
"e&	c #BAD1DA",
"f&	c #3F84AB",
"g&	c #2D7BAF",
"h&	c #257EAF",
"i&	c #2A7FB9",
"j&	c #DBBBC1",
"k&	c #872E34",
"l&	c #801B1B",
"m&	c #D0C7C1",
"n&	c #FFF4F7",
"o&	c #FAFDFD",
"p&	c #F0F0F0",
"q&	c #FEFAFD",
"r&	c #F2EAEA",
"s&	c #F8FCF9",
"t&	c #F7FDFE",
"u&	c #EFF3FB",
"v&	c #965056",
"w&	c #781E21",
"x&	c #F6F4F4",
"y&	c #F3F6F5",
"z&	c #F5F6F6",
"A&	c #EDF9F6",
"B&	c #F1EAE8",
"C&	c #905559",
"D&	c #B68D8A",
"E&	c #E5D9D4",
"F&	c #862528",
"G&	c #854B47",
"H&	c #FBFDFF",
"I&	c #EEF1F1",
"J&	c #EEEFED",
"K&	c #FBFAFA",
"L&	c #FFFEFE",
"M&	c #F2F0F2",
"N&	c #F5EBEA",
"O&	c #BB9C99",
"P&	c #8F2528",
"Q&	c #952223",
"R&	c #9C6D70",
"S&	c #F3F5F4",
"T&	c #FAF5F6",
"U&	c #F3F8F6",
"V&	c #F2F6F6",
"W&	c #DFD5D0",
"X&	c #902226",
"Y&	c #902726",
"Z&	c #CAAFAF",
"`&	c #FCFCFC",
" *	c #F1EEEF",
".*	c #E6F2EF",
"+*	c #F5F3ED",
"@*	c #9C6260",
"#*	c #95252B",
"$*	c #F9FBF7",
"%*	c #F4F4F5",
"&*	c #F5F0F4",
"**	c #BF9A9C",
"=*	c #FEFEFF",
"-*	c #EFEFED",
";*	c #E8DFD9",
">*	c #DEC7CB",
",*	c #F1EEE9",
"'*	c #95414A",
")*	c #831F24",
"!*	c #F0EEEA",
"~*	c #D3C2BD",
"{*	c #922630",
"]*	c #CCAFB1",
"^*	c #94343D",
"                                                                                                    ",
"                                                                                                    ",
"                                                                                                    ",
"                                                                                            . + @   ",
"                                                                            # $ % & * = - ; > , '   ",
"                                                                      ) ! ~ { $ ] ^ / ( _ : < [     ",
"                                                                    } | 1 2 3 4 5 6 7 8 9 0 a       ",
"                                                                  b c d e f g h i j k l m n         ",
"                                                                o p q r s t u v w x y z A           ",
"                                                              B C D E F G H I J K L M N             ",
"                                                            O P Q R S T U V W X Y Z `               ",
"                                                           ...+.@.#.$.%.&.*.=.-.;.>.                ",
"                                                        ,.'.).!.~.{.].^./.(._.:.<.                  ",
"                                                      [.}.|.1.2.3.4.5.6.7.8.9.0.                    ",
"                                                    a.b.c.d.e.f.g.h.i.j.k.l.m.                      ",
"                                                n.o.p.q.r.s.t.u.v.w.x.y.z.A.                        ",
"                                              B.C.D.E.F.G.H.I.J.K.L.M.N.O.P.                        ",
"                                          Q.R.S.T.U.V.W.X.Y.Z.`. +.+++@+#+$+                        ",
"                                        %+&+*+=+-+;+>+,+'+)+!+~+{+]+^+/+(+_+:+                      ",
"                                      <+[+}+|+1+2+3+4+5+6+7+8+9+0+a+b+c+d+e+                        ",
"                                  f+g+h+i+j+k+l+m+n+o+p+q+r+s+t+u+v+w+x+y+                          ",
"                                z+A++.B+C+D+E+F+G+H+I+J+K+L+M+N+O+P+Q+R+                            ",
"                            S+T+U+V+W+X+Y+Z+`+ @.@+@@@#@$@%@&@*@=@-@;@                              ",
"                          >@$ ,@'@)@!@~@{@]@^@/@(@_@:@<@[@}@|@1@2@3@                                ",
"                      4@5@6@7@8@9@0@a@b@c@d@e@f@g@h@i@j@k@l@m@n@o@                                  ",
"                    p@q@r@s@t@u@v@w@x@y@z@A@B@C@D@E@F@G@H@I@J@K@                                    ",
"                L@M@N@O@P@Q@R@S@T@U@V@W@X@Y@Z@`@ #.#+#@###$#%#&#*#=#                                ",
"              -#i ;#>#,#'#)#!#~#{#]#^#/#(#_#:#<#[#}#|#1#2#3#4#5#6#7#8#                              ",
"            9#0#a#b#c#d#e#f#g#h#i#j#k#l#m#n#o#p#q#r#s#t#u#v#w#x#y#z#A#B#                            ",
"            C#D#R@E#F#G#H#I#J#K#L#M#N#O#P#Q#R#S#T#U#V#W#X#Y#Z#Z#`# $.$+$@$                          ",
"          #$$$R@%$&$*$=$-$I#;$>$,$'$)$!$~${$]$^$/$($_$:$<$[$}$|$1$2$3$4$5$                          ",
"          6$7$8$9$0$a$b$c$d$I#e$f$g$h$i$j$k$l$m$n$o$p$q$r$s$t$u$v$w$x$2@                            ",
"          y$z$A$B$C$D$E$F$G$H$I$J$K$L$M$N$O$P$Q$R$S$T$U$V$W$X$Y$Z$`$ %                              ",
"          .%+%@%#%$%%%&%*%=%-%;%>%,%'%)%!%~%{%]%^%/%(%B._%:%<%[%}%|%                                ",
"        1%2%3%4%5%6%7%8%9%0%a%b%S+c%d%Y#e%f%g%h%i%j%k%>@l%m%n%o%p%                                  ",
"        q%r%s%t%u%v%w%x%y%z%A%B%C%D%E%F%G%H%I%          J%K%L%M%                                    ",
"        N%O%P%Q%R%S%B # T%U%V%W%X%Y%Z%`% &              .&+&@&#&                                    ",
"      $&%&&&*&=&-&o ;&} >&,&'&)&!&~&f%{&              ]&^&/&(&                                      ",
"      _&:&/%<&8#[&}&Z 8#|&1&2&3&4&5&                  6&7&8&                                        ",
"      9&0&a&S+T+i b&c&d&e&f&g&h&i&                  j&k&l&                                          ",
"      m&n&o&p&f+4@q&>.r&s&t&u&                      v&w&                                            ",
"      x&;&y&$ S+z&A&B&C&D&E&                      F&G&                                              ",
"      H&I&J&K&L&M&N&O&P&Q&                        R&                                                ",
"      ;&$ S&T&U&V&W&X&Y&                        Z&                                                  ",
"      # `&`  *.*+*@*#*                                                                              ",
"      U$i $*%*&***                                                                                  ",
"      =*-*;*W+>*                                                                                    ",
"      =&,*'*)*                                                                                      ",
"      !*~*{*                                                                                        ",
"      ]*^*                                                                                          "};
