/* XPM */
static char * terre_xpm[] = {
"50 50 352 2",
"  	c None",
". 	c #81BC40",
"+ 	c #4FA446",
"@ 	c #72B544",
"# 	c #4FA345",
"$ 	c #70B343",
"% 	c #4EA046",
"& 	c #4FA344",
"* 	c #72B545",
"= 	c #4EA045",
"- 	c #4FA346",
"; 	c #6AB145",
"> 	c #59A844",
", 	c #78B945",
"' 	c #6EB244",
") 	c #81BC3F",
"! 	c #EEF4E5",
"~ 	c #6BB145",
"{ 	c #59A946",
"] 	c #70B240",
"^ 	c #4D9E46",
"/ 	c #4FA445",
"( 	c #6BB147",
"_ 	c #4EA145",
": 	c #66AD43",
"< 	c #76B744",
"[ 	c #7CB941",
"} 	c #50A444",
"| 	c #70B447",
"1 	c #67AF46",
"2 	c #4D9E45",
"3 	c #54A647",
"4 	c #5DA944",
"5 	c #4EA246",
"6 	c #58A745",
"7 	c #57A744",
"8 	c #60AB45",
"9 	c #4DA045",
"0 	c #81BC43",
"a 	c #4EA446",
"b 	c #4DA046",
"c 	c #4EA146",
"d 	c #69B045",
"e 	c #74B442",
"f 	c #58A947",
"g 	c #52A646",
"h 	c #57A846",
"i 	c #53A646",
"j 	c #56A746",
"k 	c #83BE42",
"l 	c #59A947",
"m 	c #73B443",
"n 	c #69B146",
"o 	c #4EA346",
"p 	c #5DAA44",
"q 	c #75B644",
"r 	c #66B046",
"s 	c #70B444",
"t 	c #60AA41",
"u 	c #82BE45",
"v 	c #56A745",
"w 	c #65AC43",
"x 	c #57A745",
"y 	c #5FAA44",
"z 	c #77B744",
"A 	c #5BA845",
"B 	c #6DB144",
"C 	c #62AD46",
"D 	c #7CB943",
"E 	c #4DA145",
"F 	c #70B344",
"G 	c #4D9F45",
"H 	c #4FA246",
"I 	c #63AD45",
"J 	c #63AC45",
"K 	c #68B043",
"L 	c #7FBB41",
"M 	c #70B345",
"N 	c #7FBC42",
"O 	c #4FA444",
"P 	c #5AA844",
"Q 	c #64AC42",
"R 	c #7FBD46",
"S 	c #50A344",
"T 	c #88C244",
"U 	c #75B745",
"V 	c #60AB43",
"W 	c #4C9D45",
"X 	c #6FB445",
"Y 	c #67B047",
"Z 	c #78B741",
"` 	c #6AB044",
" .	c #82BD3F",
"..	c #5FAC48",
"+.	c #4D9D45",
"@.	c #68B046",
"#.	c #78B742",
"$.	c #7DBA3F",
"%.	c #5CAB46",
"&.	c #4FA342",
"*.	c #8AC342",
"=.	c #84BE41",
"-.	c #50A448",
";.	c #4FA146",
">.	c #81BE46",
",.	c #64AD45",
"'.	c #4E9F45",
").	c #6AB045",
"!.	c #50A445",
"~.	c #4EA245",
"{.	c #73B544",
"].	c #76B743",
"^.	c #6BB144",
"/.	c #6AB046",
"(.	c #4EA345",
"_.	c #77B845",
":.	c #8AC341",
"<.	c #5CA944",
"[.	c #58A846",
"}.	c #62AC44",
"|.	c #5DAB47",
"1.	c #82BD41",
"2.	c #87C144",
"3.	c #55A744",
"4.	c #4FA546",
"5.	c #4FA242",
"6.	c #87C245",
"7.	c #59A845",
"8.	c #58A845",
"9.	c #80BD44",
"0.	c #61AA42",
"a.	c #5DAA45",
"b.	c #55A747",
"c.	c #74B846",
"d.	c #77B743",
"e.	c #5AAA46",
"f.	c #66AD42",
"g.	c #78B740",
"h.	c #5DA855",
"i.	c #5CA754",
"j.	c #73B341",
"k.	c #5FAA43",
"l.	c #68B045",
"m.	c #6FB14A",
"n.	c #59A843",
"o.	c #52A44B",
"p.	c #5BA752",
"q.	c #5AA751",
"r.	c #67AE42",
"s.	c #56A846",
"t.	c #5FAB44",
"u.	c #4E9F46",
"v.	c #55A44D",
"w.	c #56A24E",
"x.	c #56A34D",
"y.	c #57A64E",
"z.	c #56A44D",
"A.	c #5BA853",
"B.	c #56A44E",
"C.	c #5EA955",
"D.	c #59A650",
"E.	c #55A64C",
"F.	c #57A250",
"G.	c #57A54E",
"H.	c #5AA752",
"I.	c #59A651",
"J.	c #58A64F",
"K.	c #6EB345",
"L.	c #5BA844",
"M.	c #56A847",
"N.	c #6EB243",
"O.	c #65AE45",
"P.	c #55A54C",
"Q.	c #55A24D",
"R.	c #53A14B",
"S.	c #52A44A",
"T.	c #58A451",
"U.	c #56A54E",
"V.	c #7BB44B",
"W.	c #67AD55",
"X.	c #54A24C",
"Y.	c #50A447",
"Z.	c #57A24F",
"`.	c #54A34B",
" +	c #72B14E",
".+	c #6BAF4E",
"++	c #6FB04C",
"@+	c #76B247",
"#+	c #80BD42",
"$+	c #58A847",
"%+	c #82BC3F",
"&+	c #5AA946",
"*+	c #52A647",
"=+	c #57A747",
"-+	c #57A847",
";+	c #7DBA43",
">+	c #4FA447",
",+	c #50A446",
"'+	c #4C9C45",
")+	c #6FB344",
"!+	c #71B442",
"~+	c #86C143",
"{+	c #81BE44",
"]+	c #50A443",
"^+	c #79B843",
"/+	c #5FAB45",
"(+	c #6CB143",
"_+	c #67AE41",
":+	c #61AC46",
"<+	c #69B144",
"[+	c #6DB140",
"}+	c #75B845",
"|+	c #68AE43",
"1+	c #7BBA46",
"2+	c #66AE43",
"3+	c #6DB041",
"4+	c #66AF46",
"5+	c #67AF47",
"6+	c #4FA547",
"7+	c #82BC40",
"8+	c #80BB41",
"9+	c #90C843",
"0+	c #71B445",
"a+	c #88C242",
"b+	c #89C243",
"c+	c #61AB43",
"d+	c #7DBB43",
"e+	c #7DBB44",
"f+	c #62AB43",
"g+	c #6CB247",
"h+	c #51A444",
"i+	c #87C143",
"j+	c #52A444",
"k+	c #6BB146",
"l+	c #92C841",
"m+	c #6DB346",
"n+	c #71B343",
"o+	c #5EAB47",
"p+	c #86BB3D",
"q+	c #88BC3C",
"r+	c #90C53E",
"s+	c #89BE3D",
"t+	c #87BC3C",
"u+	c #8FC43F",
"v+	c #8ABF3D",
"w+	c #87BC3B",
"x+	c #8CC03E",
"y+	c #95C940",
"z+	c #8CC13E",
"A+	c #95C941",
"B+	c #8EC23D",
"C+	c #87BD3C",
"D+	c #8DC13E",
"E+	c #8DC23E",
"F+	c #8DC23F",
"G+	c #8ABF3C",
"H+	c #92C740",
"I+	c #87BD3B",
"J+	c #8FC43D",
"K+	c #31773A",
"L+	c #377F3F",
"M+	c #6BA53F",
"N+	c #498D3E",
"O+	c #69A340",
"P+	c #4C8B3D",
"Q+	c #569441",
"R+	c #7EB540",
"S+	c #579541",
"T+	c #367F3F",
"U+	c #7DB63E",
"V+	c #639E40",
"W+	c #5C973F",
"X+	c #5C983E",
"Y+	c #599742",
"Z+	c #4B8A41",
"`+	c #629D3F",
" @	c #75AD44",
".@	c #357F3F",
"+@	c #367E40",
"@@	c #6AA23C",
"#@	c #ECF1E6",
"$@	c #E8EBE8",
"%@	c #4F7138",
"&@	c #806C3A",
"*@	c #57793D",
"=@	c #75703A",
"-@	c #64763C",
";@	c #7F6B3A",
">@	c #75703B",
",@	c #477C3E",
"'@	c #58793D",
")@	c #69753C",
"!@	c #845F30",
"~@	c #9B5D34",
"{@	c #8B6735",
"]@	c #4B7B3D",
"^@	c #37803E",
"/@	c #6C743A",
"(@	c #976035",
"_@	c #8F6536",
":@	c #7F6C37",
"<@	c #69753A",
"[@	c #816C37",
"}@	c #976034",
"|@	c #7A6F39",
"1@	c #796F39",
"2@	c #866937",
"3@	c #8B6635",
"4@	c #4B7B3E",
"5@	c #866936",
"6@	c #5E773D",
"7@	c #61783C",
"8@	c #926335",
"9@	c #6E723A",
"0@	c #317739",
"a@	c #E8EAE8",
"b@	c #8D5329",
"c@	c #916436",
"d@	c #8E6537",
"e@	c #966135",
"f@	c #995F34",
"g@	c #936236",
"h@	c #966034",
"i@	c #875D31",
"j@	c #EBE9E8",
"k@	c #8B5228",
"l@	c #9A5C33",
"m@	c #91532A",
"n@	c #96582F",
"o@	c #985A31",
"p@	c #94562C",
"q@	c #ECE9E8",
"r@	c #884D23",
"s@	c #905229",
"t@	c #995B32",
"u@	c #9A5C32",
"v@	c #95572E",
"w@	c #94562D",
"x@	c #985A30",
"y@	c #92542B",
"z@	c #975930",
"A@	c #91542A",
"B@	c #884E23",
"C@	c #884E24",
"D@	c #CFC3BE",
"E@	c #874C21",
"F@	c #CEC2BD",
"G@	c #FBFBFB",
"H@	c #FBFAF9",
"I@	c #F3F0EE",
"J@	c #FBF9F9",
"K@	c #FFFFFF",
". + + @ + + + + + + + + # $ + + % + + + + & * + + + + + + = - + + ; > + + + + + + + + + , ' + ) !   ",
". + + ~ + + + + { ] + + ^ + + + + + + + + / ( + + + + + + _ + + : < [ } + + + + + + + + | 1 + ) !   ",
". + + 2 + + + + 3 4 + + 5 + + + + + + + + + + + + + + + + + + + 6 7 8 / 5 9 + 0 + + + + - 2 + ) !   ",
". + + - + + + + + + + + + + + + a + + b c + + + + + + d e + + + + + + + + - + f + + + + + - + ) !   ",
". + + + g h + + + i j + + + + + k } + + + + l + + + + / m n + + + + + + + + + + + + + + + + + ) !   ",
". o o + p q + + + r s + + + + + + + + + + t u 4 + + + + + + + + + + + + v w x + + + 5 - i y + ) !   ",
". _ 5 + + + + + + + + + + c + + + + + + + z A B + + + + + + + + y y + + C D C + + + E 5 f F + ) !   ",
". + + + + + + + + + + + + G + + + + + + + + + + + + + H 5 + + + I J + + + + + + + + + + + + + ) !   ",
". K L l + + + / + + + + + / / + + + + + + + + + + z & o 5 + + + + + + + + / + + + + M N O + + ) !   ",
". P Q i + + + R S + + + } T U + + + + + + + + + + V / + + + + + + + + W + X Y + + + 4 Q / + + ) !   ",
". + + + + + Z `  .+ + + / ..l + + - +.+ + + + + + + + + + + + + + + + - @.#.$.%.+ + + + + + + ) !   ",
". + + o + + + k &.+ + + + + + + + + + + + *.+ + + + + + + + =.+ + + + + / + -.+ + + + + + + + ) !   ",
". + + +.+ + + + + + b ;.+ + + + + + + + + >.+ + + + + + + + + + + + + + + + o + + + + + + - o ) !   ",
". + + + + + + + + + + + + + + ,.v + + + + + + + + + ` + + + + - 5 + + + + + '.- + + + ).!.H c ) !   ",
". + + + + + + ' !.+ + + + + + ~ > + ~.c + + + + + + {.+ + + + - c + + + + + + + + + + * !.+ + ) !   ",
". + + ].+ + + ^.!.+ /.C + + + + + + (.5 + + + + + G + + + + + + + + _.!.+ + + + + + + + + + + ) !   ",
". + + :.+ + + + + + <.[.+ 5 G + + + + + + + + + + 5 + + + + + + + + }./ + + + / + + + + + + + ) !   ",
". + + |.+ + + + + + + + + + o + + + + + + + + + + + + + + + + + + + + + + + + 1.+ + + + + + + ) !   ",
". + + + + + G 5 + + + + + + + + + + + + + 2.+ + + 3.4.+ + + / 3.+ + + + + + + 5.6.+ + + + + + ) !   ",
". o - + + + + + + v 7.+ + + 8.8.+ + + + + + + + + 9.0.+ + + S 9.+ + + + + + + + + + o - g a.+ ) !   ",
". % ~.+ + + + + b.c.d.e.+ + f.< x + - 5 + + + + + + g.h.i.+ + + + + + + + + + + + + % ~.f j.+ ) !   ",
". + + + + y k.+ f F l.C + + + m.n.+ ~.5 - + - + + - o.p.q.# + + + + + + + + r.s.+ + + + + + + ) !   ",
". + + + + y t.+ - u.+ + + + v.w.x.y.h.z.A.B.C.D.E.D.F.G.H.h.D.I.J.K.L.+ + + r.M.+ + + + + + + ) !   ",
". N.O.+ + + + + + H + + + + P.Q.R.S.T.U.V.W.H.z.X.Y.Z.`. +.+X.B.++@+#+} + + + + + + + + + + + ) !   ",
". $+M.+ + + + + + + + + %++ + + + + 4.+ &+*++ + + + + + $+=++ + -+;+^./ + + + + + >+#.y + + + ) !   ",
". + + + + + + + *++ + + !.+ + + g + + + + + + + + + + + + + + + + !.,++ + + + '++ )+!+~+} + + ) !   ",
". u.c + + + + + #++ + + + + # + {+]++ + + + + c = p / + + + + + + + + + + + + + + + z k.+ + + ) !   ",
". + + + + + + + + + + + + ~.= + + + + + + + + + + ^+} + + + + + + + + + &+/++ + + + + + + + + ) !   ",
". + + !.(++ + + _ + + + + + + + + + + + _+j + + + + + + 5 H + 7 : + + + :+<++ + + + + (+[++ + ) !   ",
". + + / (++ + + = + + + / }++ + + - b + |+1++ + + + + + 5 H + 6 2++ + - % + + + + + + B 3++ + ) !   ",
". + + + + + + + + + + + / 4++ + + + ~.+ + 5++ + + + + + + + + + + + + + ~.+ + + + + + + + + + ) !   ",
". + + 4.+ + + + + + + + + + + + a + + + + + 6++ + >+/ + + + + + + + 4./ + + 4.+ + + + + >++ + ) !   ",
"7+,+8+9+,+0+$ ,+a+,+,+,+b+c+d+e+f+,+,+< g+h+T ,+,+i+j+,+,+,+b+,+,+,+i+j+k+l+m+,+,+0+n+,+o+l+z ) !   ",
"p+q+r+s+q+t+u+v+w+x+y+z+w+t+w+w+w+A+y+B+C+t+w+D+E+w+t+x+y+F+w+q+D+y+G+t+t+B+F+H+t+t+t+H+I+w+t+J+!   ",
"K+L+M+N+L+L+O+P+L+Q+R+S+L+L+L+L+T+U+R+V+L+L+L+W+X+L+L+Q+R+Y+L+L+W+R+Z+L+L+`+Y+ @.@L+L+ @+@L+L+@@#@  ",
"K+L+L+L+L+L+L+L+L+L+L+L+L+L+L+L+L+L+L+L+L+L+L+L+L+L+L+L+L+L+L+L+L+L+L+L+L+L+L+L+L+L+L+L+L+L+L+K+$@  ",
"%@&@*@L+L+L+L+=@&@&@-@L+L+L+L+L+T+;@&@-@L+>@T+L+L+L+,@&@&@'@L+L+L+L+L+,@&@-@L+L+L+L+)@&@=@L+L+K+$@  ",
"!@~@{@]@^@^@/@(@~@~@_@:@]@^@^@<@[@~@~@_@[@}@|@^@^@1@2@~@~@3@4@^@^@^@1@5@~@_@6@^@^@7@8@~@}@9@^@0@a@  ",
"b@~@~@c@d@d@e@~@~@~@~@~@c@d@d@e@~@~@~@~@~@~@f@d@d@f@~@~@~@~@c@d@d@d@f@~@~@~@g@d@d@g@~@~@~@h@d@i@j@  ",
"k@~@~@~@~@~@~@~@~@~@~@~@~@~@~@~@~@l@m@n@~@~@~@~@~@~@~@o@m@o@~@~@~@~@~@~@~@~@~@~@~@~@~@~@~@~@~@p@q@  ",
"r@s@n@t@~@~@~@t@o@s@s@n@t@l@~@l@t@m@s@s@n@t@~@~@~@u@s@s@s@n@~@~@~@~@l@t@n@v@t@~@~@l@w@s@m@t@l@p@q@  ",
"r@s@s@s@x@o@o@y@s@s@s@s@s@y@o@w@s@s@s@s@s@s@o@o@o@y@s@s@s@s@z@o@o@o@y@s@s@s@s@z@o@v@s@s@s@s@w@A@q@  ",
"r@s@s@s@s@s@s@s@s@s@s@s@s@s@s@s@s@s@s@s@s@s@s@s@s@s@s@s@s@s@s@s@s@s@s@s@s@s@s@s@s@s@s@s@s@s@s@B@q@  ",
"r@s@s@s@s@s@s@s@s@s@s@s@s@s@s@s@s@s@s@s@s@s@s@s@s@s@s@s@s@s@s@s@s@s@s@s@s@s@s@s@s@s@s@s@s@s@s@B@q@  ",
"B@s@s@s@s@s@s@s@s@s@s@s@s@s@s@s@s@s@s@s@s@s@s@s@s@s@s@s@s@s@s@s@s@s@s@s@s@s@s@s@s@s@s@s@s@s@s@C@q@  ",
"D@E@E@E@E@E@E@E@E@E@E@E@E@E@E@E@E@E@E@E@E@E@E@E@E@E@E@E@E@E@E@E@E@E@E@E@E@E@E@E@E@E@E@E@E@E@E@F@G@  ",
"H@I@I@I@I@I@I@I@I@I@I@I@I@I@I@I@I@I@I@I@I@I@I@I@I@I@I@I@I@I@I@I@I@I@I@I@I@I@I@I@I@I@I@I@I@I@I@J@K@  ",
"                                                                                                    ",
"                                                                                                    ",
"                                                                                                    "};
